<?xml version="1.0" encoding="iso-8859-1"?>
<!-- Generator: Adobe Illustrator 19.0.0, SVG Export Plug-In . SVG Version: 6.00 Build 0)  -->
<svg version="1.1" id="Capa_1" xmlns="http://www.w3.org/2000/svg" xmlns:xlink="http://www.w3.org/1999/xlink" x="0px" y="0px"
	 viewBox="0 0 512 512" style="enable-background:new 0 0 512 512;" xml:space="preserve">
<path style="fill:#ABFFDB;" d="M415.24,441.78H96.76c-14.658,0-26.54-11.882-26.54-26.54V96.76c0-14.658,11.882-26.54,26.54-26.54
	H415.24c14.658,0,26.54,11.882,26.54,26.54V415.24C441.78,429.898,429.898,441.78,415.24,441.78z"/>
<rect x="105.607" y="105.607" style="fill:#FFFFFF;" width="300.786" height="300.786"/>
<path style="fill:#FFC850;" d="M309.08,309.08H202.92c-4.886,0-8.847-3.961-8.847-8.847v-53.08h123.853v53.08
	C317.927,305.119,313.965,309.08,309.08,309.08z"/>
<polygon style="fill:#FEA82F;" points="194.073,282.544 255.986,300.233 317.927,282.537 317.927,247.153 194.073,247.153 "/>
<g>
	<path style="fill:#474D54;" d="M503.706,175.827c4.58,0,8.294-3.713,8.294-8.294s-3.713-8.294-8.294-8.294h-53.633v-27.646h53.633
		c4.58,0,8.294-3.713,8.294-8.294c0-4.58-3.713-8.294-8.294-8.294h-53.633V96.76c0-19.207-15.627-34.834-34.834-34.834h-18.246
		V8.294c0-4.58-3.713-8.294-8.294-8.294s-8.294,3.713-8.294,8.294v53.633H352.76V8.294c0-4.58-3.713-8.294-8.294-8.294
		s-8.294,3.713-8.294,8.294v53.633h-27.646V8.294c0-4.58-3.713-8.294-8.294-8.294s-8.294,3.713-8.294,8.294v53.633h-27.646V8.294
		C264.294,3.713,260.58,0,256,0s-8.294,3.713-8.294,8.294v53.633H220.06V8.294c0-4.58-3.713-8.294-8.294-8.294
		s-8.294,3.713-8.294,8.294v53.633h-27.646V8.294c0-4.58-3.713-8.294-8.294-8.294s-8.294,3.713-8.294,8.294v53.633h-27.646V8.294
		c0-4.58-3.713-8.294-8.294-8.294c-4.58,0-8.294,3.713-8.294,8.294v53.633H96.76c-19.207,0-34.834,15.626-34.834,34.834v18.246
		H8.294C3.713,115.006,0,118.72,0,123.3c0,4.58,3.713,8.294,8.294,8.294h53.633v27.646H8.294c-4.58,0-8.294,3.713-8.294,8.294
		s3.713,8.294,8.294,8.294h53.633v27.646H8.294c-4.58,0-8.294,3.713-8.294,8.294s3.713,8.294,8.294,8.294h53.633v27.646H8.294
		C3.713,247.706,0,251.42,0,256s3.713,8.294,8.294,8.294h53.633v27.646H8.294c-4.58,0-8.294,3.713-8.294,8.294
		s3.713,8.294,8.294,8.294h53.633v27.646H8.294c-4.58,0-8.294,3.713-8.294,8.294s3.713,8.294,8.294,8.294h53.633v27.646H8.294
		c-4.58,0-8.294,3.713-8.294,8.294s3.713,8.294,8.294,8.294h53.633v18.246c0,19.207,15.626,34.834,34.834,34.834h18.246v53.633
		c0,4.581,3.713,8.294,8.294,8.294c4.58,0,8.294-3.712,8.294-8.294v-53.633h27.646v53.633c0,4.581,3.713,8.294,8.294,8.294
		s8.294-3.712,8.294-8.294v-53.633h27.646v53.633c0,4.581,3.713,8.294,8.294,8.294s8.294-3.712,8.294-8.294v-53.633h27.646v53.633
		c0,4.581,3.713,8.294,8.294,8.294s8.294-3.712,8.294-8.294v-53.633h27.646v53.633c0,4.581,3.713,8.294,8.294,8.294
		s8.294-3.712,8.294-8.294v-53.633h27.646v53.633c0,4.581,3.713,8.294,8.294,8.294s8.294-3.712,8.294-8.294v-53.633h27.646v53.633
		c0,4.581,3.713,8.294,8.294,8.294s8.294-3.712,8.294-8.294v-53.633h18.246c19.207,0,34.834-15.627,34.834-34.834v-18.246h53.633
		c4.58,0,8.294-3.713,8.294-8.294s-3.713-8.294-8.294-8.294h-53.633V352.76h53.633c4.58,0,8.294-3.713,8.294-8.294
		s-3.713-8.294-8.294-8.294h-53.633v-27.646h53.633c4.58,0,8.294-3.713,8.294-8.294s-3.713-8.294-8.294-8.294h-53.633v-27.646
		h53.633c4.58,0,8.294-3.713,8.294-8.294s-3.713-8.294-8.294-8.294h-53.633V220.06h53.633c4.58,0,8.294-3.713,8.294-8.294
		s-3.713-8.294-8.294-8.294h-53.633v-27.646H503.706z M433.486,415.24c0,10.061-8.185,18.246-18.246,18.246H96.76
		c-10.061,0-18.246-8.185-18.246-18.246V96.76c0-10.061,8.185-18.246,18.246-18.246H415.24c10.061,0,18.246,8.185,18.246,18.246
		V415.24z"/>
	<circle style="fill:#474D54;" cx="353.313" cy="326.773" r="8.294"/>
</g>
<g>
	<circle style="fill:#92E0C0;" cx="353.313" cy="326.773" r="8.294"/>
	<path style="fill:#92E0C0;" d="M345.019,238.306v61.927c0,4.58,3.713,8.294,8.294,8.294s8.294-3.713,8.294-8.294v-61.927H345.019z"
		/>
</g>
<path style="fill:#FFC850;" d="M255.986,202.92l-112.558,32.16c-3.246,0.928-3.246,5.527,0,6.454l112.558,32.159l112.558-32.159
	c3.246-0.928,3.246-5.527,0-6.454L255.986,202.92z"/>
<g>
</g>
<g>
</g>
<g>
</g>
<g>
</g>
<g>
</g>
<g>
</g>
<g>
</g>
<g>
</g>
<g>
</g>
<g>
</g>
<g>
</g>
<g>
</g>
<g>
</g>
<g>
</g>
<g>
</g>
</svg>
