<?xml version="1.0" encoding="iso-8859-1"?>
<!-- Generator: Adobe Illustrator 19.0.0, SVG Export Plug-In . SVG Version: 6.00 Build 0)  -->
<svg version="1.1" id="Capa_1" xmlns="http://www.w3.org/2000/svg" xmlns:xlink="http://www.w3.org/1999/xlink" x="0px" y="0px"
	 viewBox="0 0 512 512" style="enable-background:new 0 0 512 512;" xml:space="preserve">
<g>
	<path style="fill:#ABFFDB;" d="M42.221,311.582H25.119c-9.446,0-17.102-7.656-17.102-17.102v-17.102h34.205V311.582z"/>
	<path style="fill:#ABFFDB;" d="M469.779,311.582h17.102c9.446,0,17.102-7.656,17.102-17.102v-17.102h-34.205V311.582z"/>
</g>
<path style="fill:#92E0C0;" d="M110.63,301.398v46.022c0,3.179,3.345,5.246,6.188,3.824l46.022-23.011
	c3.151-1.576,3.151-6.072,0-7.648l-46.022-23.011C113.975,296.153,110.63,298.22,110.63,301.398z"/>
<path style="fill:#474D54;" d="M506.353,263.587l-54.284-115.352c-6.93-14.727-21.925-24.244-38.202-24.244h-29.6
	c-4.427,0-8.017,3.589-8.017,8.017c0,4.427,3.589,8.017,8.017,8.017h29.6c10.096,0,19.396,5.902,23.695,15.037l53.789,114.299
	h-19.817c-4.607-5.237-11.351-8.551-18.856-8.551H298.757c-12.868,0-23.502,9.729-24.946,22.217
	c-5.171-3.237-11.275-5.115-17.811-5.115s-12.64,1.878-17.81,5.115c-1.444-12.488-12.077-22.217-24.946-22.217H59.324
	c-7.507,0-14.25,3.315-18.856,8.551H20.65l53.788-114.299c4.298-9.135,13.6-15.037,23.695-15.037h29.6
	c4.427,0,8.017-3.589,8.017-8.017c0-4.427-3.589-8.017-8.017-8.017h-29.6c-16.277,0-31.273,9.516-38.202,24.244L5.647,263.587
	C1.953,271.437,0,280.171,0,288.846v5.634c0,13.851,11.268,25.119,25.119,25.119h9.086v0.534c0,37.426,30.449,67.875,67.875,67.875
	h68.409c37.426,0,67.875-30.448,67.875-67.875v-8.551c0-9.725,7.912-17.637,17.637-17.637s17.637,7.912,17.637,17.637v8.551
	c0,37.426,30.448,67.875,67.875,67.875h68.409c37.426,0,67.875-30.448,67.875-67.875v-0.534h9.086
	c13.851,0,25.119-11.268,25.119-25.119v-5.634C512,280.171,510.047,271.437,506.353,263.587z M34.205,285.929v17.637h-9.086
	c-5.01,0-9.086-4.076-9.086-9.086v-5.634c0-1.151,0.064-2.302,0.157-3.451h18.028C34.214,285.573,34.205,285.749,34.205,285.929z
	 M222.33,320.134c0,28.585-23.256,51.841-51.841,51.841h-68.409c-28.585,0-51.841-23.256-51.841-51.841v-34.205
	c0-5.01,4.076-9.086,9.086-9.086h153.921c5.01,0,9.086,4.076,9.086,9.086V320.134z M461.762,320.134
	c0,28.585-23.256,51.841-51.841,51.841h-68.409c-28.585,0-51.841-23.256-51.841-51.841v-34.205c0-5.01,4.076-9.086,9.086-9.086
	h153.921c5.01,0,9.086,4.076,9.086,9.086V320.134z M495.967,294.48c0,5.01-4.076,9.086-9.086,9.086h-9.086v-17.637
	c0-0.18-0.01-0.356-0.014-0.534h18.028c0.093,1.15,0.157,2.301,0.157,3.451V294.48z"/>
<g>
	<path style="fill:#FFC850;" d="M358.614,295.015c-4.427,0-8.017,3.589-8.017,8.017v42.756c0,4.427,3.589,8.017,8.017,8.017
		c4.427,0,8.017-3.589,8.017-8.017v-42.756C366.63,298.604,363.042,295.015,358.614,295.015z"/>
	<path style="fill:#FFC850;" d="M392.818,295.015c-4.427,0-8.017,3.589-8.017,8.017v42.756c0,4.427,3.589,8.017,8.017,8.017
		c4.427,0,8.017-3.589,8.017-8.017v-42.756C400.835,298.604,397.247,295.015,392.818,295.015z"/>
</g>
<g>
</g>
<g>
</g>
<g>
</g>
<g>
</g>
<g>
</g>
<g>
</g>
<g>
</g>
<g>
</g>
<g>
</g>
<g>
</g>
<g>
</g>
<g>
</g>
<g>
</g>
<g>
</g>
<g>
</g>
</svg>
