<?xml version="1.0" encoding="iso-8859-1"?>
<!-- Generator: Adobe Illustrator 19.0.0, SVG Export Plug-In . SVG Version: 6.00 Build 0)  -->
<svg version="1.1" id="Capa_1" xmlns="http://www.w3.org/2000/svg" xmlns:xlink="http://www.w3.org/1999/xlink" x="0px" y="0px"
	 viewBox="0 0 511.998 511.998" style="enable-background:new 0 0 511.998 511.998;" xml:space="preserve">
<circle style="fill:#FFC850;" cx="179.04" cy="179.048" r="171.023"/>
<circle style="fill:#ABFFDB;" cx="179.04" cy="179.048" r="136.818"/>
<path style="fill:#92E0C0;" d="M264.551,264.555c-75.562,0-136.818-61.256-136.818-136.818c0-31.464,10.731-60.358,28.582-83.472
	C91.592,55.109,42.221,111.241,42.221,179.044c0,75.562,61.256,136.818,136.818,136.818c44.099,0,83.215-20.952,108.236-53.346
	C279.868,263.757,272.31,264.555,264.551,264.555z"/>
<path style="fill:#FFC850;" d="M462.695,498.978l-127.23-127.229c-6.678-6.678-6.678-17.507,0-24.186l12.093-12.093
	c6.678-6.678,17.507-6.678,24.186,0l127.229,127.229c6.678,6.678,6.678,17.507,0,24.186l-12.092,12.093
	C480.203,505.657,469.374,505.657,462.695,498.978z"/>
<path style="fill:#FEA82F;" d="M478.545,483.128l-127.23-127.23c-6.035-6.035-6.562-15.429-1.69-22.118
	c-0.713,0.519-1.424,1.045-2.067,1.689l-12.092,12.092c-6.68,6.68-6.68,17.507,0,24.186l127.229,127.229
	c6.68,6.68,17.507,6.68,24.186,0l12.092-12.092c0.643-0.643,1.168-1.354,1.688-2.067
	C493.974,489.689,484.58,489.162,478.545,483.128z"/>
<g>
	<path style="fill:#FFFFFF;" d="M305.819,127.737h-18.11c-3.983,0-7.91-0.928-11.472-2.709l-6.31-3.155
		c-3.536-1.768-7.434-2.695-11.387-2.708l-11.317-0.037c-14.35-0.094-25.986,11.601-25.82,25.95l0.099,8.609
		c0.162,14.052,11.6,25.357,25.652,25.357h0.295c9.445,0,17.102,7.656,17.102,17.102v11.402c0,3.701,1.2,7.302,3.42,10.261
		l22.233,29.644h7.2c11.667-20.14,18.453-43.459,18.453-68.409C315.858,160.885,312.243,143.591,305.819,127.737z"/>
	<path style="fill:#FFFFFF;" d="M258.594,67.879h-11.145c-4.722,0-8.551,3.829-8.551,8.551v8.551c0,4.722-3.829,8.551-8.551,8.551
		s-8.551,3.829-8.551,8.551v8.532c0,4.721,3.826,8.548,8.547,8.551l25.656,0.014c4.723,0.003,8.553-3.826,8.553-8.549
		c0-4.721,3.828-8.549,8.549-8.549h19.044C283.077,88.783,271.667,77.251,258.594,67.879z"/>
	<path style="fill:#FFFFFF;" d="M196.142,204.697H179.04l-21.345-14.23c-2.809-1.873-6.11-2.872-9.486-2.872h-20.476v25.052
		c0,5.719,2.858,11.058,7.616,14.23l18.038,12.025l14.837,44.511c1.353,4.059,5.151,6.796,9.429,6.796
		c5.489,0,9.939-4.45,9.939-9.939v-32.817l14.598-14.598c1.603-1.603,2.504-3.779,2.504-6.047v-13.56
		C204.693,208.525,200.864,204.697,196.142,204.697z"/>
	<path style="fill:#FFFFFF;" d="M47.695,140.991l29.579,36.975c4.869,6.085,12.239,9.628,20.032,9.628h4.773v-17.102
		c0-9.446,7.658-17.102,17.102-17.102h8.551l25.653-42.756h10.426c3.924,0,7.344-2.671,8.296-6.477l4.276-17.102
		c1.349-5.397-2.733-10.625-8.296-10.625h-29.215c-1.689,0-3.339,0.499-4.744,1.436L110.63,93.532v-8.551
		c0-4.722-3.829-8.551-8.551-8.551H89.52h-0.769C69.478,93.403,55.026,115.653,47.695,140.991z"/>
	<path style="fill:#FFFFFF;" d="M77.275,177.966c4.869,6.085,12.239,9.628,20.032,9.628h4.773v-17.102
		c0-9.446,7.658-17.102,17.102-17.102h8.551l1.982-3.304c-1.2-7.289-1.982-14.72-1.982-22.349c0-18.124,3.657-35.346,10.088-51.151
		c-1.31,0.165-2.585,0.543-3.692,1.281L110.63,93.532v-8.551c0-4.722-3.829-8.551-8.551-8.551H89.52h-0.664
		c-19.319,16.944-33.842,39.179-41.193,64.523L77.275,177.966z"/>
	<path style="fill:#FFFFFF;" d="M187.591,280.269v-32.817l4.072-4.072c-21.444-13.545-38.803-32.851-49.997-55.786h-13.933v25.052
		c0,5.719,2.858,11.058,7.616,14.23l18.038,12.025l14.837,44.511c1.353,4.059,5.151,6.796,9.429,6.796
		C183.141,290.209,187.591,285.759,187.591,280.269z"/>
</g>
<path style="fill:#474D54;" d="M504.643,457.03l-127.23-127.229c-9.793-9.793-25.729-9.794-35.524,0l-0.378,0.378l-30.392-30.393
	c29.15-31.861,46.961-74.259,46.961-120.742c0-98.723-80.317-179.04-179.04-179.04S0,80.321,0,179.044s80.317,179.04,179.04,179.04
	c46.484,0,88.883-17.811,120.742-46.961l30.392,30.393l-0.378,0.378c-4.745,4.744-7.357,11.052-7.357,17.762
	c0,6.709,2.613,13.018,7.357,17.762l127.229,127.23l0,0c4.898,4.897,11.329,7.345,17.762,7.345c6.433,0,12.865-2.449,17.762-7.345
	l12.092-12.092c4.744-4.744,7.357-11.052,7.357-17.762C511.998,468.085,509.387,461.774,504.643,457.03z M179.04,342.05
	c-89.882,0-163.006-73.124-163.006-163.006S89.157,16.038,179.04,16.038s163.006,73.124,163.006,163.006
	S268.922,342.05,179.04,342.05z M493.305,481.216l-12.092,12.092c-3.542,3.542-9.307,3.543-12.849,0l0,0l-127.229-127.23
	c-1.716-1.716-2.662-3.997-2.662-6.424c0-2.427,0.945-4.708,2.662-6.425l12.092-12.092c3.542-3.541,9.306-3.542,12.849,0
	l127.229,127.23c1.716,1.716,2.662,3.998,2.662,6.424C495.967,477.217,495.022,479.5,493.305,481.216z"/>
<g>
</g>
<g>
</g>
<g>
</g>
<g>
</g>
<g>
</g>
<g>
</g>
<g>
</g>
<g>
</g>
<g>
</g>
<g>
</g>
<g>
</g>
<g>
</g>
<g>
</g>
<g>
</g>
<g>
</g>
</svg>
