<?xml version="1.0" encoding="iso-8859-1"?>
<!-- Generator: Adobe Illustrator 19.0.0, SVG Export Plug-In . SVG Version: 6.00 Build 0)  -->
<svg version="1.1" id="Capa_1" xmlns="http://www.w3.org/2000/svg" xmlns:xlink="http://www.w3.org/1999/xlink" x="0px" y="0px"
	 viewBox="0 0 512 512" style="enable-background:new 0 0 512 512;" xml:space="preserve">
<path style="fill:#FFFFFF;" d="M324.409,503.983H187.591c-14.168,0-25.653-11.485-25.653-25.653V33.67
	c0-14.168,11.485-25.653,25.653-25.653h136.818c14.168,0,25.653,11.485,25.653,25.653v444.66
	C350.063,492.498,338.577,503.983,324.409,503.983z"/>
<circle style="fill:#ABFFDB;" cx="256" cy="401.37" r="59.858"/>
<path style="fill:#FFC850;" d="M307.307,247.449H204.693c-4.722,0-8.551-3.829-8.551-8.551V119.182c0-4.722,3.829-8.551,8.551-8.551
	h102.614c4.722,0,8.551,3.829,8.551,8.551v119.716C315.858,243.62,312.029,247.449,307.307,247.449z"/>
<path style="fill:#ABFFDB;" d="M298.756,76.426h-85.511c-9.446,0-17.102-7.656-17.102-17.102l0,0
	c0-9.446,7.656-17.102,17.102-17.102h85.511c9.446,0,17.102,7.656,17.102,17.102l0,0C315.858,68.769,308.202,76.426,298.756,76.426z
	"/>
<circle style="fill:#FFFFFF;" cx="256" cy="401.37" r="25.653"/>
<circle style="fill:#ABFFDB;" cx="213.244" cy="298.756" r="17.102"/>
<circle style="fill:#FFC850;" cx="298.756" cy="298.756" r="17.102"/>
<g>
	<circle style="fill:#92E0C0;" cx="256" cy="59.324" r="17.102"/>
	<circle style="fill:#92E0C0;" cx="298.756" cy="59.324" r="17.102"/>
	<circle style="fill:#92E0C0;" cx="213.244" cy="59.324" r="17.102"/>
</g>
<path style="fill:#474D54;" d="M324.409,0H187.591c-18.566,0-33.67,15.105-33.67,33.67v444.66c0,18.566,15.105,33.67,33.67,33.67
	h136.818c18.566,0,33.67-15.105,33.67-33.67V33.67C358.079,15.105,342.975,0,324.409,0z M342.046,478.33
	c0,9.725-7.912,17.637-17.637,17.637H187.591c-9.725,0-17.637-7.912-17.637-17.637V33.67c0-9.725,7.912-17.637,17.637-17.637
	h136.818c9.725,0,17.637,7.912,17.637,17.637V478.33z"/>
<g>
	<path style="fill:#FFFFFF;" d="M281.653,153.921c-4.427,0-8.017,3.589-8.017,8.017c0,9.725-7.912,17.637-17.637,17.637
		s-17.637-7.912-17.637-17.637c0-4.427-3.589-8.017-8.017-8.017s-8.017,3.589-8.017,8.017c0,15.804,10.947,29.091,25.653,32.699
		v10.592h-0.534c-4.427,0-8.017,3.589-8.017,8.017s3.589,8.017,8.017,8.017h17.102c4.427,0,8.017-3.589,8.017-8.017
		s-3.589-8.017-8.017-8.017h-0.534v-10.592c14.707-3.606,25.653-16.895,25.653-32.699
		C289.67,157.51,286.081,153.921,281.653,153.921z"/>
	<path style="fill:#FFFFFF;" d="M256,169.954c4.427,0,8.017-3.589,8.017-8.017v-17.102c0-4.427-3.589-8.017-8.017-8.017
		c-4.427,0-8.017,3.589-8.017,8.017v17.102C247.983,166.365,251.573,169.954,256,169.954z"/>
</g>
<g>
</g>
<g>
</g>
<g>
</g>
<g>
</g>
<g>
</g>
<g>
</g>
<g>
</g>
<g>
</g>
<g>
</g>
<g>
</g>
<g>
</g>
<g>
</g>
<g>
</g>
<g>
</g>
<g>
</g>
</svg>
