<?xml version="1.0" encoding="iso-8859-1"?>
<!-- Generator: Adobe Illustrator 19.0.0, SVG Export Plug-In . SVG Version: 6.00 Build 0)  -->
<svg version="1.1" id="Capa_1" xmlns="http://www.w3.org/2000/svg" xmlns:xlink="http://www.w3.org/1999/xlink" x="0px" y="0px"
	 viewBox="0 0 512 512" style="enable-background:new 0 0 512 512;" xml:space="preserve">
<path style="fill:#FFC850;" d="M486.881,456.951H161.94c-9.446,0-17.102-7.656-17.102-17.102V260.277
	c0-9.446,7.656-17.102,17.102-17.102h324.941c9.446,0,17.102,7.656,17.102,17.102v179.573
	C503.983,449.294,496.327,456.951,486.881,456.951z"/>
<path style="fill:#FEA82F;" d="M265.65,243.174H161.941c-9.445,0-17.102,7.656-17.102,17.102v68.409
	C200.663,328.685,248.024,292.959,265.65,243.174z"/>
<path style="fill:#FFFFFF;" d="M376.784,217.521c-40.686,0-52.31,12.388-52.31,12.388s-11.624-12.388-52.31-12.388
	c-36.015,0-77.875,8.922-89.723,11.623c-1.944,0.444-3.272,2.163-3.272,4.158v187.91c0,2.737,2.486,4.778,5.158,4.183
	c13.922-3.103,53.532-11.198,87.838-11.198c27.686,0,41.915,5.737,48.181,9.403c2.547,1.49,5.71,1.49,8.257,0
	c6.266-3.666,20.495-9.403,48.181-9.403c34.306,0,73.916,8.095,87.838,11.198c2.671,0.595,5.158-1.445,5.158-4.183v-187.91
	c0-1.995-1.328-3.714-3.272-4.158C454.658,226.443,412.799,217.521,376.784,217.521z"/>
<path style="fill:#E4EAF8;" d="M271.833,217.525c-35.941,0.055-77.582,8.925-89.394,11.618c-1.944,0.444-3.273,2.163-3.273,4.158
	v90.598C227.968,310.355,264.986,268.767,271.833,217.525z"/>
<circle style="fill:#ABFFDB;" cx="144.834" cy="200.417" r="102.613"/>
<path style="fill:#92E0C0;" d="M187.593,277.379c-61.394,0-111.164-49.769-111.164-111.164c0-18.819,4.715-36.523,12.969-52.059
	c-28.351,18.26-47.173,50.034-47.173,86.263c0,56.671,45.941,102.613,102.613,102.613c28.157,0,53.649-11.357,72.19-29.719
	C207.639,275.888,197.8,277.379,187.593,277.379z"/>
<g>
	<path style="fill:#ABB0B7;" d="M291.084,355.843c-5.872-0.645-12.238-0.971-18.921-0.971c-5.224,0-10.83,0.184-16.665,0.547
		c-4.419,0.275-7.778,4.079-7.504,8.499c0.275,4.42,4.09,7.781,8.499,7.504c5.505-0.342,10.778-0.515,15.671-0.515
		c6.101,0,11.88,0.294,17.173,0.874c0.297,0.033,0.592,0.048,0.884,0.048c4.035,0,7.509-3.039,7.959-7.143
		C298.661,360.286,295.486,356.325,291.084,355.843z"/>
	<path style="fill:#ABB0B7;" d="M220.61,359.217c-2.831,0.422-5.751,0.882-8.678,1.367c-4.367,0.724-7.322,4.852-6.597,9.219
		c0.65,3.924,4.048,6.706,7.899,6.706c0.436,0,0.878-0.035,1.321-0.109c2.71-0.449,5.524-0.895,8.419-1.326
		c4.379-0.652,7.4-4.731,6.748-9.11C229.069,361.584,224.989,358.557,220.61,359.217z"/>
	<path style="fill:#ABB0B7;" d="M291.084,321.639c-5.872-0.645-12.238-0.971-18.921-0.971c-17.127,0-37.392,1.921-60.233,5.711
		c-4.367,0.725-7.321,4.853-6.596,9.22c0.651,3.924,4.049,6.705,7.899,6.705c0.436,0,0.878-0.035,1.321-0.109
		c21.975-3.646,41.357-5.495,57.609-5.495c6.101,0,11.88,0.294,17.173,0.874c4.405,0.49,8.361-2.694,8.843-7.094
		C298.661,326.081,295.486,322.121,291.084,321.639z"/>
	<path style="fill:#ABB0B7;" d="M291.084,287.435c-2.889-0.317-5.919-0.559-9.009-0.72c-4.404-0.236-8.193,3.166-8.423,7.589
		c-0.231,4.421,3.167,8.193,7.589,8.423c2.784,0.145,5.508,0.362,8.094,0.646c0.297,0.033,0.592,0.048,0.884,0.048
		c4.035,0,7.509-3.039,7.959-7.143C298.661,291.877,295.486,287.918,291.084,287.435z"/>
	<path style="fill:#ABB0B7;" d="M213.233,308.102c0.436,0,0.878-0.035,1.322-0.109c11.871-1.97,23.176-3.433,33.597-4.349
		c4.41-0.388,7.671-4.278,7.283-8.688c-0.388-4.41-4.276-7.662-8.688-7.283c-10.828,0.952-22.542,2.468-34.816,4.504
		c-4.367,0.725-7.321,4.853-6.596,9.22C205.986,305.319,209.383,308.102,213.233,308.102z"/>
	<path style="fill:#ABB0B7;" d="M358.605,371.83c0.292,0,0.587-0.016,0.884-0.048c5.293-0.58,11.07-0.874,17.173-0.874
		c4.892,0,10.165,0.174,15.67,0.515c4.408,0.292,8.223-3.085,8.499-7.504c0.276-4.419-3.085-8.224-7.504-8.499
		c-5.835-0.363-11.442-0.547-16.665-0.547c-6.684,0-13.049,0.327-18.921,0.971c-4.401,0.483-7.577,4.441-7.094,8.843
		C351.096,368.791,354.569,371.83,358.605,371.83z"/>
	<path style="fill:#ABB0B7;" d="M436.894,360.584c-2.929-0.485-5.849-0.946-8.679-1.367c-4.379-0.656-8.458,2.369-9.11,6.748
		c-0.652,4.379,2.369,8.458,6.748,9.11c2.895,0.432,5.709,0.876,8.419,1.326c0.444,0.074,0.885,0.109,1.321,0.109
		c3.851,0,7.248-2.782,7.899-6.706C444.215,365.436,441.261,361.308,436.894,360.584z"/>
	<path style="fill:#ABB0B7;" d="M359.489,337.576c5.293-0.58,11.07-0.874,17.173-0.874c16.25,0,35.631,1.848,57.609,5.495
		c0.445,0.074,0.886,0.109,1.322,0.109c3.85,0,7.248-2.782,7.899-6.705c0.725-4.367-2.229-8.495-6.596-9.22
		c-22.841-3.789-43.106-5.711-60.233-5.711c-6.684,0-13.049,0.327-18.921,0.971c-4.401,0.483-7.577,4.441-7.094,8.843
		C351.13,334.884,355.084,338.067,359.489,337.576z"/>
	<path style="fill:#ABB0B7;" d="M358.605,303.421c0.292,0,0.587-0.016,0.884-0.048c2.587-0.283,5.309-0.501,8.094-0.646
		c4.422-0.23,7.819-4.002,7.589-8.423c-0.231-4.422-3.994-7.814-8.423-7.589c-3.088,0.16-6.118,0.403-9.008,0.72
		c-4.401,0.483-7.577,4.441-7.094,8.843C351.096,300.382,354.569,303.421,358.605,303.421z"/>
	<path style="fill:#ABB0B7;" d="M436.895,292.175c-12.274-2.036-23.988-3.552-34.817-4.504c-4.401-0.388-8.301,2.873-8.688,7.283
		c-0.387,4.41,2.873,8.301,7.283,8.688c10.422,0.916,21.726,2.38,33.597,4.349c0.445,0.074,0.886,0.109,1.322,0.109
		c3.85,0,7.248-2.782,7.899-6.705C444.215,297.028,441.262,292.9,436.895,292.175z"/>
	<path style="fill:#ABB0B7;" d="M359.489,269.168c5.293-0.58,11.07-0.874,17.173-0.874c16.252,0,35.633,1.848,57.609,5.495
		c0.445,0.074,0.886,0.109,1.322,0.109c3.85,0,7.247-2.782,7.899-6.705c0.725-4.367-2.229-8.495-6.596-9.22
		c-22.839-3.789-43.104-5.711-60.233-5.711c-6.684,0-13.049,0.327-18.921,0.971c-4.401,0.483-7.577,4.441-7.094,8.843
		C351.13,266.475,355.084,269.659,359.489,269.168z"/>
</g>
<path style="fill:#FFC850;" d="M144.839,63.067c61.852,0,115.011,41.064,131.827,98.621l-6.607-5.959
	c-3.289-2.965-8.358-2.703-11.323,0.585c-2.965,3.288-2.703,8.358,0.585,11.323l24.582,22.168c1.491,1.345,3.41,2.063,5.369,2.063
	c0.694,0,1.394-0.09,2.081-0.275c2.626-0.705,4.715-2.695,5.549-5.282l10.353-32.129c1.359-4.214-0.958-8.731-5.171-10.089
	c-4.216-1.356-8.731,0.958-10.089,5.171l-1.217,3.78c-20.078-62.104-78.36-106.01-145.938-106.01
	c-64.513,0-122.527,40.765-144.364,101.439c-1.499,4.165,0.663,8.758,4.829,10.258c4.164,1.496,8.757-0.663,10.258-4.829
	C35.115,99.571,87.067,63.067,144.839,63.067z"/>
<path style="fill:#FFFFFF;" d="M194.089,277.016c1.755-3.009,3.381-6.175,4.902-9.451c3.052,0.959,6.087,2.001,9.106,3.124
	l14.168-2.398l-2.46-10.252c-4.943-2.023-9.933-3.837-14.964-5.45c4.386-13.544,7.01-28.535,7.682-44.156h26.57l6.666-8.344
	l-6.666-7.69h-26.57c-0.672-15.621-3.296-30.613-7.683-44.158c5.031-1.613,10.021-3.428,14.963-5.451l0.658-9.001l-12.366-3.645
	c-3.017,1.124-6.053,2.166-9.105,3.124c-1.521-3.275-3.146-6.441-4.901-9.45c-1.337-2.294-2.729-4.472-4.165-6.547
	c-15.707-9.849-31.133-17.534-44.662-17.42c-26.353,0.224-45.507,17.42-45.507,17.42c-1.437,2.075-2.828,4.253-4.165,6.547
	c-1.755,3.009-3.38,6.174-4.901,9.45c-3.052-0.96-6.087-2.001-9.105-3.125l-11.234,4.203l-0.474,8.443
	c4.943,2.023,9.932,3.839,14.963,5.451c-4.387,13.545-7.011,28.537-7.683,44.159H50.586l-5.823,8.329l5.823,7.705h26.57
	c0.672,15.622,3.296,30.614,7.683,44.159c-5.031,1.612-10.021,3.428-14.963,5.451l-1.197,9.522l12.904,3.124
	c3.017-1.124,6.053-2.166,9.105-3.124c1.521,3.275,3.146,6.44,4.901,9.449c1.337,2.294,2.729,4.472,4.165,6.547
	c0,0,19.609,17.103,45.951,17.331c13.549,0.118,29.126-7.969,44.218-17.33C191.359,281.489,192.751,279.31,194.089,277.016z
	 M136.822,293.826c-11.835-3.519-22.477-14.659-30.309-30.471c9.975-2.173,20.093-3.487,30.309-3.939V293.826z M136.822,243.372
	c-12.302,0.499-24.47,2.146-36.437,4.933c-3.946-11.944-6.491-25.506-7.189-39.868h43.627V243.372z M136.822,192.402H93.196
	c0.697-14.364,3.243-27.925,7.189-39.868c11.967,2.786,24.135,4.433,36.437,4.933V192.402z M136.822,141.422
	c-10.216-0.452-20.336-1.766-30.309-3.94c7.834-15.811,18.476-26.951,30.309-30.47V141.422z M152.856,107.012
	c11.834,3.519,22.477,14.659,30.309,30.47c-9.975,2.173-20.093,3.488-30.309,3.94V107.012z M152.856,157.466
	c12.302-0.499,24.47-2.146,36.437-4.932c3.946,11.944,6.491,25.506,7.188,39.868h-43.627v-34.936H152.856z M152.856,293.826v-34.41
	c10.216,0.452,20.334,1.768,30.308,3.942C175.331,279.168,164.689,290.307,152.856,293.826z M152.856,243.372v-34.936h43.627
	c-0.697,14.363-3.242,27.925-7.188,39.867C177.325,245.516,165.156,243.871,152.856,243.372z"/>
<path style="fill:#ABB0B7;" d="M229.501,271.546c15.939-2.151,30.294-3.253,42.662-3.253c6.101,0,11.88,0.294,17.173,0.874
	c4.405,0.49,8.361-2.694,8.843-7.094c0.483-4.402-2.694-8.361-7.094-8.843c-5.872-0.645-12.238-0.971-18.921-0.971
	c-9.235,0-19.476,0.58-30.546,1.704l-12.117,7.939L229.501,271.546L229.501,271.546z"/>
<path style="fill:#474D54;" d="M486.881,235.158h-9.086v-5.248c0-3.693-2.523-6.907-6.109-7.787
	c-2.103-0.515-51.989-12.619-94.904-12.619c-29.03,0-44.738,6.127-52.31,10.565c-7.571-4.438-23.281-10.565-52.31-10.565
	c-5.355,0-11.094,0.198-17.122,0.58c0.278-3.186,0.428-6.409,0.428-9.666c0-61.001-49.628-110.63-110.63-110.63
	s-110.63,49.628-110.63,110.63c0,58.306,45.34,106.216,102.613,110.338v129.092c0,13.851,11.268,25.119,25.119,25.119h324.941
	c13.851,0,25.119-11.268,25.119-25.119V260.275C512,246.426,500.732,235.158,486.881,235.158z M99.754,283.563
	c-6.565-3.573-12.66-7.905-18.171-12.871l-11.706-12.646c-10.77-13.979-17.724-31.038-19.29-49.61v-16.033
	c1.566-18.572,8.52-35.631,19.29-49.61l11.706-12.646c5.511-4.966,11.606-9.297,18.171-12.872c0,0,43.865-29.033,90.169,0
	c6.565,3.574,12.66,7.905,18.172,12.873l11.706,12.647c10.77,13.978,17.724,31.037,19.29,49.609v16.033
	c-1.566,18.571-8.518,35.629-19.287,49.606l-11.709,12.649c-5.512,4.967-11.608,9.299-18.173,12.874
	C145.489,311.127,99.754,283.563,99.754,283.563z M316.395,448.935H161.941c-5.01,0-9.086-4.076-9.086-9.086V310.757
	c6.256-0.45,12.368-1.426,18.295-2.877v118.706c0,2.462,1.132,4.788,3.069,6.307c1.937,1.519,4.463,2.066,6.857,1.479
	c0.496-0.122,50.089-12.159,91.088-12.159c26.534,0,39.378,5.533,44.232,8.382v18.339H316.395z M241.617,253.964
	c5.172-8.337,8.421-17.849,10.777-27.624c7.045-0.53,13.683-0.802,19.769-0.802c26.54,0,39.38,5.535,44.232,8.383v178.991
	c-9.014-3.481-23.086-6.733-44.232-6.733c-32.032,0-67.949,6.744-84.98,10.378v-113.94c16.493-6.859,31.639-17.069,42.317-31.071
	C232.738,267.301,238.804,258.5,241.617,253.964z M332.428,233.995c4.75-2.825,17.577-8.457,44.355-8.457
	c32.474,0,70.418,7.571,84.978,10.765v180.255c-17.031-3.634-52.947-10.378-84.978-10.378c-21.244,0-35.348,3.281-44.355,6.781
	V233.995z M495.967,439.849c0,5.01-4.076,9.086-9.086,9.086H332.427V430.67c4.752-2.825,17.581-8.457,44.355-8.457
	c40.947,0,90.591,12.037,91.088,12.159c2.391,0.587,4.919,0.041,6.856-1.48c1.937-1.519,3.068-3.845,3.068-6.306V251.191h9.086
	c5.01,0,9.086,4.076,9.086,9.086v179.573H495.967z"/>
<g>
</g>
<g>
</g>
<g>
</g>
<g>
</g>
<g>
</g>
<g>
</g>
<g>
</g>
<g>
</g>
<g>
</g>
<g>
</g>
<g>
</g>
<g>
</g>
<g>
</g>
<g>
</g>
<g>
</g>
</svg>
