<?xml version="1.0" encoding="iso-8859-1"?>
<!-- Generator: Adobe Illustrator 19.0.0, SVG Export Plug-In . SVG Version: 6.00 Build 0)  -->
<svg version="1.1" id="Capa_1" xmlns="http://www.w3.org/2000/svg" xmlns:xlink="http://www.w3.org/1999/xlink" x="0px" y="0px"
	 viewBox="0 0 512 512" style="enable-background:new 0 0 512 512;" xml:space="preserve">
<path style="fill:#FFFFFF;" d="M486.881,324.409H161.937c-9.446,0-17.102-7.656-17.102-17.102V50.772
	c0-9.446,7.656-17.102,17.102-17.102h324.944c9.446,0,17.102,7.656,17.102,17.102v256.534
	C503.983,316.753,496.326,324.409,486.881,324.409z"/>
<rect x="409.921" y="67.875" style="fill:#7DF5A5;" width="42.756" height="222.33"/>
<rect x="332.96" y="136.284" style="fill:#FFC850;" width="42.756" height="153.921"/>
<rect x="256" y="204.693" style="fill:#FF9052;" width="42.756" height="85.511"/>
<path style="fill:#FFFFFF;" d="M210.119,363.267L182.2,353.96c-6.984-2.328-11.694-8.863-11.694-16.225v-21.877H119.2v21.878
	c0,7.361-4.71,13.897-11.694,16.225l-27.918,9.307c-6.984,2.328-11.694,8.863-11.694,16.225v98.837h153.921v-98.838
	C221.813,372.13,217.103,365.595,210.119,363.267z"/>
<path style="fill:#ABFFDB;" d="M210.119,363.267L182.2,353.96c-1.677-0.559-3.205-1.386-4.586-2.384
	c-7.844,9.446-19.527,15.589-32.762,15.589c-13.235,0-24.918-6.143-32.762-15.589c-1.381,0.997-2.908,1.826-4.586,2.384
	l-27.918,9.307c-6.984,2.328-11.694,8.863-11.694,16.225v98.838h153.921v-98.838C221.813,372.13,217.103,365.595,210.119,363.267z"
	/>
<ellipse style="fill:#FFC850;" cx="144.856" cy="243.173" rx="68.409" ry="64.134"/>
<path style="fill:#FEA82F;" d="M161.382,181.003c-5.303-1.236-10.819-1.964-16.529-1.964c-37.781,0-68.409,28.714-68.409,64.134
	c0,30.414,22.607,55.826,52.91,62.418c0-11.005,0-27.379,0-51.729C129.354,216.819,147.19,193.639,161.382,181.003z"/>
<path style="fill:#FFFFFF;" d="M187.973,311.4l-27.823,13.912c-9.63,4.814-20.964,4.814-30.594,0L101.733,311.4
	c-5.115-2.557-8.612-7.501-9.322-13.175l-5.194-41.55c-0.612-4.898,3.011-9.269,7.935-9.591
	c15.938-1.043,49.178-5.044,69.669-20.388c3.456-2.588,8.28-2.132,11.233,1.018l23.773,25.354c1.739,1.855,2.562,4.387,2.247,6.909
	l-4.781,38.247C196.586,303.898,193.087,308.843,187.973,311.4z"/>
<path style="fill:#E4EAF8;" d="M199.829,253.068l-23.774-25.355c-2.974-3.171-7.815-3.569-11.298-0.968
	c-10.381,7.751-24.006,12.583-37.006,15.618v0.001c-12.713,2.967-24.825,4.214-32.68,4.726c-4.954,0.323-8.469,4.661-7.853,9.586
	l5.193,41.548c0.71,5.675,4.207,10.619,9.323,13.177l27.823,13.912c4.155,2.077,8.639,3.078,13.155,3.364l-10.446-20.892
	c-2.968-5.936-4.514-12.481-4.514-19.118v-13.239c0-4.003,2.779-7.391,6.673-8.321c10.865-2.595,22.152-6.299,32.494-11.632
	l14.197,15.142c4.765,5.083,11.825,9.027,18.599,8.257l2.362-18.895C202.392,257.455,201.568,254.923,199.829,253.068z"/>
<path style="fill:#ABFFDB;" d="M196.16,170.489H93.546l-6.545,26.18c-1.118,4.474,1.512,9.029,5.946,10.296l47.207,13.487
	c3.071,0.878,6.326,0.878,9.397,0l47.207-13.487c4.435-1.267,7.065-5.822,5.946-10.296L196.16,170.489z"/>
<path style="fill:#92E0C0;" d="M93.546,170.489L87,196.669c-1.118,4.474,1.512,9.029,5.946,10.296l47.208,13.488
	c1.536,0.438,3.117,0.658,4.699,0.658v-50.623H93.546z"/>
<path style="fill:#ABFFDB;" d="M138.103,137.222l-76.489,21.652c-3.006,0.851-3.006,5.276,0,6.127l76.489,21.652
	c4.419,1.251,9.08,1.251,13.5,0l76.489-21.652c3.006-0.851,3.006-5.276,0-6.127l-76.489-21.652
	C147.183,135.972,142.522,135.972,138.103,137.222z"/>
<path style="fill:#FFFFFF;" d="M187.591,478.33h-85.511c-4.722,0-8.551-3.829-8.551-8.551v-51.307c0-4.722,3.829-8.551,8.551-8.551
	h85.511c4.722,0,8.551,3.829,8.551,8.551v51.307C196.142,474.501,192.313,478.33,187.591,478.33z"/>
<path style="fill:#FFC850;" d="M144.878,436.109h-0.086c-4.427,0-7.974,3.589-7.974,8.017c0,4.427,3.632,8.017,8.059,8.017
	s8.017-3.589,8.017-8.017C152.895,439.698,149.305,436.109,144.878,436.109z"/>
<path style="fill:#ABB0B7;" d="M201.201,298.221H460.95c4.427,0,8.017-3.589,8.017-8.017c0-4.427-3.589-8.017-8.017-8.017H201.201
	c-4.427,0-8.017,3.589-8.017,8.017C193.184,294.632,196.774,298.221,201.201,298.221z"/>
<path style="fill:#474D54;" d="M486.881,25.653H161.937c-13.851,0-25.119,11.268-25.119,25.119v78.507
	c-0.311,0.078-0.624,0.142-0.934,0.23l-76.489,21.65c-4.838,1.369-8.088,5.7-8.088,10.778c0,5.077,3.251,9.408,8.087,10.778
	l25.379,7.184l-4.595,13.787c-1.134,3.403-1.098,7.094,0.021,10.47c-7.739,11.357-11.808,24.387-11.808,38.008
	c0,14.823,4.845,28.938,14.019,40.973l2.011,16.084c1.044,8.352,6.162,15.588,13.691,19.351l13.035,6.517v12.648
	c0,3.918-2.496,7.381-6.212,8.618l-27.92,9.307c-10.273,3.425-17.175,13.001-17.175,23.83v90.822H8.017
	c-4.427,0-8.017,3.589-8.017,8.017s3.589,8.017,8.017,8.017h273.637c4.427,0,8.017-3.589,8.017-8.017s-3.589-8.017-8.017-8.017
	h-51.859v-90.822c0-10.829-6.903-20.406-17.176-23.83l-27.918-9.307c-3.715-1.239-6.212-4.702-6.212-8.618v-5.31h308.394
	c13.851,0,25.119-11.268,25.119-25.119V50.772C512,36.922,500.732,25.653,486.881,25.653z M80.189,161.937l60.062-17.002l0,0
	c2.988-0.845,6.146-0.845,9.133,0l60.062,17.002l-60.061,17.002c-2.988,0.846-6.146,0.846-9.133,0L80.189,161.937z M197.433,215.1
	c5.104,8.223,7.776,17.463,7.776,27.062c0,1.583-0.081,3.156-0.228,4.719l-25.099-26.767L197.433,215.1z M152.834,211.167v-16.575
	c0.306-0.077,0.614-0.139,0.917-0.226l35.666-10.096l4.828,14.485c0.013,0.038,0.024,0.125,0.012,0.23
	c-0.154,0.151-0.295,0.311-0.434,0.471L152.834,211.167z M136.8,194.592v16.575l-40.967-11.704
	c-0.148-0.171-0.298-0.339-0.462-0.498c-0.006-0.094,0.005-0.173,0.017-0.208l4.828-14.485l35.668,10.097
	C136.189,194.452,136.496,194.515,136.8,194.592z M86.028,239.434c-0.519,0-1.03,0.058-1.532,0.155
	c0.434-8.676,3.059-17.005,7.706-24.49l50.413,14.404c0.032,0.01,0.066,0.012,0.098,0.021
	C117.485,239.249,86.44,239.434,86.028,239.434z M123.07,351.486c3.236-3.507,4.111-8.732,4.111-13.75v-4.676
	c5.572,2.56,11.602,3.857,17.637,3.857s12.065-1.297,17.637-3.857v4.676c0,5.017,0.874,10.242,4.11,13.749
	c2.772,3.005,9.313,8.092,12.915,10.024c0.047,0.026,0.099,0.04,0.151,0.057c6.978,2.332,27.918,9.307,27.918,9.307
	c3.717,1.239,6.212,4.702,6.212,8.62v90.821h-9.63h-16.541h-85.511c-0.295,0-16.546-0.178-16.541,0h-9.665v-90.822
	c0-3.918,2.496-7.381,6.212-8.62c0,0,20.936-6.99,27.92-9.307c0.056-0.018,0.111-0.034,0.162-0.062
	C113.763,359.568,120.301,354.488,123.07,351.486z M189.305,297.23c-0.378,3.022-2.229,5.637-4.953,7l0,0l-27.823,13.912
	c-7.335,3.666-16.09,3.665-23.424,0l-27.823-13.912c-2.724-1.362-4.575-3.978-4.953-7l-5.261-42.096
	c16.635-1.028,52.262-5.215,74.813-22.248l24.236,25.848L189.305,297.23z M207.93,282.188c8.708-11.832,13.313-25.63,13.313-40.026
	c0-13.621-4.068-26.651-11.808-38.007c1.119-3.376,1.155-7.066,0.021-10.47l-4.596-13.787l17.451-4.94v38.286
	c0,4.427,3.589,8.017,8.017,8.017s8.017-3.589,8.017-8.017v-51.307c0-0.305-0.02-0.605-0.053-0.901
	c-0.359-4.683-3.503-8.59-8.052-9.877l-76.489-21.652c-0.298-0.084-0.6-0.145-0.899-0.221V50.772c0-5.01,4.076-9.086,9.086-9.086
	H486.88c5.01,0,9.086,4.076,9.086,9.086v256.534c0,5.01-4.076,9.086-9.086,9.086H195.086c5.558-4.047,9.26-10.219,10.129-17.174
	l0.125-0.997L207.93,282.188z"/>
<g>
</g>
<g>
</g>
<g>
</g>
<g>
</g>
<g>
</g>
<g>
</g>
<g>
</g>
<g>
</g>
<g>
</g>
<g>
</g>
<g>
</g>
<g>
</g>
<g>
</g>
<g>
</g>
<g>
</g>
</svg>
