<?xml version="1.0" encoding="iso-8859-1"?>
<!-- Generator: Adobe Illustrator 19.0.0, SVG Export Plug-In . SVG Version: 6.00 Build 0)  -->
<svg version="1.1" id="Capa_1" xmlns="http://www.w3.org/2000/svg" xmlns:xlink="http://www.w3.org/1999/xlink" x="0px" y="0px"
	 viewBox="0 0 512 512" style="enable-background:new 0 0 512 512;" xml:space="preserve">
<path style="fill:#FFFFFF;" d="M409.921,196.142c-1.029,0-2.028,0.121-3.051,0.154c-19.196-40.492-60.325-68.563-108.114-68.563
	c-46.599,0-86.883,26.683-106.663,65.55c-10.44-8.866-23.937-14.243-38.707-14.243c-30.352,0-55.367,22.611-59.268,51.898
	c-3.004-0.356-6.042-0.591-9.141-0.591c-42.505,0-76.96,34.456-76.96,76.96c0,42.504,34.456,76.96,76.96,76.96h324.944
	c51.949,0,94.063-42.113,94.063-94.063S461.87,196.142,409.921,196.142z"/>
<path style="fill:#ABFFDB;" d="M84.977,341.511c0-42.505,34.456-76.96,76.96-76.96c3.099,0,6.138,0.235,9.141,0.591
	c3.901-29.287,28.916-51.898,59.268-51.898c7.394,0,14.47,1.347,21.002,3.805c10.611,3.992,22.392,1.06,29.268-7.953
	c21.851-28.646,56.285-47.16,95.099-47.16c2.327,0,4.624,0.122,6.917,0.253c-21.573-21.292-51.16-34.458-83.877-34.458
	c-46.599,0-86.883,26.683-106.663,65.55c-10.44-8.866-23.937-14.243-38.707-14.243c-30.352,0-55.367,22.611-59.268,51.898
	c-3.004-0.356-6.042-0.591-9.141-0.591c-44.2,0-79.696,37.26-76.795,82.082c2.648,40.906,38.44,71.838,79.431,71.838h10.342
	C89.766,372.037,84.977,357.336,84.977,341.511z"/>
<path style="fill:#FFC850;" d="M264.551,384.267H127.733v-145.37c0-4.722,3.829-8.551,8.551-8.551H256
	c4.722,0,8.551,3.829,8.551,8.551V384.267z"/>
<path style="fill:#FF8031;" d="M238.898,273.102l-17.102-8.551l-17.102,8.551v-42.756c0-4.722,3.829-8.551,8.551-8.551h17.102
	c4.722,0,8.551,3.829,8.551,8.551V273.102z"/>
<g>
	<path style="fill:#FFC850;" d="M298.756,161.937v188.125h136.818L298.756,161.937z M332.96,269.896l33.428,45.962H332.96V269.896z"
		/>
	<rect x="127.733" y="358.614" style="fill:#FFC850;" width="136.818" height="25.653"/>
</g>
<path style="fill:#474D54;" d="M411.757,188.141c-10.243-19.499-25.322-36.035-43.864-48.04
	c-20.595-13.336-44.503-20.385-69.137-20.385c-45.116,0-86.175,23.429-109.264,61.741c-10.769-6.777-23.291-10.435-36.105-10.435
	c-31.276,0-58.323,21.601-65.781,51.356c-0.893-0.033-1.768-0.049-2.628-0.049C38.121,222.33,0,260.451,0,307.307
	s38.121,84.977,84.977,84.977h324.944c56.287,0,102.079-45.792,102.079-102.079C512,234.533,467.197,189.128,411.757,188.141z
	 M119.716,376.251H84.977c-38.015,0-68.944-30.928-68.944-68.944s30.928-68.944,68.944-68.944c2.476,0,5.156,0.175,8.197,0.536
	c4.355,0.516,8.312-2.559,8.89-6.902c3.414-25.62,25.477-44.941,51.322-44.941c12.247,0,24.151,4.381,33.517,12.336
	c1.868,1.587,4.361,2.233,6.766,1.75c2.405-0.482,4.455-2.038,5.568-4.224c19.202-37.73,57.335-61.169,99.518-61.169
	c21.534,0,42.429,6.159,60.422,17.81c17.519,11.343,31.507,27.309,40.448,46.171c1.366,2.883,4.309,4.687,7.501,4.578
	c0.53-0.017,1.055-0.051,1.58-0.089c0.402-0.028,0.803-0.062,1.212-0.062c47.446,0,86.046,38.6,86.046,86.046
	s-38.599,86.047-86.045,86.047H272.568h-16.033H135.749H119.716z"/>
<g>
	<path style="fill:#FFFFFF;" d="M171.023,307.307c0,4.427,3.589,8.017,8.017,8.017h34.205c4.427,0,8.017-3.589,8.017-8.017
		c0-4.427-3.589-8.017-8.017-8.017H179.04C174.612,299.29,171.023,302.88,171.023,307.307z"/>
	<path style="fill:#FFFFFF;" d="M153.921,341.511c0,4.427,3.589,8.017,8.017,8.017h68.409c4.427,0,8.017-3.589,8.017-8.017
		c0-4.427-3.589-8.017-8.017-8.017h-68.409C157.51,333.495,153.921,337.084,153.921,341.511z"/>
	<path style="fill:#FFFFFF;" d="M307.295,221.261h-8.539c-4.427,0-8.017-3.589-8.017-8.017l0,0c0-4.427,3.589-8.017,8.017-8.017
		h8.539c4.427,0,8.017,3.589,8.017,8.017l0,0C315.312,217.672,311.723,221.261,307.295,221.261z"/>
	<path style="fill:#FFFFFF;" d="M307.295,255.466h-8.539c-4.427,0-8.017-3.589-8.017-8.017l0,0c0-4.427,3.589-8.017,8.017-8.017
		h8.539c4.427,0,8.017,3.589,8.017,8.017l0,0C315.312,251.876,311.723,255.466,307.295,255.466z"/>
	<path style="fill:#FFFFFF;" d="M307.295,289.67h-8.539c-4.427,0-8.017-3.589-8.017-8.017l0,0c0-4.427,3.589-8.017,8.017-8.017
		h8.539c4.427,0,8.017,3.589,8.017,8.017l0,0C315.312,286.081,311.723,289.67,307.295,289.67z"/>
	<path style="fill:#FFFFFF;" d="M307.295,323.875h-8.539c-4.427,0-8.017-3.589-8.017-8.017l0,0c0-4.427,3.589-8.017,8.017-8.017
		h8.539c4.427,0,8.017,3.589,8.017,8.017l0,0C315.312,320.285,311.723,323.875,307.295,323.875z"/>
</g>
<g>
</g>
<g>
</g>
<g>
</g>
<g>
</g>
<g>
</g>
<g>
</g>
<g>
</g>
<g>
</g>
<g>
</g>
<g>
</g>
<g>
</g>
<g>
</g>
<g>
</g>
<g>
</g>
<g>
</g>
</svg>
