<?xml version="1.0" encoding="iso-8859-1"?>
<!-- Generator: Adobe Illustrator 19.0.0, SVG Export Plug-In . SVG Version: 6.00 Build 0)  -->
<svg version="1.1" id="Capa_1" xmlns="http://www.w3.org/2000/svg" xmlns:xlink="http://www.w3.org/1999/xlink" x="0px" y="0px"
	 viewBox="0 0 512 512" style="enable-background:new 0 0 512 512;" xml:space="preserve">
<polygon style="fill:#E4EAF8;" points="315.494,408.453 195.777,408.453 187.226,485.413 324.045,485.413 "/>
<polygon style="fill:#C3C8D1;" points="319.457,444.125 315.492,408.453 195.776,408.453 191.814,444.125 "/>
<path style="fill:#FFFFFF;" d="M486.881,418.472H25.119c-9.446,0-17.102-7.656-17.102-17.102V93.528
	c0-9.446,7.656-17.102,17.102-17.102h461.762c9.446,0,17.102,7.656,17.102,17.102V401.37
	C503.983,410.814,496.326,418.472,486.881,418.472z"/>
<circle style="fill:#ABFFDB;" cx="256" cy="67.875" r="42.756"/>
<rect x="42.221" y="110.63" style="fill:#FFC850;" width="256.534" height="273.637"/>
<path style="fill:#FFFFFF;" d="M235.755,354.716l-27.918-9.307c-6.984-2.328-11.694-8.863-11.694-16.225v-21.877h-51.307v21.878
	c0,7.361-4.71,13.897-11.694,16.225l-27.918,9.307c-6.984,2.328-11.694,8.863-11.694,16.225v13.326h153.921V370.94
	C247.449,363.579,242.739,357.044,235.755,354.716z"/>
<path style="fill:#ABFFDB;" d="M235.755,354.716l-27.918-9.307c-1.677-0.559-3.205-1.386-4.586-2.384
	c-7.844,9.446-19.527,15.589-32.762,15.589c-13.236,0-24.918-6.143-32.762-15.589c-1.381,0.997-2.908,1.826-4.586,2.384
	l-27.918,9.307c-6.984,2.328-11.694,8.863-11.694,16.225v13.327h153.921V370.94C247.449,363.579,242.739,357.044,235.755,354.716z"
	/>
<g>
	<ellipse style="fill:#FF9052;" cx="170.489" cy="174.764" rx="34.205" ry="29.929"/>
	<ellipse style="fill:#FF9052;" cx="170.489" cy="234.622" rx="68.409" ry="64.134"/>
</g>
<path style="fill:#FF8031;" d="M187.018,172.452c-5.303-1.236-10.819-1.964-16.529-1.964c-37.781,0-68.409,28.714-68.409,64.134
	c0,30.414,22.607,55.826,52.91,62.418c0-11.005,0-27.379,0-51.729C154.99,208.267,172.826,185.087,187.018,172.452z"/>
<path style="fill:#FFFFFF;" d="M213.609,302.849l-27.823,13.912c-9.63,4.814-20.964,4.814-30.594,0l-27.823-13.912
	c-5.115-2.557-8.612-7.501-9.322-13.175l-5.194-41.55c-0.612-4.898,3.011-9.269,7.935-9.591
	c15.938-1.043,49.178-5.044,69.669-20.388c3.456-2.588,8.28-2.132,11.233,1.018l23.773,25.354c1.739,1.855,2.562,4.387,2.247,6.909
	l-4.781,38.247C222.222,295.347,218.723,300.292,213.609,302.849z"/>
<path style="fill:#E4EAF8;" d="M225.465,244.517l-23.774-25.355c-2.974-3.171-7.815-3.569-11.298-0.968
	c-10.381,7.751-24.006,12.583-37.006,15.618v0.001c-12.713,2.967-24.825,4.214-32.68,4.726c-4.954,0.323-8.469,4.661-7.853,9.586
	l5.193,41.548c0.71,5.675,4.207,10.619,9.323,13.177l27.823,13.912c4.155,2.077,8.639,3.078,13.155,3.364L157.9,299.232
	c-2.968-5.936-4.514-12.481-4.514-19.118v-13.239c0-4.003,2.779-7.391,6.673-8.321c10.865-2.595,22.152-6.299,32.494-11.632
	l14.197,15.142c4.765,5.083,11.825,9.027,18.599,8.257l2.362-18.895C228.027,248.904,227.204,246.371,225.465,244.517z"/>
<rect x="298.756" y="110.63" style="fill:#ABFFDB;" width="171.023" height="136.818"/>
<path style="fill:#FFFFFF;" d="M422.62,220.432l-14.773-3.693c-3.807-0.951-6.477-4.372-6.477-8.296v-6.122
	c5.09-2.962,8.551-8.416,8.551-14.73v-42.756h-34.205c-9.445,0-17.102,7.656-17.102,17.102v25.653c0,6.314,3.461,11.767,8.551,14.73
	v6.122c0,3.924-2.67,7.344-6.478,8.296l-14.773,3.693c-7.614,1.904-12.954,8.745-12.954,16.591v10.426h102.614v-10.426
	C435.574,229.175,430.234,222.334,422.62,220.432z"/>
<g>
	<path style="fill:#FFC850;" d="M409.921,144.835h-34.205c-9.446,0-17.102,7.656-17.102,17.102v17.102c0,0,25.653,0,51.307-8.551
		V144.835z"/>
	<path style="fill:#FFC850;" d="M422.62,220.432l-11.837-2.959c-6.242,7.807-15.738,12.874-26.516,12.874
		c-10.778,0-20.274-5.068-26.516-12.874l-11.837,2.959c-7.614,1.904-12.954,8.745-12.954,16.591v10.426h102.614v-10.426
		C435.574,229.175,430.234,222.334,422.62,220.432z"/>
</g>
<rect x="298.756" y="247.449" style="fill:#FF9052;" width="171.023" height="136.818"/>
<path style="fill:#FFFFFF;" d="M422.62,357.25l-14.773-3.693c-3.807-0.951-6.477-4.372-6.477-8.296v-6.122
	c5.09-2.962,8.551-8.416,8.551-14.73v-42.756h-34.205c-9.445,0-17.102,7.656-17.102,17.102v25.653c0,6.314,3.461,11.767,8.551,14.73
	v6.122c0,3.924-2.67,7.344-6.478,8.296l-14.773,3.693c-7.614,1.904-12.954,8.745-12.954,16.591v10.426h102.614v-10.426
	C435.574,365.993,430.234,359.152,422.62,357.25z"/>
<path style="fill:#FFC850;" d="M409.921,281.653h-34.205c-9.446,0-17.102,7.656-17.102,17.102v17.102c0,0,25.653,0,51.307-8.551
	V281.653z"/>
<path style="fill:#ABFFDB;" d="M422.62,357.25l-11.837-2.959c-6.242,7.807-15.738,12.874-26.516,12.874
	c-10.778,0-20.274-5.068-26.516-12.874l-11.837,2.959c-7.614,1.904-12.954,8.745-12.954,16.591v10.426h102.614v-10.426
	C435.574,365.993,430.234,359.152,422.62,357.25z"/>
<path style="fill:#474D54;" d="M486.881,68.409H306.759c0.002-0.179,0.014-0.355,0.014-0.534c0-27.995-22.777-50.772-50.772-50.772
	s-50.772,22.777-50.772,50.772c0,0.18,0.012,0.356,0.014,0.534H25.119C11.268,68.409,0,79.677,0,93.528V401.37
	c0,13.851,11.268,25.119,25.119,25.119h161.942l-6.547,52.376h-18.576c-4.427,0-8.017,3.589-8.017,8.017s3.589,8.017,8.017,8.017
	h188.125c4.427,0,8.017-3.589,8.017-8.017s-3.589-8.017-8.017-8.017h-18.576l-6.547-52.376h161.942
	c13.851,0,25.119-11.268,25.119-25.119V93.528C512,79.677,500.732,68.409,486.881,68.409z M256,33.136
	c19.155,0,34.739,15.584,34.739,34.739S275.155,102.614,256,102.614s-34.739-15.584-34.739-34.739S236.845,33.136,256,33.136z
	 M196.672,478.864l6.547-52.376h105.563l6.547,52.376H196.672z M292.977,102.614c4.854-5.164,8.639-11.337,11.005-18.171h182.898
	c5.01,0,9.086,4.076,9.086,9.086V401.37c0,5.01-4.076,9.086-9.086,9.086H25.119c-5.01,0-9.086-4.076-9.086-9.086V93.528
	c0-5.01,4.076-9.086,9.086-9.086h182.899c2.367,6.835,6.151,13.007,11.005,18.171c0,0,15.242,15.766,36.977,15.766
	C278.091,118.38,292.977,102.614,292.977,102.614z"/>
<path style="fill:#FFFFFF;" d="M256,84.443c9.136,0,16.568-7.432,16.568-16.568S265.136,51.307,256,51.307
	c-9.136,0-16.568,7.432-16.568,16.568S246.864,84.443,256,84.443z"/>
<g>
</g>
<g>
</g>
<g>
</g>
<g>
</g>
<g>
</g>
<g>
</g>
<g>
</g>
<g>
</g>
<g>
</g>
<g>
</g>
<g>
</g>
<g>
</g>
<g>
</g>
<g>
</g>
<g>
</g>
</svg>
