<?xml version="1.0" encoding="iso-8859-1"?>
<!-- Generator: Adobe Illustrator 19.0.0, SVG Export Plug-In . SVG Version: 6.00 Build 0)  -->
<svg version="1.1" id="Capa_1" xmlns="http://www.w3.org/2000/svg" xmlns:xlink="http://www.w3.org/1999/xlink" x="0px" y="0px"
	 viewBox="0 0 512 512" style="enable-background:new 0 0 512 512;" xml:space="preserve">
<path style="fill:#ABFFDB;" d="M59.324,435.574h393.353c9.446,0,17.102-7.656,17.102-17.102V144.835
	c0-9.446-7.656-17.102-17.102-17.102H59.324c-9.446,0-17.102,7.656-17.102,17.102v273.637
	C42.221,427.917,49.879,435.574,59.324,435.574z"/>
<rect x="102.079" y="401.37" style="fill:#92E0C0;" width="188.125" height="34.205"/>
<rect x="76.426" y="161.937" style="fill:#FFFFFF;" width="359.148" height="239.432"/>
<path style="fill:#E4EAF8;" d="M254.442,350.629c-2.313-0.376-4.666-0.566-6.993-0.566c-2.689,0-5.322,0.249-7.876,0.727
	c-5.507-4.446-12.106-7.535-19.336-8.711c-2.313-0.376-4.666-0.567-6.993-0.567c-2.673,0-5.31,0.244-7.884,0.72
	c-5.106-4.121-11.153-7.076-17.769-8.42v-52.159h-85.511V401.37h188.125v-7.637C290.205,372.477,274.83,353.947,254.442,350.629z"/>
<g>
	<circle style="fill:#FFC850;" cx="144.835" cy="281.653" r="42.756"/>
	<circle style="fill:#FFC850;" cx="324.409" cy="127.733" r="76.96"/>
</g>
<circle style="fill:#FFFFFF;" cx="324.409" cy="127.733" r="51.307"/>
<circle style="fill:#FFC850;" cx="256" cy="281.653" r="42.756"/>
<circle style="fill:#ABFFDB;" cx="367.165" cy="281.653" r="42.756"/>
<path style="fill:#FFFFFF;" d="M264.551,435.574v-41.841c0-8.519-5.821-16.415-14.23-17.783
	c-10.715-1.743-19.974,6.481-19.974,16.868v-7.636c0-8.519-5.821-16.415-14.23-17.783c-10.715-1.743-19.974,6.481-19.974,16.868
	v-7.636c0-8.519-5.821-16.415-14.23-17.783c-10.715-1.743-19.974,6.481-19.974,16.868v-93.148c0-8.519-5.821-16.415-14.23-17.783
	c-10.715-1.743-19.974,6.481-19.974,16.868v153.921c0,37.781,30.628,68.409,68.409,68.409l0,0
	C233.923,503.983,264.551,473.355,264.551,435.574z"/>
<circle style="fill:#FEA82F;" cx="256" cy="281.653" r="17.102"/>
<circle style="fill:#92E0C0;" cx="367.165" cy="281.653" r="17.102"/>
<path style="fill:#474D54;" d="M452.676,119.716h-43.679c-2.324-24.71-15.265-46.371-34.21-60.365l5.187-8.646l1.217,0.731
	c1.291,0.775,2.714,1.144,4.118,1.144c2.722,0,5.378-1.387,6.882-3.892c2.278-3.796,1.048-8.721-2.748-11l-16.727-10.041
	c-3.798-2.278-8.721-1.049-11,2.748c-2.278,3.796-1.048,8.721,2.748,11l1.763,1.058l-5.172,8.621
	c-6.42-3.082-13.289-5.366-20.474-6.756c5.466-4.61,8.947-11.505,8.947-19.198C349.528,11.268,338.26,0,324.409,0
	c-13.851,0-25.119,11.268-25.119,25.119c0,7.694,3.48,14.588,8.947,19.199c-36.584,7.08-64.869,37.688-68.416,75.398H59.324
	c-13.851,0-25.119,10.843-25.119,24.169v275.536c0,13.327,11.268,24.17,25.119,24.17h60.815
	c4.02,38.387,36.569,68.409,76.004,68.409s71.984-30.022,76.004-68.409h180.531c13.851,0,25.119-10.843,25.119-24.169V143.885
	C477.795,130.559,466.527,119.716,452.676,119.716z M324.409,16.033c5.01,0,9.086,4.076,9.086,9.086s-4.076,9.086-9.086,9.086
	s-9.086-4.076-9.086-9.086S319.399,16.033,324.409,16.033z M324.409,58.789c38.005,0,68.924,30.909,68.943,68.909
	c0,0.012-0.002,0.022-0.002,0.034s0.001,0.022,0.002,0.034c-0.018,38-30.938,68.909-68.943,68.909
	c-38.015,0-68.944-30.928-68.944-68.944S286.394,58.789,324.409,58.789z M256.534,435.574c0,33.3-27.092,60.392-60.392,60.392
	c-33.298,0-60.388-27.088-60.392-60.386c0-0.002,0-0.004,0-0.004v-0.013v-153.91c0-2.67,1.168-5.194,3.206-6.926
	c1.664-1.416,3.71-2.158,5.882-2.158c0.522,0,1.051,0.043,1.583,0.129c4.206,0.684,7.5,5.02,7.5,9.87v93.148
	c0,4.427,3.589,8.017,8.017,8.017s8.017-3.589,8.017-8.017c0-2.67,1.168-5.194,3.206-6.926c2.065-1.755,4.715-2.474,7.466-2.029
	c4.206,0.684,7.5,5.02,7.5,9.87v7.637c0,4.427,3.589,8.017,8.017,8.017c4.427,0,8.017-3.589,8.017-8.017
	c0-2.67,1.168-5.194,3.206-6.926c2.065-1.755,4.718-2.474,7.466-2.029c4.206,0.684,7.5,5.02,7.5,9.87v7.637
	c0,4.427,3.589,8.017,8.017,8.017s8.017-3.589,8.017-8.017c0-2.67,1.168-5.194,3.206-6.926c2.065-1.755,4.718-2.474,7.466-2.029
	c4.206,0.684,7.5,5.02,7.5,9.87v41.839H256.534z M169.954,305.626v-23.057c0-12.705-9.011-23.752-20.959-25.696
	c-7.358-1.195-14.805,0.858-20.427,5.641c-5.626,4.784-8.853,11.761-8.853,19.141v23.972v20.157v101.775H59.324
	c-5.01,0-9.086-3.65-9.086-8.135V143.885c0-4.486,4.076-8.135,9.086-8.135h180.498c0.575,6.12,1.806,12.05,3.615,17.727
	c0.094,0.297,0.206,0.588,0.333,0.872l6.751,15.178c0.126,0.284,0.267,0.563,0.424,0.832c14.736,25.299,42.137,42.352,73.464,42.352
	c31.199,0,58.504-16.914,73.283-42.041c0.279-0.475,0.528-0.967,0.751-1.471l6.458-14.522c0.223-0.503,0.422-1.018,0.588-1.543
	c1.75-5.572,2.943-11.387,3.507-17.383h43.679c5.01,0,9.086,3.65,9.086,8.135v275.536c0,4.486-4.076,8.135-9.086,8.135H272.568
	v-18.171l-0.017-16.033c-0.179-12.543-9.113-23.392-20.943-25.316c-5.994-0.974-12.046,0.208-17.125,3.265
	c-3.737-6.161-9.874-10.644-17.08-11.817c-5.994-0.974-12.046,0.208-17.125,3.265c-3.737-6.161-9.874-10.644-17.08-11.817
	c-4.531-0.736-9.094-0.241-13.246,1.365v-26.516v-20.157H169.954z"/>
<g>
	<path style="fill:#FEA82F;" d="M318.741,133.401c1.565,1.565,3.617,2.348,5.668,2.348c2.051,0,4.103-0.782,5.668-2.348
		c3.131-3.131,3.131-8.207,0-11.337L295.873,87.86c-3.131-3.131-8.207-3.131-11.337,0c-3.131,3.131-3.131,8.207,0,11.337
		L318.741,133.401z"/>
	<path style="fill:#FEA82F;" d="M324.409,92.994c4.427,0,8.017-3.589,8.017-8.017v-8.551c0-4.427-3.589-8.017-8.017-8.017
		c-4.427,0-8.017,3.589-8.017,8.017v8.551C316.392,89.404,319.982,92.994,324.409,92.994z"/>
	<path style="fill:#FEA82F;" d="M324.409,162.472c-4.427,0-8.017,3.589-8.017,8.017v8.551c0,4.427,3.589,8.017,8.017,8.017
		c4.427,0,8.017-3.589,8.017-8.017v-8.551C332.426,166.061,328.837,162.472,324.409,162.472z"/>
	<path style="fill:#FEA82F;" d="M367.165,135.749h8.551c4.427,0,8.017-3.589,8.017-8.017c0-4.427-3.589-8.017-8.017-8.017h-8.551
		c-4.427,0-8.017,3.589-8.017,8.017C359.148,132.16,362.738,135.749,367.165,135.749z"/>
	<path style="fill:#FEA82F;" d="M289.67,127.733c0-4.427-3.589-8.017-8.017-8.017h-8.551c-4.427,0-8.017,3.589-8.017,8.017
		c0,4.427,3.589,8.017,8.017,8.017h8.551C286.081,135.749,289.67,132.16,289.67,127.733z"/>
</g>
<g>
</g>
<g>
</g>
<g>
</g>
<g>
</g>
<g>
</g>
<g>
</g>
<g>
</g>
<g>
</g>
<g>
</g>
<g>
</g>
<g>
</g>
<g>
</g>
<g>
</g>
<g>
</g>
<g>
</g>
</svg>
