<?xml version="1.0" encoding="iso-8859-1"?>
<!-- Generator: Adobe Illustrator 19.0.0, SVG Export Plug-In . SVG Version: 6.00 Build 0)  -->
<svg version="1.1" id="Capa_1" xmlns="http://www.w3.org/2000/svg" xmlns:xlink="http://www.w3.org/1999/xlink" x="0px" y="0px"
	 viewBox="0 0 512 512" style="enable-background:new 0 0 512 512;" xml:space="preserve">
<path style="fill:#FFFFFF;" d="M325.917,376.837l-74.947-23.06c-7.175-2.207-12.072-8.839-12.072-16.345v-47.227H119.183v47.227
	c0,7.508-4.897,14.138-12.072,16.345l-74.948,23.06c-14.353,4.417-24.146,17.676-24.146,32.692v34.596
	c0,9.445,7.658,17.102,17.102,17.102H332.96c9.445,0,17.102-7.658,17.102-17.102v-34.596
	C350.063,394.514,340.269,381.254,325.917,376.837z"/>
<g>
	<path style="fill:#ABFFDB;" d="M325.917,376.837l-62.657-19.28c-15.381,31-47.268,52.362-84.22,52.362s-68.839-21.362-84.22-52.362
		l-62.656,19.28c-14.353,4.417-24.146,17.676-24.146,32.692v34.596c0,9.445,7.658,17.102,17.102,17.102H332.96
		c9.445,0,17.102-7.658,17.102-17.102v-34.596C350.063,394.514,340.269,381.254,325.917,376.837z"/>
	<path style="fill:#ABFFDB;" d="M102.079,196.142H76.426c-9.445,0-17.102,7.656-17.102,17.102V256
		c0,9.445,7.658,17.102,17.102,17.102h25.653V196.142z"/>
	<path style="fill:#ABFFDB;" d="M256,273.102h25.653c9.445,0,17.102-7.656,17.102-17.102v-42.756
		c0-9.445-7.658-17.102-17.102-17.102H256V273.102z"/>
</g>
<path style="fill:#FFFFFF;" d="M211.828,327.014l34.32-28.6c6.352-5.293,10.571-12.708,11.878-20.872l14.616-91.347
	c9.215-57.594-35.275-109.769-93.602-109.769l0,0c-58.326,0-102.817,52.174-93.602,109.769l14.616,91.347
	c1.306,8.164,5.526,15.579,11.878,20.872l34.32,28.6c4.61,3.842,10.422,5.946,16.422,5.946h32.732
	C201.406,332.96,207.218,330.857,211.828,327.014z"/>
<path style="fill:#E4EAF8;" d="M179.04,332.958h-5.905c-2.166,0-4.262-2.104-5.925-5.946l-12.381-28.599
	c-2.292-5.293-3.814-12.708-4.285-20.872l-5.273-91.347c-3.323-57.579,12.719-109.739,33.751-109.766
	c-58.32,0.011-102.799,52.179-93.585,109.767l14.615,91.348c1.306,8.164,5.526,15.579,11.878,20.872l34.32,28.599
	c4.61,3.842,10.422,5.946,16.422,5.946h16.367V332.958z"/>
<path style="fill:#FFC850;" d="M179.04,76.426c-58.327,0-102.817,52.174-93.602,109.768l4.328,27.05c10.514,0,20.862,0,20.859,0
	l7.684-54.432c0.554-3.306,2.973-6.05,6.212-6.908c35.593-9.425,73.443-9.425,109.036,0c3.241,0.858,5.659,3.602,6.213,6.908
	l7.684,54.432h20.859l4.328-27.05C281.857,128.601,237.367,76.426,179.04,76.426z"/>
<path style="fill:#FEA82F;" d="M85.438,186.194l4.328,27.05c10.514,0,20.862,0,20.859,0l7.684-54.432
	c0.554-3.306,2.973-6.05,6.212-6.908c7.061-1.871,14.228-3.262,21.431-4.39c3.767-40.31,16.93-71.066,33.069-71.087
	C120.703,76.438,76.224,128.606,85.438,186.194z"/>
<g>
	<circle style="fill:#FFFFFF;" cx="144.835" cy="221.795" r="17.102"/>
	<circle style="fill:#FFFFFF;" cx="213.244" cy="221.795" r="17.102"/>
</g>
<g>
	<path style="fill:#92E0C0;" d="M58.644,419.331L17.975,385.44c-6.217,6.262-9.958,14.833-9.958,24.09v34.596
		c0,9.445,7.658,17.102,17.102,17.102h42.756v-22.189C67.875,431.425,64.494,424.204,58.644,419.331z"/>
	<path style="fill:#92E0C0;" d="M299.436,419.331l40.669-33.891c6.217,6.262,9.958,14.833,9.958,24.09v34.596
		c0,9.445-7.658,17.102-17.102,17.102h-42.756v-22.189C290.205,431.425,293.587,424.204,299.436,419.331z"/>
	<path style="fill:#92E0C0;" d="M179.04,435.574c48.512,0,90.19-28.909,108.996-70.392l-24.776-7.623
		c-15.381,31-47.268,52.362-84.22,52.362s-68.839-21.362-84.22-52.362l-24.776,7.623C88.85,406.665,130.528,435.574,179.04,435.574z
		"/>
</g>
<path style="fill:#FFFFFF;" d="M478.33,213.244H358.614c-14.168,0-25.653,11.485-25.653,25.653v34.205l-42.756,42.756h42.756v8.551
	c0,14.168,11.485,25.653,25.653,25.653H478.33c14.168,0,25.653-11.485,25.653-25.653v-85.511
	C503.983,224.73,492.498,213.244,478.33,213.244z"/>
<path style="fill:#FFC850;" d="M435.574,247.449c-9.445,0-17.102,7.656-17.102,17.102c0-9.446-7.658-17.102-17.102-17.102h-34.205
	v59.858h34.205c9.445,0,17.102,7.656,17.102,17.102c0-9.446,7.658-17.102,17.102-17.102h34.205v-59.858H435.574z"/>
<path style="fill:#474D54;" d="M478.33,205.228H358.614c-18.566,0-33.67,15.105-33.67,33.67v30.885l-40.407,40.407
	c-2.293,2.293-2.979,5.741-1.738,8.736c1.241,2.996,4.164,4.949,7.406,4.949h34.739v0.534c0,18.566,15.105,33.67,33.67,33.67H478.33
	c18.566,0,33.67-15.105,33.67-33.67v-85.511C512,220.332,496.895,205.228,478.33,205.228z M495.967,324.409
	c0,9.725-7.912,17.637-17.637,17.637H358.614c-9.725,0-17.637-7.912-17.637-17.637v-8.551c0-4.427-3.589-8.017-8.017-8.017h-23.402
	l29.071-29.071c1.504-1.503,2.348-3.542,2.348-5.668v-34.205c0-9.725,7.912-17.637,17.637-17.637H478.33
	c9.725,0,17.637,7.912,17.637,17.637L495.967,324.409L495.967,324.409z"/>
<path style="fill:#979BA0;" d="M271.052,212.198c0.585-3.657-2.24-6.97-5.943-6.97l0,0h-26.882h-6.126
	c-4.607-5.237-11.351-8.551-18.856-8.551c-8.84,0-16.621,4.593-21.099,11.514c-3.957-1.914-8.428-2.963-13.107-2.963
	s-9.15,1.049-13.106,2.963c-4.478-6.921-12.259-11.514-21.099-11.514c-7.507,0-14.251,3.315-18.856,8.551h-6.126H94.04l0,0
	c-3.704,0-6.529,3.313-5.943,6.97l0.639,3.996c0.467,2.92,2.986,5.068,5.943,5.068h25.051c-0.004,0.179-0.014,0.355-0.014,0.534
	c0,13.851,11.268,25.119,25.119,25.119c12.803,0,23.393-9.631,24.922-22.028c2.239-2.261,5.63-3.626,9.282-3.626
	s7.043,1.365,9.282,3.626c1.53,12.397,12.119,22.028,24.922,22.028c13.851,0,25.119-11.268,25.119-25.119
	c0-0.18-0.01-0.356-0.014-0.534h26.119c2.958,0,5.476-2.148,5.943-5.068L271.052,212.198z M144.835,230.881
	c-5.01,0-9.086-4.076-9.086-9.086s4.076-9.086,9.086-9.086c5.007,0,9.079,4.07,9.086,9.075v0.013
	C153.919,226.806,149.844,230.881,144.835,230.881z M213.244,230.881c-5.009,0-9.083-4.075-9.086-9.083v-0.013
	c0.005-5.006,4.079-9.075,9.086-9.075c5.01,0,9.086,4.076,9.086,9.086S218.254,230.881,213.244,230.881z"/>
<path style="fill:#474D54;" d="M328.274,369.176l-74.947-23.06c-3.836-1.18-6.413-4.67-6.413-8.684v-29.219l4.365-3.639
	c7.237-6.032,12.224-14.293,14.218-23.454h16.155c13.851,0,25.119-11.268,25.119-25.119V170.49
	c0-70.434-57.3-127.734-127.733-127.734s-127.733,57.3-127.733,127.733V256c0,13.851,11.268,25.119,25.119,25.119h16.155
	c1.995,9.161,6.98,17.422,14.218,23.454l4.365,3.638v29.219c0,4.014-2.577,7.504-6.413,8.684l-74.947,23.06
	C11.978,374.661,0,390.878,0,409.529v34.596c0,13.851,11.268,25.119,25.119,25.119H332.96c13.851,0,25.119-11.268,25.119-25.119
	v-34.596C358.079,390.878,346.101,374.661,328.274,369.176z M290.739,256c0,5.01-4.076,9.086-9.086,9.086h-13.516l9.748-60.927
	h3.768c5.01,0,9.086,4.076,9.086,9.086V256z M67.34,170.489c0-61.592,50.108-111.699,111.699-111.699
	s111.699,50.108,111.699,111.699v19.344c-2.82-1.098-5.882-1.707-9.086-1.707h-1.202l0.106-0.664
	c4.764-29.773-3.724-60.008-23.289-82.95c-19.563-22.944-48.077-36.102-78.228-36.102s-58.665,13.159-78.229,36.101
	c-19.564,22.943-28.052,53.177-23.289,82.95l0.107,0.665h-1.203c-3.203,0-6.266,0.609-9.086,1.707V170.489z M76.426,265.086
	c-5.01,0-9.086-4.076-9.086-9.086v-42.756c0-5.01,4.076-9.086,9.086-9.086h3.768l9.748,60.927H76.426z M107.969,276.275
	l-8.802-55.014l-2.565-16.033l-3.248-20.299c-4.021-25.13,3.144-50.65,19.657-70.014c16.513-19.365,40.581-30.472,66.03-30.472
	s49.516,11.107,66.029,30.471c16.512,19.365,23.677,44.884,19.657,70.014l-3.247,20.3l-2.565,16.033l-8.802,55.014
	c-1,6.252-4.231,11.928-9.094,15.981l-34.32,28.6c-3.163,2.636-7.172,4.087-11.291,4.087h-32.732c-4.118,0-8.128-1.452-11.291-4.087
	l-34.32-28.6C112.2,288.203,108.969,282.527,107.969,276.275z M338.834,396.934c2.623,3.392,3.212,8.058,3.212,12.596v34.596
	c0,5.01-4.076,9.086-9.086,9.086h-34.739h-16.033H75.891H59.858H25.119c-5.01,0-9.086-4.076-9.086-9.086v-34.596
	c0-4.537,0.59-9.204,3.212-12.596c2.47-3.195,8.43-8.793,11.77-11.063c1.027-0.698,2.288-0.997,3.505-1.371
	c14.069-4.328,56.273-17.315,56.273-17.315l15.814-4.866l2.859-0.88c10.606-3.263,17.732-12.911,17.732-24.008v-15.858l13.92,11.601
	c6.039,5.032,13.695,7.804,21.555,7.804h32.732c7.861,0,15.516-2.772,21.555-7.804l13.92-11.601v15.858
	c0,11.097,7.126,20.745,17.732,24.008l2.86,0.88l15.814,4.866c0,0,42.204,12.986,56.272,17.314c1.216,0.374,2.478,0.672,3.505,1.371
	C330.404,388.142,336.364,393.74,338.834,396.934z"/>
<g>
</g>
<g>
</g>
<g>
</g>
<g>
</g>
<g>
</g>
<g>
</g>
<g>
</g>
<g>
</g>
<g>
</g>
<g>
</g>
<g>
</g>
<g>
</g>
<g>
</g>
<g>
</g>
<g>
</g>
</svg>
