<?xml version="1.0" encoding="iso-8859-1"?>
<!-- Generator: Adobe Illustrator 19.0.0, SVG Export Plug-In . SVG Version: 6.00 Build 0)  -->
<svg version="1.1" id="Capa_1" xmlns="http://www.w3.org/2000/svg" xmlns:xlink="http://www.w3.org/1999/xlink" x="0px" y="0px"
	 viewBox="0 0 512 512" style="enable-background:new 0 0 512 512;" xml:space="preserve">
<path style="fill:#FFFFFF;" d="M345.787,435.574H55.048c-9.446,0-17.102-7.656-17.102-17.102V33.67
	c0-9.446,7.656-17.102,17.102-17.102h290.739c9.446,0,17.102,7.656,17.102,17.102v384.802
	C362.889,427.917,355.232,435.574,345.787,435.574z"/>
<g>
	<path style="fill:#FFC850;" d="M157.662,110.63l-25.653-17.102l-25.653,17.102V16.568c0-4.722,3.829-8.551,8.551-8.551h34.205
		c4.722,0,8.551,3.829,8.551,8.551V110.63z"/>
	<polygon style="fill:#FFC850;" points="217.52,180.287 229.821,205.21 257.324,209.207 237.423,228.606 242.12,256 217.52,243.066 
		192.919,256 197.618,228.606 177.715,209.207 205.22,205.21 	"/>
	<polygon style="fill:#FFC850;" points="297.431,180.287 309.731,205.21 337.236,209.207 317.333,228.606 322.032,256 
		297.431,243.066 272.831,256 277.529,228.606 257.627,209.207 285.131,205.21 	"/>
	<polygon style="fill:#FFC850;" points="137.608,180.287 149.909,205.21 177.413,209.207 157.511,228.606 162.209,256 
		137.608,243.066 113.008,256 117.707,228.606 97.804,209.207 125.309,205.21 	"/>
</g>
<path style="fill:#ABFFDB;" d="M72.15,435.574H55.048c-9.446,0-17.102-7.656-17.102-17.102V33.67
	c0-9.446,7.656-17.102,17.102-17.102H72.15V435.574z"/>
<path style="fill:#FFC850;" d="M114.906,8.017c-4.722,0-8.551,3.829-8.551,8.551v94.063l25.653-17.102V8.017H114.906z"/>
<path style="fill:#ABFFDB;" d="M226.071,392.818c0,14.945,2.479,29.293,6.908,42.756h112.808c9.445,0,17.102-7.658,17.102-17.102
	V256C287.327,256,226.071,317.256,226.071,392.818z"/>
<g>
	<circle style="fill:#FFC850;" cx="362.889" cy="392.818" r="111.165"/>
	<path style="fill:#FFC850;" d="M390.681,485.456c-61.395,0-111.165-49.771-111.165-111.165c0-32.59,14.109-61.81,36.451-82.142
		c-37.913,17.704-64.243,56.065-64.243,100.669c0,61.394,49.77,111.165,111.165,111.165c28.806,0,54.967-11.05,74.715-29.024
		C423.332,481.625,407.472,485.456,390.681,485.456z"/>
</g>
<path style="fill:#FFFFFF;" d="M401.427,371.374h-37.318c10.951-9.291,17.2-21.637,19.546-30.219
	c1.666-6.097-0.917-12.882-6.658-15.528c-7.464-3.44-15.95,0.733-17.979,8.344c-0.668,2.514-7.206,24.576-30.334,24.576l0,0
	c-9.446,0-17.102,7.656-17.102,17.102v55.582c0,9.446,7.656,17.102,17.102,17.102h56.382c12.024,0,22.434-8.351,25.042-20.089
	l8.013-36.059C420.496,381.506,412.368,371.374,401.427,371.374z"/>
<path style="fill:#474D54;" d="M370.906,273.913V33.67c0-13.851-11.268-25.119-25.119-25.119H163.599
	C160.77,3.458,155.339,0,149.111,0h-34.205c-6.228,0-11.659,3.458-14.489,8.551H55.048c-13.851,0-25.119,11.268-25.119,25.119
	v384.802c0,13.851,11.268,25.119,25.119,25.119H255.08C274.18,483.985,315.321,512,362.889,512
	c65.717,0,119.182-53.465,119.182-119.182C482.071,329.796,432.899,278.05,370.906,273.913z M114.372,16.568
	c0-0.295,0.239-0.534,0.534-0.534h34.205c0.295,0,0.534,0.239,0.534,0.534v79.083l-13.19-8.794
	c-1.347-0.898-2.897-1.347-4.447-1.347c-1.55,0-3.1,0.449-4.447,1.347l-13.19,8.794V16.568z M248.877,427.557H80.167H64.134h-9.086
	c-5.01,0-9.086-4.076-9.086-9.086V33.67c0-5.01,4.076-9.086,9.086-9.086h9.086h16.033h18.171v86.046
	c0,2.957,1.627,5.674,4.234,7.069c2.607,1.395,5.77,1.242,8.229-0.399l21.207-14.138l21.207,14.138
	c1.341,0.895,2.892,1.347,4.448,1.347c1.297,0,2.597-0.314,3.783-0.948c2.606-1.395,4.234-4.112,4.234-7.069V24.585h180.109
	c5.01,0,9.086,4.076,9.086,9.086v240.242c-61.993,4.139-111.165,55.884-111.165,118.906
	C243.708,404.898,245.521,416.562,248.877,427.557z M362.889,495.967c-56.876,0-103.148-46.272-103.148-103.148
	S306.014,289.67,362.889,289.67s103.148,46.272,103.148,103.148S419.765,495.967,362.889,495.967z"/>
<g>
</g>
<g>
</g>
<g>
</g>
<g>
</g>
<g>
</g>
<g>
</g>
<g>
</g>
<g>
</g>
<g>
</g>
<g>
</g>
<g>
</g>
<g>
</g>
<g>
</g>
<g>
</g>
<g>
</g>
</svg>
