<?xml version="1.0" encoding="iso-8859-1"?>
<!-- Generator: Adobe Illustrator 19.0.0, SVG Export Plug-In . SVG Version: 6.00 Build 0)  -->
<svg version="1.1" id="Capa_1" xmlns="http://www.w3.org/2000/svg" xmlns:xlink="http://www.w3.org/1999/xlink" x="0px" y="0px"
	 viewBox="0 0 512 512" style="enable-background:new 0 0 512 512;" xml:space="preserve">
<path style="fill:#FFC850;" d="M401.37,503.983H110.63c-14.168,0-25.653-11.485-25.653-25.653V33.67
	c0-14.168,11.485-25.653,25.653-25.653H401.37c14.168,0,25.653,11.485,25.653,25.653v444.66
	C427.023,492.498,415.538,503.983,401.37,503.983z"/>
<g>
	<rect x="119.182" y="42.221" style="fill:#FFFFFF;" width="273.637" height="376.251"/>
	<circle style="fill:#FFFFFF;" cx="256" cy="461.228" r="17.102"/>
</g>
<path style="fill:#474D54;" d="M401.37,0H110.63C92.065,0,76.96,15.105,76.96,33.67v444.66c0,18.566,15.105,33.67,33.67,33.67
	H401.37c18.566,0,33.67-15.105,33.67-33.67V33.67C435.04,15.105,419.935,0,401.37,0z M419.006,478.33
	c0,9.725-7.912,17.637-17.637,17.637H110.63c-9.725,0-17.637-7.912-17.637-17.637V33.67c0-9.725,7.912-17.637,17.637-17.637H401.37
	c9.725,0,17.637,7.912,17.637,17.637V478.33z"/>
<g>
	<path style="fill:#ABFFDB;" d="M196.142,444.66c-9.136,0-16.568,7.432-16.568,16.568s7.432,16.568,16.568,16.568
		s16.568-7.432,16.568-16.568S205.278,444.66,196.142,444.66z"/>
	<path style="fill:#ABFFDB;" d="M315.858,444.66c-9.136,0-16.568,7.432-16.568,16.568s7.432,16.568,16.568,16.568
		c9.136,0,16.568-7.432,16.568-16.568S324.994,444.66,315.858,444.66z"/>
	<path style="fill:#ABFFDB;" d="M256,161.403h94.063c4.427,0,8.017-3.589,8.017-8.017c0-4.427-3.589-8.017-8.017-8.017H256
		c-4.427,0-8.017,3.589-8.017,8.017C247.983,157.814,251.573,161.403,256,161.403z"/>
	<path style="fill:#ABFFDB;" d="M350.063,111.165h-25.653c-4.427,0-8.017,3.589-8.017,8.017c0,4.427,3.589,8.017,8.017,8.017h25.653
		c4.427,0,8.017-3.589,8.017-8.017C358.079,114.754,354.49,111.165,350.063,111.165z"/>
	<path style="fill:#ABFFDB;" d="M256,92.994h94.063c4.427,0,8.017-3.589,8.017-8.017c0-4.427-3.589-8.017-8.017-8.017H256
		c-4.427,0-8.017,3.589-8.017,8.017C247.983,89.404,251.573,92.994,256,92.994z"/>
	<path style="fill:#ABFFDB;" d="M256,127.198h34.205c4.427,0,8.017-3.589,8.017-8.017c0-4.427-3.589-8.017-8.017-8.017H256
		c-4.427,0-8.017,3.589-8.017,8.017C247.983,123.609,251.573,127.198,256,127.198z"/>
</g>
<g>
	<path style="fill:#ABB0B7;" d="M161.937,195.608h85.511c4.427,0,8.017-3.589,8.017-8.017s-3.589-8.017-8.017-8.017h-85.511
		c-4.427,0-8.017,3.589-8.017,8.017S157.51,195.608,161.937,195.608z"/>
	<path style="fill:#ABB0B7;" d="M161.937,264.017h85.511c4.427,0,8.017-3.589,8.017-8.017c0-4.427-3.589-8.017-8.017-8.017h-85.511
		c-4.427,0-8.017,3.589-8.017,8.017C153.921,260.427,157.51,264.017,161.937,264.017z"/>
	<path style="fill:#ABB0B7;" d="M161.937,229.812h111.165c4.427,0,8.017-3.589,8.017-8.017s-3.589-8.017-8.017-8.017H161.937
		c-4.427,0-8.017,3.589-8.017,8.017S157.51,229.812,161.937,229.812z"/>
	<path style="fill:#ABB0B7;" d="M350.063,213.779h-42.756c-4.427,0-8.017,3.589-8.017,8.017s3.589,8.017,8.017,8.017h42.756
		c4.427,0,8.017-3.589,8.017-8.017S354.49,213.779,350.063,213.779z"/>
	<path style="fill:#ABB0B7;" d="M350.063,179.574h-68.409c-4.427,0-8.017,3.589-8.017,8.017s3.589,8.017,8.017,8.017h68.409
		c4.427,0,8.017-3.589,8.017-8.017S354.49,179.574,350.063,179.574z"/>
	<path style="fill:#ABB0B7;" d="M161.937,349.528h51.307c4.427,0,8.017-3.589,8.017-8.017c0-4.427-3.589-8.017-8.017-8.017h-51.307
		c-4.427,0-8.017,3.589-8.017,8.017C153.921,345.939,157.51,349.528,161.937,349.528z"/>
	<path style="fill:#ABB0B7;" d="M161.937,315.324h111.165c4.427,0,8.017-3.589,8.017-8.017c0-4.427-3.589-8.017-8.017-8.017H161.937
		c-4.427,0-8.017,3.589-8.017,8.017C153.921,311.734,157.51,315.324,161.937,315.324z"/>
	<path style="fill:#ABB0B7;" d="M350.063,333.495H247.449c-4.427,0-8.017,3.589-8.017,8.017c0,4.427,3.589,8.017,8.017,8.017
		h102.614c4.427,0,8.017-3.589,8.017-8.017C358.079,337.084,354.49,333.495,350.063,333.495z"/>
	<path style="fill:#ABB0B7;" d="M350.063,299.29h-42.756c-4.427,0-8.017,3.589-8.017,8.017c0,4.427,3.589,8.017,8.017,8.017h42.756
		c4.427,0,8.017-3.589,8.017-8.017C358.079,302.88,354.49,299.29,350.063,299.29z"/>
	<path style="fill:#ABB0B7;" d="M161.937,383.733H256c4.427,0,8.017-3.589,8.017-8.017c0-4.427-3.589-8.017-8.017-8.017h-94.063
		c-4.427,0-8.017,3.589-8.017,8.017C153.921,380.143,157.51,383.733,161.937,383.733z"/>
</g>
<path style="fill:#92E0C0;" d="M159.993,161.163c4.293,1.074,8.648-1.537,9.722-5.833l2.758-11.03h38.789l2.758,11.03
	c0.911,3.643,4.179,6.075,7.771,6.075c0.643,0,1.298-0.078,1.951-0.242c4.296-1.074,6.907-5.427,5.833-9.723l-15.483-61.932
	c-1.849-7.388-8.458-12.549-16.074-12.549h-12.301c-7.616,0-14.226,5.161-16.073,12.55l-15.483,61.932
	C153.086,155.737,155.698,160.089,159.993,161.163z M185.716,92.994h12.301c0.246,0,0.459,0.167,0.518,0.405l8.718,34.868h-30.772
	l8.717-34.868C185.257,93.16,185.47,92.994,185.716,92.994z"/>
<g>
</g>
<g>
</g>
<g>
</g>
<g>
</g>
<g>
</g>
<g>
</g>
<g>
</g>
<g>
</g>
<g>
</g>
<g>
</g>
<g>
</g>
<g>
</g>
<g>
</g>
<g>
</g>
<g>
</g>
</svg>
