<?xml version="1.0" encoding="iso-8859-1"?>
<!-- Generator: Adobe Illustrator 19.0.0, SVG Export Plug-In . SVG Version: 6.00 Build 0)  -->
<svg version="1.1" id="Capa_1" xmlns="http://www.w3.org/2000/svg" xmlns:xlink="http://www.w3.org/1999/xlink" x="0px" y="0px"
	 viewBox="0 0 512 512" style="enable-background:new 0 0 512 512;" xml:space="preserve">
<path style="fill:#FFFFFF;" d="M486.881,465.503H25.119c-9.446,0-17.102-7.656-17.102-17.102V63.599
	c0-9.446,7.656-17.102,17.102-17.102h461.762c9.446,0,17.102,7.656,17.102,17.102v384.802
	C503.983,457.846,496.326,465.503,486.881,465.503z"/>
<polygon style="fill:#92E0C0;" points="153.386,149.111 84.977,217.52 256,422.747 256,149.111 "/>
<g>
	<polygon style="fill:#ABFFDB;" points="153.386,149.111 84.977,217.52 179.04,217.52 	"/>
	<polygon style="fill:#ABFFDB;" points="179.04,217.52 256,422.747 256,217.52 	"/>
</g>
<polygon style="fill:#48C397;" points="179.04,217.52 256,149.111 256,217.52 "/>
<path style="fill:#FFFFFF;" d="M486.881,465.503H256V89.253h247.983v359.148C503.983,457.846,496.326,465.503,486.881,465.503z"/>
<g>
	<path style="fill:#FFC850;" d="M503.983,89.253H50.772V46.497h436.109c9.446,0,17.102,7.656,17.102,17.102V89.253z"/>
	<rect x="375.716" y="46.497" style="fill:#FFC850;" width="42.756" height="42.756"/>
</g>
<rect x="418.472" y="46.497" style="fill:#E4EAF8;" width="42.756" height="42.756"/>
<path style="fill:#ABFFDB;" d="M503.983,89.253h-42.756V46.497h25.653c9.446,0,17.102,7.656,17.102,17.102V89.253z"/>
<g>
	<path style="fill:#ABB0B7;" d="M298.756,165.678h17.102c4.427,0,8.017-3.589,8.017-8.017c0-4.427-3.589-8.017-8.017-8.017h-17.102
		c-4.427,0-8.017,3.589-8.017,8.017C290.739,162.089,294.328,165.678,298.756,165.678z"/>
	<path style="fill:#ABB0B7;" d="M298.756,234.088h17.102c4.427,0,8.017-3.589,8.017-8.017s-3.589-8.017-8.017-8.017h-17.102
		c-4.427,0-8.017,3.589-8.017,8.017S294.328,234.088,298.756,234.088z"/>
	<path style="fill:#ABB0B7;" d="M316.392,191.866c0,4.427,3.589,8.017,8.017,8.017h17.102c4.427,0,8.017-3.589,8.017-8.017
		s-3.589-8.017-8.017-8.017h-17.102C319.982,183.85,316.392,187.439,316.392,191.866z"/>
	<path style="fill:#ABB0B7;" d="M461.228,149.645H350.063c-4.427,0-8.017,3.589-8.017,8.017c0,4.427,3.589,8.017,8.017,8.017
		h111.165c4.427,0,8.017-3.589,8.017-8.017C469.244,153.234,465.655,149.645,461.228,149.645z"/>
	<path style="fill:#ABB0B7;" d="M461.228,218.054H350.063c-4.427,0-8.017,3.589-8.017,8.017s3.589,8.017,8.017,8.017h111.165
		c4.427,0,8.017-3.589,8.017-8.017S465.655,218.054,461.228,218.054z"/>
	<path style="fill:#ABB0B7;" d="M461.228,183.85h-85.511c-4.427,0-8.017,3.589-8.017,8.017s3.589,8.017,8.017,8.017h85.511
		c4.427,0,8.017-3.589,8.017-8.017S465.655,183.85,461.228,183.85z"/>
	<path style="fill:#ABB0B7;" d="M349.528,260.276c0-4.427-3.589-8.017-8.017-8.017h-17.102c-4.427,0-8.017,3.589-8.017,8.017
		c0,4.427,3.589,8.017,8.017,8.017h17.102C345.939,268.292,349.528,264.703,349.528,260.276z"/>
	<path style="fill:#ABB0B7;" d="M461.228,252.259h-85.511c-4.427,0-8.017,3.589-8.017,8.017c0,4.427,3.589,8.017,8.017,8.017h85.511
		c4.427,0,8.017-3.589,8.017-8.017C469.244,255.848,465.655,252.259,461.228,252.259z"/>
	<path style="fill:#ABB0B7;" d="M298.756,302.497h17.102c4.427,0,8.017-3.589,8.017-8.017c0-4.427-3.589-8.017-8.017-8.017h-17.102
		c-4.427,0-8.017,3.589-8.017,8.017C290.739,298.908,294.328,302.497,298.756,302.497z"/>
	<path style="fill:#ABB0B7;" d="M323.875,362.889c0-4.427-3.589-8.017-8.017-8.017h-17.102c-4.427,0-8.017,3.589-8.017,8.017
		c0,4.427,3.589,8.017,8.017,8.017h17.102C320.285,370.906,323.875,367.317,323.875,362.889z"/>
	<path style="fill:#ABB0B7;" d="M316.392,328.685c0,4.427,3.589,8.017,8.017,8.017h17.102c4.427,0,8.017-3.589,8.017-8.017
		c0-4.427-3.589-8.017-8.017-8.017h-17.102C319.982,320.668,316.392,324.257,316.392,328.685z"/>
	<path style="fill:#ABB0B7;" d="M461.228,286.463H350.063c-4.427,0-8.017,3.589-8.017,8.017c0,4.427,3.589,8.017,8.017,8.017
		h111.165c4.427,0,8.017-3.589,8.017-8.017C469.244,290.053,465.655,286.463,461.228,286.463z"/>
	<path style="fill:#ABB0B7;" d="M461.228,354.873H350.063c-4.427,0-8.017,3.589-8.017,8.017c0,4.427,3.589,8.017,8.017,8.017
		h111.165c4.427,0,8.017-3.589,8.017-8.017C469.244,358.462,465.655,354.873,461.228,354.873z"/>
	<path style="fill:#ABB0B7;" d="M461.228,320.668h-85.511c-4.427,0-8.017,3.589-8.017,8.017c0,4.427,3.589,8.017,8.017,8.017h85.511
		c4.427,0,8.017-3.589,8.017-8.017C469.244,324.257,465.655,320.668,461.228,320.668z"/>
	<path style="fill:#ABB0B7;" d="M341.511,389.077h-17.102c-4.427,0-8.017,3.589-8.017,8.017c0,4.427,3.589,8.017,8.017,8.017h17.102
		c4.427,0,8.017-3.589,8.017-8.017C349.528,392.667,345.939,389.077,341.511,389.077z"/>
	<path style="fill:#ABB0B7;" d="M461.228,389.077h-85.511c-4.427,0-8.017,3.589-8.017,8.017c0,4.427,3.589,8.017,8.017,8.017h85.511
		c4.427,0,8.017-3.589,8.017-8.017C469.244,392.667,465.655,389.077,461.228,389.077z"/>
</g>
<rect x="9.264" y="47.744" style="fill:#FEA82F;" width="41.508" height="41.508"/>
<path style="fill:#474D54;" d="M486.881,38.48H264.017v-9.086c0-4.427-3.589-8.017-8.017-8.017c-4.427,0-8.017,3.589-8.017,8.017
	v9.086H25.119C11.268,38.48,0,49.748,0,63.599v384.802c0,13.851,11.268,25.119,25.119,25.119h222.864v9.086
	c0,4.427,3.589,8.017,8.017,8.017c4.427,0,8.017-3.589,8.017-8.017v-9.086h222.864c13.851,0,25.119-11.268,25.119-25.119V63.599
	C512,49.748,500.732,38.48,486.881,38.48z M247.983,457.486H25.119c-5.01,0-9.086-4.076-9.086-9.086V63.599
	c0-5.01,4.076-9.086,9.086-9.086h222.864V457.486z M495.967,448.401c0,5.01-4.076,9.086-9.086,9.086H264.017V54.514h222.864
	c5.01,0,9.086,4.076,9.086,9.086V448.401z"/>
<g>
</g>
<g>
</g>
<g>
</g>
<g>
</g>
<g>
</g>
<g>
</g>
<g>
</g>
<g>
</g>
<g>
</g>
<g>
</g>
<g>
</g>
<g>
</g>
<g>
</g>
<g>
</g>
<g>
</g>
</svg>
