<?xml version="1.0" encoding="iso-8859-1"?>
<!-- Generator: Adobe Illustrator 19.0.0, SVG Export Plug-In . SVG Version: 6.00 Build 0)  -->
<svg version="1.1" id="Capa_1" xmlns="http://www.w3.org/2000/svg" xmlns:xlink="http://www.w3.org/1999/xlink" x="0px" y="0px"
	 viewBox="0 0 512 512" style="enable-background:new 0 0 512 512;" xml:space="preserve">
<path style="fill:#FFFFFF;" d="M478.33,298.756H238.898c-14.168,0-25.653-11.485-25.653-25.653V102.079
	c0-14.168,11.485-25.653,25.653-25.653H478.33c14.168,0,25.653,11.485,25.653,25.653v171.023
	C503.983,287.27,492.498,298.756,478.33,298.756z"/>
<circle style="fill:#FFC850;" cx="439.85" cy="140.56" r="47.031"/>
<path style="fill:#92E0C0;" d="M302.297,148.377c-6.678-6.678-17.507-6.678-24.186,0l-64.867,64.867v59.858
	c0,14.168,11.485,25.653,25.653,25.653h213.779L302.297,148.377z"/>
<path style="fill:#ABFFDB;" d="M478.33,298.756c11.595,0,21.277-7.742,24.455-18.302l-97.873-97.873
	c-6.678-6.678-17.507-6.678-24.186,0L264.551,298.756H478.33z"/>
<circle style="fill:#FFFFFF;" cx="439.85" cy="140.56" r="21.378"/>
<path style="fill:#E4EAF8;" d="M324.409,298.756h-85.511c-14.168,0-25.653-11.485-25.653-25.653v-85.511h59.858
	c28.336,0,51.307,22.971,51.307,51.307V298.756z"/>
<path style="fill:#48C397;" d="M273.102,187.591h-34.205l-25.653,25.653v59.858c0,14.168,11.485,25.653,25.653,25.653h85.511
	v-59.858C324.409,210.561,301.439,187.591,273.102,187.591z"/>
<polygon style="fill:#92E0C0;" points="264.551,298.756 324.409,298.756 324.409,238.898 "/>
<path style="fill:#FFC850;" d="M273.102,435.574H33.67c-14.168,0-25.653-11.485-25.653-25.653V238.898
	c0-14.168,11.485-25.653,25.653-25.653h239.432c14.168,0,25.653,11.485,25.653,25.653v171.023
	C298.756,424.089,287.27,435.574,273.102,435.574z"/>
<path style="fill:#474D54;" d="M478.33,68.409H238.898c-18.566,0-33.67,15.105-33.67,33.67v103.148H33.67
	c-18.566,0-33.67,15.105-33.67,33.67v171.023c0,18.566,15.105,33.67,33.67,33.67h239.432c18.566,0,33.67-15.105,33.67-33.67V306.772
	H478.33c18.566,0,33.67-15.105,33.67-33.67V102.079C512,83.514,496.895,68.409,478.33,68.409z M290.739,409.921
	c0,9.725-7.912,17.637-17.637,17.637H33.67c-9.725,0-17.637-7.912-17.637-17.637V238.898c0-9.725,7.912-17.637,17.637-17.637
	h239.432c9.725,0,17.637,7.912,17.637,17.637V409.921z M221.261,205.406V102.079c0-9.725,7.912-17.637,17.637-17.637H478.33
	c9.725,0,17.637,7.912,17.637,17.637V262.3l-2.639,20.036c-3.109,5.032-8.66,8.404-14.998,8.404H306.772v-22.868v-22.674v-6.3
	c0-18.566-15.105-33.67-33.67-33.67h-40.505L221.261,205.406z"/>
<g>
	<path style="fill:#FFFFFF;" d="M135.265,266.401c-3.001-10.845-12.957-18.418-24.209-18.418H93.103
		c-11.252,0-21.207,7.574-24.208,18.418L34.495,390.681c-1.181,4.267,1.32,8.684,5.588,9.865c4.266,1.181,8.684-1.32,9.865-5.588
		l7.84-28.326h88.583l7.84,28.326c0.982,3.552,4.207,5.88,7.722,5.88c0.709,0,1.428-0.094,2.143-0.293
		c4.267-1.181,6.769-5.598,5.588-9.865L135.265,266.401z M62.226,350.597l22.121-79.919c1.085-3.922,4.686-6.661,8.755-6.661h17.954
		c4.07,0,7.67,2.74,8.756,6.661l22.121,79.919H62.226z"/>
	<path style="fill:#FFFFFF;" d="M264.551,384.802c-0.295,0-0.534-0.239-0.534-0.534v-25.653v-8.551v-34.205
		c0-4.427-3.589-8.017-8.017-8.017c-4.427,0-8.017,3.589-8.017,8.017v1.123c-7.203-5.714-16.301-9.14-26.188-9.14
		c-23.281,0-42.221,18.941-42.221,42.221v8.551c0,23.28,18.941,42.221,42.221,42.221c10.482,0,20.076-3.848,27.466-10.195
		c2.502,5.98,8.411,10.195,15.289,10.195c4.427,0,8.017-3.589,8.017-8.017C272.568,388.391,268.979,384.802,264.551,384.802z
		 M221.795,384.802c-14.44,0-26.188-11.748-26.188-26.188v-8.551c0-14.44,11.748-26.188,26.188-26.188s26.188,11.748,26.188,26.188
		v8.551C247.983,373.053,236.235,384.802,221.795,384.802z"/>
</g>
<g>
</g>
<g>
</g>
<g>
</g>
<g>
</g>
<g>
</g>
<g>
</g>
<g>
</g>
<g>
</g>
<g>
</g>
<g>
</g>
<g>
</g>
<g>
</g>
<g>
</g>
<g>
</g>
<g>
</g>
</svg>
