<?xml version="1.0" encoding="iso-8859-1"?>
<!-- Generator: Adobe Illustrator 19.0.0, SVG Export Plug-In . SVG Version: 6.00 Build 0)  -->
<svg version="1.1" id="Capa_1" xmlns="http://www.w3.org/2000/svg" xmlns:xlink="http://www.w3.org/1999/xlink" x="0px" y="0px"
	 viewBox="0 0 512 512" style="enable-background:new 0 0 512 512;" xml:space="preserve">
<path style="fill:#FFC850;" d="M418.472,247.449H93.528c-9.446,0-17.102-7.656-17.102-17.102V25.119
	c0-9.446,7.656-17.102,17.102-17.102h324.944c9.446,0,17.102,7.656,17.102,17.102v205.228
	C435.574,239.792,427.917,247.449,418.472,247.449z"/>
<path style="fill:#FFFFFF;" d="M307.307,50.772H204.693c-9.445,0-17.102,7.656-17.102,17.102v68.409
	c0,9.445,7.658,17.102,17.102,17.102h102.614c9.445,0,17.102-7.658,17.102-17.102V67.875
	C324.409,58.429,316.752,50.772,307.307,50.772z M275.543,105.746l-30.17,18.103c-2.85,1.71-6.476-0.343-6.476-3.666V83.978
	c0-3.323,3.627-5.375,6.476-3.666l30.17,18.102C278.311,100.074,278.311,104.086,275.543,105.746z"/>
<rect x="187.591" y="247.449" style="fill:#E4EAF8;" width="136.818" height="34.205"/>
<path style="fill:#ABFFDB;" d="M478.33,315.858H33.67c-4.722,0-8.551-3.829-8.551-8.551v-17.102c0-4.722,3.829-8.551,8.551-8.551
	h444.66c4.722,0,8.551,3.829,8.551,8.551v17.102C486.881,312.029,483.052,315.858,478.33,315.858z"/>
<path style="fill:#474D54;" d="M478.33,273.637H332.427v-18.171h86.045c13.851,0,25.119-11.268,25.119-25.119V25.119
	C443.591,11.268,432.323,0,418.472,0H93.528C79.677,0,68.409,11.268,68.409,25.119v205.228c0,13.851,11.268,25.119,25.119,25.119
	h86.046v18.171H33.67c-9.136,0-16.568,7.432-16.568,16.568v17.102c0,9.136,7.432,16.568,16.568,16.568h0.534v172.092H33.67
	c-4.427,0-8.017,3.589-8.017,8.017c0,4.427,3.589,8.017,8.017,8.017h17.102c4.427,0,8.017-3.589,8.017-8.017
	c0-4.427-3.589-8.017-8.017-8.017h-0.534v-86.58h411.524v86.58h-0.534c-4.427,0-8.017,3.589-8.017,8.017
	c0,4.427,3.589,8.017,8.017,8.017h17.102c4.427,0,8.017-3.589,8.017-8.017c0-4.427-3.589-8.017-8.017-8.017h-0.534V323.875h0.534
	c9.136,0,16.568-7.432,16.568-16.568v-17.102C494.898,281.069,487.466,273.637,478.33,273.637z M84.443,230.347V25.119
	c0-5.01,4.076-9.086,9.086-9.086h324.944c5.01,0,9.086,4.076,9.086,9.086v205.228c0,5.01-4.076,9.086-9.086,9.086H93.528
	C88.518,239.432,84.443,235.356,84.443,230.347z M195.608,255.466h120.785v18.171H195.608V255.466z M461.762,393.353H50.238v-69.478
	h411.524V393.353z M478.864,307.307c0,0.294-0.239,0.534-0.534,0.534H33.67c-0.295,0-0.534-0.241-0.534-0.534v-17.102
	c0-0.294,0.239-0.534,0.534-0.534h444.66c0.295,0,0.534,0.241,0.534,0.534V307.307z"/>
<path style="fill:#FFFFFF;" d="M384.258,204.159H127.733c-4.427,0-8.017-3.589-8.017-8.017l0,0c0-4.427,3.589-8.017,8.017-8.017
	h256.525c4.427,0,8.017,3.589,8.017,8.017l0,0C392.274,200.569,388.685,204.159,384.258,204.159z"/>
<circle style="fill:#ABFFDB;" cx="179.04" cy="196.142" r="17.102"/>
<g>
</g>
<g>
</g>
<g>
</g>
<g>
</g>
<g>
</g>
<g>
</g>
<g>
</g>
<g>
</g>
<g>
</g>
<g>
</g>
<g>
</g>
<g>
</g>
<g>
</g>
<g>
</g>
<g>
</g>
</svg>
