<?xml version="1.0" encoding="iso-8859-1"?>
<!-- Generator: Adobe Illustrator 19.0.0, SVG Export Plug-In . SVG Version: 6.00 Build 0)  -->
<svg version="1.1" id="Capa_1" xmlns="http://www.w3.org/2000/svg" xmlns:xlink="http://www.w3.org/1999/xlink" x="0px" y="0px"
	 viewBox="0 0 512 512" style="enable-background:new 0 0 512 512;" xml:space="preserve">
<g>
	<path style="fill:#ABFFDB;" d="M76.426,140.56H33.67c-14.168,0-25.653,11.485-25.653,25.653v290.739
		c0,14.168,11.485,25.653,25.653,25.653h42.756V140.56z"/>
	<path style="fill:#ABFFDB;" d="M478.33,140.56h-42.756v342.046h42.756c14.168,0,25.653-11.485,25.653-25.653V166.213
		C503.983,152.045,492.498,140.56,478.33,140.56z"/>
</g>
<path style="fill:#FFC850;" d="M170.489,37.946H256c4.722,0,8.551,3.829,8.551,8.551v436.109H161.937V46.497
	C161.937,41.774,165.766,37.946,170.489,37.946z"/>
<path style="fill:#FFFFFF;" d="M327.358,31.647c-0.819-3.004-5.078-3.004-5.898,0l-22.704,83.25h51.307L327.358,31.647z"/>
<g>
	<rect x="298.756" y="114.906" style="fill:#FFC850;" width="51.307" height="367.699"/>
	<rect x="161.937" y="456.952" style="fill:#FFC850;" width="102.614" height="25.653"/>
	<rect x="298.756" y="456.952" style="fill:#FFC850;" width="51.307" height="25.653"/>
</g>
<path style="fill:#E4EAF8;" d="M350.063,114.896L350.063,114.896l-22.704-83.25c-0.409-1.502-1.679-2.252-2.949-2.252v85.502
	C324.409,114.896,350.063,114.896,350.063,114.896z"/>
<path style="fill:#474D54;" d="M478.33,132.543H358.079v-17.637c0-0.78-0.113-1.556-0.338-2.303l-25.653-85.511
	c-1.018-3.391-4.139-5.713-7.679-5.713c-3.54,0-6.661,2.323-7.679,5.713l-25.653,85.511c-0.224,0.747-0.338,1.523-0.338,2.303
	v17.637h-18.171V46.497c0-9.135-7.432-16.568-16.568-16.568h-85.511c-9.136,0-16.568,7.433-16.568,16.568v86.046H33.67
	c-18.566,0-33.67,15.105-33.67,33.67v290.739c0,18.566,15.105,33.67,33.67,33.67h444.66c18.566,0,33.67-15.105,33.67-33.67V166.213
	C512,147.647,496.895,132.543,478.33,132.543z M153.921,474.589H33.67c-9.725,0-17.637-7.912-17.637-17.637V166.213
	c0-9.725,7.912-17.637,17.637-17.637h120.251V474.589z M256.534,140.477c0,0.028-0.004,0.055-0.004,0.082
	c0,0.028,0.004,0.055,0.004,0.082v333.947h-86.58v-18.171h9.086c4.427,0,8.017-3.589,8.017-8.017c0-4.428-3.589-8.017-8.017-8.017
	h-9.086v-18.171h9.086c4.427,0,8.017-3.589,8.017-8.017c0-4.427-3.589-8.017-8.017-8.017h-9.086v-18.171h17.637
	c4.427,0,8.017-3.589,8.017-8.017c0-4.427-3.589-8.017-8.017-8.017h-17.637v-18.171h9.086c4.427,0,8.017-3.589,8.017-8.017
	c0-4.427-3.589-8.017-8.017-8.017h-9.086v-18.171h9.086c4.427,0,8.017-3.589,8.017-8.017c0-4.427-3.589-8.017-8.017-8.017h-9.086
	v-18.171h17.637c4.427,0,8.017-3.589,8.017-8.017c0-4.427-3.589-8.017-8.017-8.017h-17.637V251.19h9.086
	c4.427,0,8.017-3.589,8.017-8.017s-3.589-8.017-8.017-8.017h-9.086v-18.171h9.086c4.427,0,8.017-3.589,8.017-8.017
	s-3.589-8.017-8.017-8.017h-9.086v-18.171h17.637c4.427,0,8.017-3.589,8.017-8.017s-3.589-8.017-8.017-8.017h-17.637v-18.171h9.086
	c4.427,0,8.017-3.589,8.017-8.017c0-4.427-3.589-8.017-8.017-8.017h-9.086v-18.171h9.086c4.427,0,8.017-3.589,8.017-8.017
	c0-4.427-3.589-8.017-8.017-8.017h-9.086V80.167h17.637c4.427,0,8.017-3.588,8.017-8.017c0-4.427-3.589-8.017-8.017-8.017h-17.637
	V46.497c0-0.294,0.239-0.534,0.534-0.534H256c0.295,0,0.534,0.241,0.534,0.534V140.477z M290.739,474.589h-18.171V148.576h18.171
	V474.589z M342.046,474.589h-35.273V122.923l0.25-7.675l17.387-57.954l17.419,58.061l0.218,7.568V474.589z M495.967,456.952
	c0,9.725-7.912,17.637-17.637,17.637H358.079V148.576H478.33c9.725,0,17.637,7.912,17.637,17.637V456.952z"/>
<g>
	<path style="fill:#FFFFFF;" d="M469.779,295.015c-4.427,0-8.017,3.589-8.017,8.017v17.102c0,4.427,3.589,8.017,8.017,8.017
		s8.017-3.589,8.017-8.017v-17.102C477.795,298.604,474.206,295.015,469.779,295.015z"/>
	<path style="fill:#FFFFFF;" d="M42.221,286.463c-4.427,0-8.017,3.589-8.017,8.017v34.205c0,4.427,3.589,8.017,8.017,8.017
		s8.017-3.589,8.017-8.017V294.48C50.238,290.053,46.649,286.463,42.221,286.463z"/>
	<path style="fill:#FFFFFF;" d="M42.307,268.292c4.427,0,8.017-3.589,8.017-8.017c0-4.427-3.589-8.017-8.017-8.017h-0.086
		c-4.427,0-7.974,3.589-7.974,8.017C34.247,264.703,37.879,268.292,42.307,268.292z"/>
</g>
<g>
</g>
<g>
</g>
<g>
</g>
<g>
</g>
<g>
</g>
<g>
</g>
<g>
</g>
<g>
</g>
<g>
</g>
<g>
</g>
<g>
</g>
<g>
</g>
<g>
</g>
<g>
</g>
<g>
</g>
</svg>
