<?xml version="1.0" encoding="iso-8859-1"?>
<!-- Generator: Adobe Illustrator 19.0.0, SVG Export Plug-In . SVG Version: 6.00 Build 0)  -->
<svg version="1.1" id="Capa_1" xmlns="http://www.w3.org/2000/svg" xmlns:xlink="http://www.w3.org/1999/xlink" x="0px" y="0px"
	 viewBox="0 0 512 512" style="enable-background:new 0 0 512 512;" xml:space="preserve">
<path style="fill:#FFC850;" d="M213.244,452.676c0,9.446,7.656,17.102,17.102,17.102h51.307c9.446,0,17.102-7.656,17.102-17.102
	v-51.578c0-13.023,7.318-25.086,19.1-30.634c49.351-23.238,83.514-73.404,83.514-131.566c0-85.742-74.233-154.147-161.936-144.451
	c-65.874,7.282-119.451,60.021-127.638,125.787c-8.195,65.834,27.68,124.36,82.101,150.112c11.86,5.612,19.349,17.622,19.349,30.742
	v51.588H213.244z"/>
<circle style="fill:#E4EAF8;" cx="256" cy="238.898" r="119.716"/>
<circle style="fill:#FFFFFF;" cx="256" cy="238.898" r="94.063"/>
<path style="fill:#92E0C0;" d="M230.347,469.779v17.102c0,9.445,7.658,17.102,17.102,17.102h17.102
	c9.445,0,17.102-7.658,17.102-17.102v-17.102H230.347z"/>
<path style="fill:#ABFFDB;" d="M281.653,469.779h-51.307c-9.446,0-17.102-7.656-17.102-17.102v-34.205h85.511v34.205
	C298.756,462.121,291.099,469.779,281.653,469.779z"/>
<g>
	<path style="fill:#FFC850;" d="M259.199,290.205h-6.398c-4.584,0-8.353-3.615-8.544-8.195l-4.648-111.536
		c-0.388-9.32,7.062-17.087,16.39-17.087l0,0c9.328,0,16.778,7.768,16.39,17.087l-4.648,111.536
		C267.553,286.59,263.784,290.205,259.199,290.205z"/>
	<circle style="fill:#FFC850;" cx="256" cy="337.236" r="12.827"/>
</g>
<path style="fill:#474D54;" d="M358.292,124.6c-32.919-29.48-75.441-43.02-119.741-38.122
	C169.115,94.155,112.46,149.99,103.84,219.243c-8.252,66.291,26.561,129.926,86.626,158.349
	c8.967,4.243,14.761,13.466,14.761,23.496v51.588c0,11.047,7.172,20.445,17.102,23.799v10.406c0,13.851,11.268,25.119,25.119,25.119
	h17.102c13.851,0,25.119-11.268,25.119-25.119v-10.406c9.93-3.354,17.102-12.752,17.102-23.799v-51.578
	c0-10.056,5.691-19.235,14.497-23.382c25.963-12.226,47.948-31.445,63.578-55.581c16.054-24.791,24.539-53.574,24.539-83.237
	C409.386,195.339,390.763,153.678,358.292,124.6z M273.637,486.881c0,5.01-4.076,9.086-9.086,9.086h-17.102
	c-5.01,0-9.086-4.076-9.086-9.086v-9.086h35.273V486.881z M371.39,313.42c-14.003,21.624-33.695,38.841-56.95,49.791
	c-14.398,6.779-23.702,21.65-23.702,37.887v51.578c0,5.01-4.076,9.086-9.086,9.086h-51.307c-5.01,0-9.086-4.076-9.086-9.086v-51.588
	c0-16.197-9.396-31.109-23.937-37.99c-53.794-25.456-84.97-82.47-77.575-141.875c7.715-61.973,58.419-111.94,120.564-118.81
	c5.326-0.589,10.624-0.881,15.876-0.881c33.896,0,65.883,12.153,91.406,35.009c29.079,26.043,45.757,63.349,45.757,102.355
	C393.353,265.462,385.758,291.231,371.39,313.42z"/>
<g>
	<path style="fill:#FF9052;" d="M486.881,230.881h-51.307c-4.427,0-8.017,3.589-8.017,8.017s3.589,8.017,8.017,8.017h51.307
		c4.427,0,8.017-3.589,8.017-8.017S491.308,230.881,486.881,230.881z"/>
	<path style="fill:#FF9052;" d="M84.443,238.898c0-4.427-3.589-8.017-8.017-8.017H25.119c-4.427,0-8.017,3.589-8.017,8.017
		s3.589,8.017,8.017,8.017h51.307C80.853,246.914,84.443,243.325,84.443,238.898z"/>
	<path style="fill:#FF9052;" d="M256,67.34c4.427,0,8.017-3.588,8.017-8.017V8.017C264.017,3.589,260.427,0,256,0
		c-4.427,0-8.017,3.589-8.017,8.017v51.307C247.983,63.752,251.573,67.34,256,67.34z"/>
	<path style="fill:#FF9052;" d="M341.779,90.325c1.262,0.729,2.641,1.075,4.001,1.075c2.771,0,5.465-1.438,6.95-4.009l12.827-22.217
		c2.214-3.834,0.9-8.737-2.934-10.951c-3.834-2.215-8.737-0.9-10.951,2.934l-12.827,22.217
		C336.631,83.208,337.945,88.111,341.779,90.325z"/>
	<path style="fill:#FF9052;" d="M170.221,387.471c-3.835-2.215-8.738-0.9-10.951,2.934l-12.827,22.217
		c-2.214,3.834-0.9,8.737,2.934,10.951c1.262,0.729,2.641,1.075,4.001,1.075c2.771,0,5.465-1.439,6.95-4.009l12.827-22.217
		C175.369,394.587,174.055,389.684,170.221,387.471z"/>
	<path style="fill:#FF9052;" d="M159.27,87.391c1.485,2.572,4.179,4.009,6.95,4.009c1.36,0,2.739-0.346,4.001-1.075
		c3.834-2.214,5.148-7.117,2.934-10.951l-12.827-22.217c-2.214-3.834-7.117-5.148-10.951-2.934
		c-3.834,2.214-5.148,7.117-2.934,10.951L159.27,87.391z"/>
	<path style="fill:#FF9052;" d="M352.73,390.405c-2.214-3.835-7.117-5.147-10.951-2.934c-3.834,2.214-5.148,7.117-2.934,10.951
		l12.827,22.217c1.485,2.572,4.179,4.009,6.95,4.009c1.36,0,2.739-0.346,4.001-1.075c3.834-2.214,5.148-7.117,2.934-10.951
		L352.73,390.405z"/>
	<path style="fill:#FF9052;" d="M437.741,334.569l-22.217-12.827c-3.835-2.215-8.737-0.9-10.951,2.934
		c-2.214,3.834-0.9,8.737,2.934,10.951l22.217,12.827c1.262,0.729,2.641,1.075,4.001,1.075c2.771,0,5.465-1.438,6.95-4.009
		C442.889,341.686,441.575,336.783,437.741,334.569z"/>
	<path style="fill:#FF9052;" d="M74.259,143.226l22.217,12.827c1.262,0.729,2.641,1.075,4.001,1.075c2.771,0,5.465-1.438,6.95-4.009
		c2.214-3.834,0.9-8.737-2.934-10.951l-22.217-12.827c-3.834-2.215-8.737-0.9-10.951,2.934
		C69.111,136.11,70.425,141.013,74.259,143.226z"/>
	<path style="fill:#FF9052;" d="M411.523,157.128c1.36,0,2.738-0.346,4.001-1.075l22.217-12.827
		c3.834-2.214,5.148-7.117,2.934-10.951c-2.214-3.835-7.118-5.148-10.951-2.934l-22.217,12.827
		c-3.834,2.214-5.148,7.117-2.934,10.951C406.058,155.691,408.752,157.128,411.523,157.128z"/>
	<path style="fill:#FF9052;" d="M96.476,321.742l-22.217,12.827c-3.834,2.214-5.148,7.117-2.934,10.951
		c1.485,2.572,4.179,4.009,6.95,4.009c1.36,0,2.739-0.346,4.001-1.075l22.217-12.827c3.834-2.214,5.148-7.117,2.934-10.951
		C105.213,320.841,100.31,319.529,96.476,321.742z"/>
</g>
<g>
</g>
<g>
</g>
<g>
</g>
<g>
</g>
<g>
</g>
<g>
</g>
<g>
</g>
<g>
</g>
<g>
</g>
<g>
</g>
<g>
</g>
<g>
</g>
<g>
</g>
<g>
</g>
<g>
</g>
</svg>
