<?xml version="1.0" encoding="iso-8859-1"?>
<!-- Generator: Adobe Illustrator 19.0.0, SVG Export Plug-In . SVG Version: 6.00 Build 0)  -->
<svg version="1.1" id="Capa_1" xmlns="http://www.w3.org/2000/svg" xmlns:xlink="http://www.w3.org/1999/xlink" x="0px" y="0px"
	 viewBox="0 0 512 512" style="enable-background:new 0 0 512 512;" xml:space="preserve">
<path style="fill:#FFFFFF;" d="M102.079,25.119c0-9.446,7.656-17.102,17.102-17.102h256.534l85.511,85.511v393.353
	c0,9.446-7.656,17.102-17.102,17.102H119.182c-9.446,0-17.102-7.656-17.102-17.102V25.119z"/>
<path style="fill:#E4EAF8;" d="M298.756,469.779H102.079V298.756h196.676c23.613,0,42.756,19.143,42.756,42.756v85.512
	C341.511,450.636,322.369,469.779,298.756,469.779z"/>
<g>
	<path style="fill:#ABFFDB;" d="M375.716,8.017v68.409c0,9.445,7.658,17.102,17.102,17.102h68.409L375.716,8.017z"/>
	<path style="fill:#ABFFDB;" d="M298.756,444.125H67.875c-9.446,0-17.102-7.656-17.102-17.102v-85.512
		c0-9.446,7.656-17.102,17.102-17.102h230.881c9.446,0,17.102,7.656,17.102,17.102v85.512
		C315.858,436.468,308.202,444.125,298.756,444.125z"/>
</g>
<path style="fill:#92E0C0;" d="M221.366,246.411l-42.326,18.14l18.14-42.326l109.09-109.09c3.339-3.339,8.754-3.339,12.093,0
	l12.093,12.093c3.339,3.339,3.339,8.754,0,12.093L221.366,246.411z"/>
<rect x="241.029" y="121.974" transform="matrix(0.7071 0.7071 -0.7071 0.7071 206.7453 -128.206)" style="fill:#ABFFDB;" width="34.204" height="126.973"/>
<path style="fill:#474D54;" d="M466.896,87.86L381.384,2.348C379.882,0.844,377.842,0,375.716,0H119.182
	c-13.851,0-25.119,11.268-25.119,25.119v291.273H67.875c-13.851,0-25.119,11.268-25.119,25.119v85.512
	c0,13.851,11.268,25.119,25.119,25.119h26.188v34.739c0,13.851,11.268,25.119,25.119,25.119h324.944
	c13.851,0,25.119-11.268,25.119-25.119V93.528C469.244,91.402,468.4,89.363,466.896,87.86z M383.733,27.37l58.141,58.141h-49.056
	c-5.01,0-9.086-4.076-9.086-9.086V27.37z M58.789,427.023v-85.512c0-5.01,4.076-9.086,9.086-9.086h230.881
	c5.01,0,9.086,4.076,9.086,9.086v85.512c0,5.01-4.076,9.086-9.086,9.086H67.875C62.865,436.109,58.789,432.033,58.789,427.023z
	 M444.125,495.967H119.182c-5.01,0-9.086-4.076-9.086-9.086v-34.739h188.66c13.851,0,25.119-11.268,25.119-25.119v-85.512
	c0-13.851-11.268-25.119-25.119-25.119h-188.66V25.119c0-5.01,4.076-9.086,9.086-9.086h248.518v60.392
	c0,13.851,11.268,25.119,25.119,25.119h60.392v385.336C453.211,491.891,449.135,495.967,444.125,495.967z"/>
<g>
	<path style="fill:#48C397;" d="M156.806,416.08c1.499,1.248,3.318,1.858,5.127,1.858c2.296,0,4.577-0.982,6.163-2.885
		l15.219-18.263l15.219,18.263c1.585,1.903,3.866,2.885,6.163,2.885c1.81,0,3.63-0.609,5.127-1.858
		c3.401-2.835,3.861-7.889,1.026-11.291l-17.1-20.522l17.101-20.522c2.835-3.401,2.375-8.456-1.026-11.291
		s-8.456-2.375-11.291,1.026l-15.22,18.264l-15.219-18.263c-2.835-3.403-7.891-3.862-11.291-1.026
		c-3.401,2.835-3.861,7.89-1.026,11.291l17.101,20.522l-17.101,20.522C152.944,408.19,153.404,413.245,156.806,416.08z"/>
	<path style="fill:#48C397;" d="M102.614,366.63v43.29c0,4.427,3.589,8.017,8.017,8.017c4.427,0,8.017-3.589,8.017-8.017v-43.29
		h17.637c4.427,0,8.017-3.589,8.017-8.017c0-4.427-3.589-8.017-8.017-8.017H84.977c-4.427,0-8.017,3.589-8.017,8.017
		c0,4.427,3.589,8.017,8.017,8.017H102.614z"/>
	<path style="fill:#48C397;" d="M230.347,366.63h17.637v43.29c0,4.427,3.589,8.017,8.017,8.017c4.427,0,8.017-3.589,8.017-8.017
		v-43.29h17.637c4.427,0,8.017-3.589,8.017-8.017c0-4.427-3.589-8.017-8.017-8.017h-51.307c-4.427,0-8.017,3.589-8.017,8.017
		C222.33,363.041,225.919,366.63,230.347,366.63z"/>
</g>
<g>
	<path style="fill:#92E0C0;" d="M375.716,256.534H247.449c-4.427,0-8.017,3.589-8.017,8.017c0,4.427,3.589,8.017,8.017,8.017
		h128.267c4.427,0,8.017-3.589,8.017-8.017C383.733,260.124,380.143,256.534,375.716,256.534z"/>
	<path style="fill:#92E0C0;" d="M273.637,230.347c0,4.427,3.589,8.017,8.017,8.017h59.858c4.427,0,8.017-3.589,8.017-8.017
		s-3.589-8.017-8.017-8.017h-59.858C277.226,222.33,273.637,225.919,273.637,230.347z"/>
</g>
<g>
</g>
<g>
</g>
<g>
</g>
<g>
</g>
<g>
</g>
<g>
</g>
<g>
</g>
<g>
</g>
<g>
</g>
<g>
</g>
<g>
</g>
<g>
</g>
<g>
</g>
<g>
</g>
<g>
</g>
</svg>
