<?xml version="1.0" encoding="iso-8859-1"?>
<!-- Generator: Adobe Illustrator 19.0.0, SVG Export Plug-In . SVG Version: 6.00 Build 0)  -->
<svg version="1.1" id="Capa_1" xmlns="http://www.w3.org/2000/svg" xmlns:xlink="http://www.w3.org/1999/xlink" x="0px" y="0px"
	 viewBox="0 0 512 512" style="enable-background:new 0 0 512 512;" xml:space="preserve">
<path style="fill:#FFFFFF;" d="M367.165,371.441H25.119c-9.446,0-17.102-7.656-17.102-17.102V63.599
	c0-9.446,7.656-17.102,17.102-17.102h342.046c9.446,0,17.102,7.656,17.102,17.102v290.739
	C384.267,363.783,376.61,371.441,367.165,371.441z"/>
<path style="fill:#E4EAF8;" d="M170.489,371.441h196.676c9.446,0,17.102-7.656,17.102-17.102V243.173H213.244
	c-23.613,0-42.756,19.143-42.756,42.756V371.441z"/>
<rect x="42.221" y="114.906" style="fill:#92E0C0;" width="213.779" height="153.921"/>
<path style="fill:#D5DCED;" d="M367.165,46.497H42.221v34.205h342.046V63.599C384.267,54.154,376.61,46.497,367.165,46.497z"/>
<rect x="290.205" y="114.906" style="fill:#FFC850;" width="59.858" height="42.756"/>
<rect x="290.205" y="191.866" style="fill:#ABFFDB;" width="59.858" height="42.756"/>
<path style="fill:#FFC850;" d="M273.102,268.827l-51.307-51.307v51.307l0,0c-14.168,0-25.653,11.485-25.653,25.653v145.37
	c0,14.168,11.485,25.653,25.653,25.653H478.33c14.168,0,25.653-11.485,25.653-25.653V294.48c0-14.168-11.485-25.653-25.653-25.653
	H273.102z"/>
<path style="fill:#FFFFFF;" d="M187.591,268.827V249.85c0-7.848-5.341-14.689-12.954-16.591l-14.773-3.693
	c-3.806-0.951-6.477-4.372-6.477-8.296v-6.122c5.09-2.962,8.551-8.416,8.551-14.73v-51.307h-34.205
	c-9.446,0-17.102,7.656-17.102,17.102v34.205c0,6.314,3.461,11.767,8.551,14.73v6.122c0,3.924-2.67,7.344-6.477,8.296l-14.773,3.693
	c-7.614,1.904-12.954,8.744-12.954,16.591v18.977"/>
<path style="fill:#FF8031;" d="M161.937,149.111h-34.205c-9.446,0-17.102,7.656-17.102,17.102v17.102c0,0,25.653,0,51.307-8.551
	V149.111z"/>
<rect x="315.858" y="46.497" style="fill:#FFC850;" width="34.205" height="34.205"/>
<rect x="281.653" y="46.497" style="fill:#FEA82F;" width="34.205" height="34.205"/>
<path style="fill:#ABFFDB;" d="M384.267,80.701h-34.205V46.497h17.102c9.446,0,17.102,7.656,17.102,17.102V80.701z"/>
<path style="fill:#FFC850;" d="M174.636,233.258l-11.837-2.959c-6.242,7.807-15.738,12.874-26.516,12.874
	c-10.778,0-20.273-5.068-26.516-12.874l-11.837,2.959c-7.614,1.904-12.955,8.745-12.955,16.591v18.977h102.614V249.85
	C187.591,242.002,182.25,235.161,174.636,233.258z"/>
<path style="fill:#FFFFFF;" d="M290.167,353.143v51.307c0,4.722,3.829,8.551,8.551,8.551h102.614c4.722,0,8.551-3.829,8.551-8.551
	v-51.307H290.167z"/>
<path style="fill:#E4EAF8;" d="M290.167,388.543l46.638,12.437c4.311,1.149,8.759,1.733,13.22,1.733
	c4.462,0,8.909-0.583,13.22-1.733l46.638-12.437v-35.4H290.167V388.543z"/>
<g>
	<path style="fill:#ABB0B7;" d="M161.937,295.015H42.221c-4.427,0-8.017,3.589-8.017,8.017c0,4.427,3.589,8.017,8.017,8.017h119.716
		c4.427,0,8.017-3.589,8.017-8.017C169.954,298.604,166.365,295.015,161.937,295.015z"/>
	<path style="fill:#ABB0B7;" d="M59.324,329.219H42.221c-4.427,0-8.017,3.589-8.017,8.017c0,4.427,3.589,8.017,8.017,8.017h17.102
		c4.427,0,8.017-3.589,8.017-8.017C67.34,332.809,63.751,329.219,59.324,329.219z"/>
	<path style="fill:#ABB0B7;" d="M127.733,329.219H93.528c-4.427,0-8.017,3.589-8.017,8.017c0,4.427,3.589,8.017,8.017,8.017h34.205
		c4.427,0,8.017-3.589,8.017-8.017C135.749,332.809,132.16,329.219,127.733,329.219z"/>
</g>
<circle style="fill:#474D54;" cx="444.125" cy="431.299" r="8.017"/>
<g>
	<circle style="fill:#ABFFDB;" cx="444.125" cy="431.299" r="8.017"/>
	<path style="fill:#ABFFDB;" d="M436.109,343.648v61.996c0,4.427,3.589,8.017,8.017,8.017c4.427,0,8.017-3.589,8.017-8.017v-61.996
		H436.109z"/>
</g>
<path style="fill:#FFFFFF;" d="M350.063,311.582l-108.798,31.086c-3.137,0.897-3.137,5.342,0,6.238l108.798,31.084l108.798-31.084
	c3.137-0.897,3.137-5.342,0-6.238L350.063,311.582z"/>
<rect x="10.867" y="46.497" style="fill:#C3C8D1;" width="31.354" height="34.557"/>
<path style="fill:#474D54;" d="M478.33,260.81h-86.046V63.599c0-13.851-11.268-25.119-25.119-25.119H25.119
	C11.268,38.48,0,49.748,0,63.599v290.739c0,13.851,11.268,25.119,25.119,25.119h163.006v60.392c0,18.566,15.105,33.67,33.67,33.67
	H478.33c18.566,0,33.67-15.105,33.67-33.67V294.48C512,275.915,496.895,260.81,478.33,260.81z M193.127,276.843
	c-3.463,4.939-5.001,11.174-5.001,17.637v68.944H25.119c-5.01,0-9.086-4.076-9.086-9.086V63.599c0-5.01,4.076-9.086,9.086-9.086
	h342.046c5.01,0,9.086,4.076,9.086,9.086V260.81h-99.828l-48.959-48.959c-2.293-2.294-5.742-2.978-8.736-1.738
	c-2.996,1.241-4.949,4.164-4.949,7.406v46.096C213.779,263.616,198.748,268.827,193.127,276.843z M495.967,439.85
	c0,9.725-7.912,17.637-17.637,17.637H221.795c-9.725,0-17.637-7.912-17.637-17.637V294.48c0-9.725,7.912-17.637,17.637-17.637
	c4.427,0,8.017-3.589,8.017-8.017v-31.953l20.515,20.515c0.002,0.003,0.005,0.005,0.009,0.009l17.098,17.098
	c1.503,1.504,3.542,2.348,5.668,2.348H478.33c9.725,0,17.637,7.912,17.637,17.637V439.85z"/>
<g>
</g>
<g>
</g>
<g>
</g>
<g>
</g>
<g>
</g>
<g>
</g>
<g>
</g>
<g>
</g>
<g>
</g>
<g>
</g>
<g>
</g>
<g>
</g>
<g>
</g>
<g>
</g>
<g>
</g>
</svg>
