<?xml version="1.0" encoding="iso-8859-1"?>
<!-- Generator: Adobe Illustrator 19.0.0, SVG Export Plug-In . SVG Version: 6.00 Build 0)  -->
<svg version="1.1" id="Capa_1" xmlns="http://www.w3.org/2000/svg" xmlns:xlink="http://www.w3.org/1999/xlink" x="0px" y="0px"
	 viewBox="0 0 512 512" style="enable-background:new 0 0 512 512;" xml:space="preserve">
<path style="fill:#ABFFDB;" d="M435.574,25.119v461.762c0,9.446-7.656,17.102-17.102,17.102H93.528
	c-9.446,0-17.102-7.656-17.102-17.102V25.119c0-9.446,7.656-17.102,17.102-17.102h324.944
	C427.918,8.017,435.574,15.673,435.574,25.119z"/>
<rect x="110.63" y="42.221" style="fill:#FFC850;" width="290.739" height="393.353"/>
<g>
	<path style="fill:#FFFFFF;" d="M367.165,409.921h-222.33c-4.722,0-8.551-3.829-8.551-8.551V76.426c0-4.722,3.829-8.551,8.551-8.551
		h222.33c4.722,0,8.551,3.829,8.551,8.551V401.37C375.716,406.092,371.887,409.921,367.165,409.921z"/>
	<circle style="fill:#FFFFFF;" cx="256" cy="469.779" r="12.827"/>
</g>
<polygon style="fill:#FEA82F;" points="315.858,345.074 315.858,401.37 332.96,392.818 350.063,401.37 350.063,345.074 "/>
<circle style="fill:#FFC850;" cx="332.96" cy="324.409" r="25.653"/>
<path style="fill:#474D54;" d="M418.472,0H93.528C79.677,0,68.409,11.268,68.409,25.119v461.762
	c0,13.851,11.268,25.119,25.119,25.119h324.944c13.851,0,25.119-11.268,25.119-25.119V25.119C443.591,11.268,432.323,0,418.472,0z
	 M427.557,486.881c0,5.01-4.076,9.086-9.086,9.086H93.528c-5.01,0-9.086-4.076-9.086-9.086V25.119c0-5.01,4.076-9.086,9.086-9.086
	h324.944c5.01,0,9.086,4.076,9.086,9.086V486.881z"/>
<g>
	<path style="fill:#ABB0B7;" d="M213.244,101.545h0.534v43.29c0,23.28,18.941,42.221,42.221,42.221
		c23.281,0,42.221-18.941,42.221-42.221v-43.29h0.534c4.427,0,8.017-3.589,8.017-8.017c0-4.427-3.589-8.017-8.017-8.017h-17.102
		c-4.427,0-8.017,3.589-8.017,8.017c0,4.427,3.589,8.017,8.017,8.017h0.534v43.29c0,14.44-11.748,26.188-26.188,26.188
		c-14.44,0-26.188-11.748-26.188-26.188v-43.29h0.534c4.427,0,8.017-3.589,8.017-8.017c0-4.427-3.589-8.017-8.017-8.017h-17.102
		c-4.427,0-8.017,3.589-8.017,8.017C205.228,97.956,208.817,101.545,213.244,101.545z"/>
	<path style="fill:#ABB0B7;" d="M170.489,144.301h17.102c4.427,0,8.017-3.589,8.017-8.017c0-4.427-3.589-8.017-8.017-8.017h-17.102
		c-4.427,0-8.017,3.589-8.017,8.017C162.472,140.711,166.061,144.301,170.489,144.301z"/>
	<path style="fill:#ABB0B7;" d="M324.409,144.301h17.102c4.427,0,8.017-3.589,8.017-8.017c0-4.427-3.589-8.017-8.017-8.017h-17.102
		c-4.427,0-8.017,3.589-8.017,8.017C316.392,140.711,319.982,144.301,324.409,144.301z"/>
	<path style="fill:#ABB0B7;" d="M170.489,229.812h171.023c4.427,0,8.017-3.589,8.017-8.017s-3.589-8.017-8.017-8.017H170.489
		c-4.427,0-8.017,3.589-8.017,8.017S166.061,229.812,170.489,229.812z"/>
	<path style="fill:#ABB0B7;" d="M170.489,264.017h171.023c4.427,0,8.017-3.589,8.017-8.017c0-4.427-3.589-8.017-8.017-8.017H170.489
		c-4.427,0-8.017,3.589-8.017,8.017C162.472,260.427,166.061,264.017,170.489,264.017z"/>
	<path style="fill:#ABB0B7;" d="M273.102,307.841h-85.511c-4.427,0-8.017,3.589-8.017,8.017c0,4.427,3.589,8.017,8.017,8.017h85.511
		c4.427,0,8.017-3.589,8.017-8.017C281.119,311.431,277.53,307.841,273.102,307.841z"/>
	<path style="fill:#ABB0B7;" d="M273.102,342.046h-51.307c-4.427,0-8.017,3.589-8.017,8.017c0,4.427,3.589,8.017,8.017,8.017h51.307
		c4.427,0,8.017-3.589,8.017-8.017C281.119,345.635,277.53,342.046,273.102,342.046z"/>
</g>
<g>
</g>
<g>
</g>
<g>
</g>
<g>
</g>
<g>
</g>
<g>
</g>
<g>
</g>
<g>
</g>
<g>
</g>
<g>
</g>
<g>
</g>
<g>
</g>
<g>
</g>
<g>
</g>
<g>
</g>
</svg>
