<?xml version="1.0" encoding="iso-8859-1"?>
<!-- Generator: Adobe Illustrator 19.0.0, SVG Export Plug-In . SVG Version: 6.00 Build 0)  -->
<svg version="1.1" id="Capa_1" xmlns="http://www.w3.org/2000/svg" xmlns:xlink="http://www.w3.org/1999/xlink" x="0px" y="0px"
	 viewBox="0 0 512 512" style="enable-background:new 0 0 512 512;" xml:space="preserve">
<path style="fill:#ABFFDB;" d="M375.716,503.983H136.284c-18.891,0-34.205-15.314-34.205-34.205V42.221
	c0-18.891,15.314-34.205,34.205-34.205h239.432c18.891,0,34.205,15.314,34.205,34.205v427.557
	C409.921,488.669,394.607,503.983,375.716,503.983z"/>
<rect x="136.284" y="42.221" style="fill:#FFFFFF;" width="239.432" height="376.251"/>
<g>
	<path style="fill:#FFC850;" d="M273.102,478.33h-34.205c-4.722,0-8.551-3.829-8.551-8.551v-17.102c0-4.722,3.829-8.551,8.551-8.551
		h34.205c4.722,0,8.551,3.829,8.551,8.551v17.102C281.653,474.501,277.825,478.33,273.102,478.33z"/>
	<path style="fill:#FFC850;" d="M196.142,350.063H179.04c-4.722,0-8.551,3.829-8.551,8.551v17.102c0,4.722,3.829,8.551,8.551,8.551
		h17.102c4.722,0,8.551-3.829,8.551-8.551v-17.102C204.693,353.891,200.864,350.063,196.142,350.063z"/>
</g>
<g>
	<path style="fill:#ABFFDB;" d="M196.142,281.653H179.04c-4.722,0-8.551,3.829-8.551,8.551v17.102c0,4.722,3.829,8.551,8.551,8.551
		h17.102c4.722,0,8.551-3.829,8.551-8.551v-17.102C204.693,285.482,200.864,281.653,196.142,281.653z"/>
	<path style="fill:#ABFFDB;" d="M332.96,281.653h-17.102c-4.722,0-8.551,3.829-8.551,8.551v17.102c0,4.722,3.829,8.551,8.551,8.551
		h17.102c4.722,0,8.551-3.829,8.551-8.551v-17.102C341.511,285.482,337.683,281.653,332.96,281.653z"/>
	<path style="fill:#ABFFDB;" d="M264.551,281.653h-17.102c-4.722,0-8.551,3.829-8.551,8.551v17.102c0,4.722,3.829,8.551,8.551,8.551
		h17.102c4.722,0,8.551-3.829,8.551-8.551v-17.102C273.102,285.482,269.274,281.653,264.551,281.653z"/>
	<path style="fill:#ABFFDB;" d="M196.142,213.244H179.04c-4.722,0-8.551,3.829-8.551,8.551v17.102c0,4.722,3.829,8.551,8.551,8.551
		h17.102c4.722,0,8.551-3.829,8.551-8.551v-17.102C204.693,217.073,200.864,213.244,196.142,213.244z"/>
	<path style="fill:#ABFFDB;" d="M332.96,213.244h-17.102c-4.722,0-8.551,3.829-8.551,8.551v17.102c0,4.722,3.829,8.551,8.551,8.551
		h17.102c4.722,0,8.551-3.829,8.551-8.551v-17.102C341.511,217.073,337.683,213.244,332.96,213.244z"/>
	<path style="fill:#ABFFDB;" d="M264.551,213.244h-17.102c-4.722,0-8.551,3.829-8.551,8.551v17.102c0,4.722,3.829,8.551,8.551,8.551
		h17.102c4.722,0,8.551-3.829,8.551-8.551v-17.102C273.102,217.073,269.274,213.244,264.551,213.244z"/>
	<path style="fill:#ABFFDB;" d="M196.142,144.835H179.04c-4.722,0-8.551,3.829-8.551,8.551v17.102c0,4.722,3.829,8.551,8.551,8.551
		h17.102c4.722,0,8.551-3.829,8.551-8.551v-17.102C204.693,148.664,200.864,144.835,196.142,144.835z"/>
	<path style="fill:#ABFFDB;" d="M332.96,144.835h-17.102c-4.722,0-8.551,3.829-8.551,8.551v17.102c0,4.722,3.829,8.551,8.551,8.551
		h17.102c4.722,0,8.551-3.829,8.551-8.551v-17.102C341.511,148.664,337.683,144.835,332.96,144.835z"/>
	<path style="fill:#ABFFDB;" d="M264.551,144.835h-17.102c-4.722,0-8.551,3.829-8.551,8.551v17.102c0,4.722,3.829,8.551,8.551,8.551
		h17.102c4.722,0,8.551-3.829,8.551-8.551v-17.102C273.102,148.664,269.274,144.835,264.551,144.835z"/>
</g>
<path style="fill:#FFC850;" d="M332.96,350.063h-85.511c-4.722,0-8.551,3.829-8.551,8.551v17.102c0,4.722,3.829,8.551,8.551,8.551
	h85.511c4.722,0,8.551-3.829,8.551-8.551v-17.102C341.511,353.891,337.683,350.063,332.96,350.063z"/>
<path style="fill:#474D54;" d="M375.716,0H136.284c-23.28,0-42.221,18.941-42.221,42.221v427.557
	c0,23.28,18.941,42.221,42.221,42.221h239.432c23.28,0,42.221-18.941,42.221-42.221V42.221C417.937,18.941,398.997,0,375.716,0z
	 M401.904,469.779c0,14.44-11.748,26.188-26.188,26.188H136.284c-14.44,0-26.188-11.748-26.188-26.188V42.221
	c0-14.44,11.748-26.188,26.188-26.188h239.432c14.44,0,26.188,11.748,26.188,26.188V469.779z"/>
<g>
	<path style="fill:#92E0C0;" d="M196.142,453.211h-8.551c-4.427,0-8.017,3.589-8.017,8.017s3.589,8.017,8.017,8.017h8.551
		c4.427,0,8.017-3.589,8.017-8.017S200.569,453.211,196.142,453.211z"/>
	<path style="fill:#92E0C0;" d="M324.409,453.211h-8.551c-4.427,0-8.017,3.589-8.017,8.017s3.589,8.017,8.017,8.017h8.551
		c4.427,0,8.017-3.589,8.017-8.017S328.837,453.211,324.409,453.211z"/>
</g>
<g>
	<path style="fill:#FFC850;" d="M332.96,101.545h8.551c4.427,0,8.017-3.589,8.017-8.017c0-4.427-3.589-8.017-8.017-8.017h-8.551
		c-4.427,0-8.017,3.589-8.017,8.017C324.944,97.956,328.533,101.545,332.96,101.545z"/>
	<path style="fill:#FFC850;" d="M247.449,101.545H256c4.427,0,8.017-3.589,8.017-8.017c0-4.427-3.589-8.017-8.017-8.017h-8.551
		c-4.427,0-8.017,3.589-8.017,8.017C239.432,97.956,243.021,101.545,247.449,101.545z"/>
	<path style="fill:#FFC850;" d="M290.205,101.545h8.551c4.427,0,8.017-3.589,8.017-8.017c0-4.427-3.589-8.017-8.017-8.017h-8.551
		c-4.427,0-8.017,3.589-8.017,8.017C282.188,97.956,285.777,101.545,290.205,101.545z"/>
</g>
<g>
</g>
<g>
</g>
<g>
</g>
<g>
</g>
<g>
</g>
<g>
</g>
<g>
</g>
<g>
</g>
<g>
</g>
<g>
</g>
<g>
</g>
<g>
</g>
<g>
</g>
<g>
</g>
<g>
</g>
</svg>
