<?xml version="1.0" encoding="iso-8859-1"?>
<!-- Generator: Adobe Illustrator 19.0.0, SVG Export Plug-In . SVG Version: 6.00 Build 0)  -->
<svg version="1.1" id="Capa_1" xmlns="http://www.w3.org/2000/svg" xmlns:xlink="http://www.w3.org/1999/xlink" x="0px" y="0px"
	 viewBox="0 0 512 512" style="enable-background:new 0 0 512 512;" xml:space="preserve">
<path style="fill:#ABFFDB;" d="M477.166,362.16H34.834c-9.772,0-17.693-7.921-17.693-17.693V25.987
	c0-9.772,7.921-17.693,17.693-17.693h442.333c9.772,0,17.693,7.921,17.693,17.693v318.479
	C494.86,354.239,486.939,362.16,477.166,362.16z"/>
<path style="fill:#92E0C0;" d="M149.84,326.773v35.387h230.013v-12.009c0-8.477-2.188-16.373-5.792-23.377H149.84z"/>
<rect x="52.527" y="43.68" style="fill:#FFFFFF;" width="406.946" height="283.093"/>
<path style="fill:#E4EAF8;" d="M203.421,158.933c-1.658-0.166-3.301-0.247-4.923-0.247c-0.001,0-0.001,0-0.001,0
	c-12.997,0-25.216,5.06-34.406,14.251c-9.191,9.191-14.251,21.409-14.251,34.406v119.43h224.221
	c-7.374-14.333-21.192-24.617-37.94-26.293c-1.658-0.166-3.301-0.247-4.924-0.247c-4.787,0-9.416,0.696-13.789,1.989
	c-7.088-5.81-15.842-9.621-25.52-10.589c-1.658-0.166-3.301-0.247-4.924-0.247c-4.742,0-9.38,0.673-13.804,1.975
	c-7.086-5.802-15.834-9.607-25.504-10.575c-0.167-0.017-0.335-0.032-0.501-0.048v-74.135
	C247.153,182.783,228.352,161.428,203.421,158.933z"/>
<path style="fill:#FFFFFF;" d="M353.313,415.24v-65.089c0-11.569-8.325-22.111-19.836-23.263
	c-13.239-1.325-24.397,9.036-24.397,22.002v-7.586c0-11.569-8.325-22.111-19.836-23.263c-13.239-1.325-24.397,9.036-24.397,22.002
	v-7.586c0-11.569-8.325-22.111-19.836-23.263c-13.239-1.325-24.397,9.036-24.397,22.002V208.601
	c0-11.569-8.325-22.111-19.836-23.263c-13.239-1.325-24.397,9.036-24.397,22.002v207.896c0,48.859,39.608,88.467,88.467,88.467l0,0
	C313.706,503.706,353.313,464.099,353.313,415.24z"/>
<polygon style="fill:#FFC850;" points="87.914,43.68 87.914,158.687 114.454,140.994 140.994,158.687 140.994,43.68 "/>
<polygon style="fill:#FEA82F;" points="87.914,43.68 87.914,158.687 114.454,140.994 114.454,43.68 "/>
<g>
	<path style="fill:#E4EAF8;" d="M256,313.603c-4.409-3.332-10.031-5.139-16.164-4.333c-10.693,1.405-19.223,12.698-19.223,23.483
		v7.289c0,7.328,5.942,13.27,13.27,13.27l0,0c7.328,0,13.27-5.942,13.27-13.27v-8.847C247.153,323.984,250.659,317.64,256,313.603z"
		/>
	<path style="fill:#E4EAF8;" d="M300.233,322.449c-4.409-3.332-10.031-5.139-16.164-4.333
		c-10.693,1.406-19.223,12.698-19.223,23.483v7.289c0,7.328,5.942,13.27,13.27,13.27l0,0c7.328,0,13.27-5.942,13.27-13.27v-8.847
		C291.387,332.831,294.892,326.487,300.233,322.449z"/>
	<path style="fill:#E4EAF8;" d="M344.467,331.296c-4.409-3.332-10.031-5.139-16.164-4.333
		c-10.693,1.406-19.223,12.698-19.223,23.483v7.289c0,7.328,5.942,13.27,13.27,13.27l0,0c7.328,0,13.27-5.942,13.27-13.27v-8.847
		C335.62,341.678,339.125,335.333,344.467,331.296z"/>
	<path style="fill:#E4EAF8;" d="M202.92,415.24V207.343c0-7.164,3.476-13.445,8.756-17.487c-3.073-2.445-6.768-4.103-10.898-4.516
		c-13.239-1.325-24.398,9.035-24.398,22.002v207.896c0,48.859,39.608,88.467,88.467,88.467c4.523,0,8.931-0.447,13.27-1.101
		C235.57,496.187,202.92,459.576,202.92,415.24z"/>
</g>
<path style="fill:#474D54;" d="M477.166,0H34.834C20.504,0,8.847,11.658,8.847,25.987v318.479c0,14.329,11.658,25.987,25.987,25.987
	h133.253v44.786c0,53.354,43.406,96.76,96.76,96.76s96.76-43.406,96.76-96.76v-44.786h115.559c14.329,0,25.987-11.658,25.987-25.987
	V25.987C503.153,11.658,491.496,0,477.166,0z M345.019,415.24c0,44.208-35.965,80.173-80.173,80.173s-80.173-35.965-80.173-80.173
	V207.343c0-3.898,1.659-7.636,4.553-10.254c2.572-2.327,5.82-3.569,9.268-3.569c0.482,0,0.968,0.024,1.456,0.073
	c6.936,0.693,12.369,7.287,12.369,15.011v122.592c0,4.58,3.713,8.294,8.294,8.294s8.294-3.713,8.294-8.294
	c0-3.898,1.659-7.636,4.553-10.254c2.932-2.653,6.738-3.897,10.724-3.496c6.936,0.693,12.369,7.287,12.369,15.011v7.586
	c0,4.58,3.713,8.294,8.294,8.294s8.294-3.713,8.294-8.294c0-3.898,1.659-7.636,4.553-10.254c2.932-2.652,6.738-3.896,10.724-3.496
	c6.936,0.693,12.369,7.287,12.369,15.011v7.586c0,4.58,3.713,8.294,8.294,8.294s8.294-3.713,8.294-8.294
	c0-3.898,1.659-7.636,4.553-10.254c2.564-2.32,5.797-3.562,9.237-3.569h0.002c0.491-0.001,0.986,0.023,1.485,0.073
	c6.936,0.693,12.369,7.287,12.369,15.011V415.24z M311.292,321.382c-4.838-8.156-14.309-10.902-21.221-11.594
	c-7.713-0.767-15.414,1.418-21.511,6.046c-4.857-8.15-13.139-13.932-22.723-14.892c-5.884-0.585-11.765,0.547-16.93,3.175v-95.513
	c0-16.14-11.993-29.982-27.303-31.516c-8.583-0.854-17.148,1.948-23.507,7.701c-6.362,5.757-10.011,13.978-10.011,22.553v146.524
	H34.834c-5.191,0-9.4-4.209-9.4-9.4V25.987c0-5.191,4.209-9.4,9.4-9.4h442.333c5.191,0,9.4,4.209,9.4,9.4v318.479
	c0,5.191-4.209,9.4-9.4,9.4H361.607v-3.716c0-5.413-1.355-10.565-3.726-15.084l0,0c-4.72-11.366-16.093-18.241-28.393-17.811
	C320.208,317.582,311.292,321.382,311.292,321.382z"/>
<g>
	<path style="fill:#FFC850;" d="M185.227,96.207H415.24c4.58,0,8.294-3.713,8.294-8.294s-3.713-8.294-8.294-8.294H185.227
		c-4.58,0-8.294,3.713-8.294,8.294S180.646,96.207,185.227,96.207z"/>
	<path style="fill:#FFC850;" d="M415.24,185.78h-79.622c-4.58,0-8.294,3.713-8.294,8.294s3.713,8.294,8.294,8.294h79.622
		c4.58,0,8.294-3.713,8.294-8.294S419.82,185.78,415.24,185.78z"/>
	<path style="fill:#FFC850;" d="M264.847,202.367h35.385c4.58,0,8.294-3.713,8.294-8.294s-3.713-8.294-8.294-8.294h-35.385
		c-4.58,0-8.294,3.713-8.294,8.294S260.266,202.367,264.847,202.367z"/>
	<path style="fill:#FFC850;" d="M388.7,221.166H264.847c-4.58,0-8.294,3.713-8.294,8.294s3.713,8.294,8.294,8.294H388.7
		c4.58,0,8.294-3.713,8.294-8.294S393.28,221.166,388.7,221.166z"/>
	<path style="fill:#FFC850;" d="M388.7,256.553h-17.696c-4.58,0-8.294,3.713-8.294,8.294s3.713,8.294,8.294,8.294H388.7
		c4.58,0,8.294-3.713,8.294-8.294S393.28,256.553,388.7,256.553z"/>
	<path style="fill:#FFC850;" d="M335.619,256.553h-70.772c-4.58,0-8.294,3.713-8.294,8.294s3.713,8.294,8.294,8.294h70.772
		c4.58,0,8.294-3.713,8.294-8.294S340.199,256.553,335.619,256.553z"/>
	<path style="fill:#FFC850;" d="M185.227,131.594h115.006c4.58,0,8.294-3.713,8.294-8.294c0-4.58-3.713-8.294-8.294-8.294H185.227
		c-4.58,0-8.294,3.713-8.294,8.294C176.933,127.881,180.646,131.594,185.227,131.594z"/>
</g>
<g>
</g>
<g>
</g>
<g>
</g>
<g>
</g>
<g>
</g>
<g>
</g>
<g>
</g>
<g>
</g>
<g>
</g>
<g>
</g>
<g>
</g>
<g>
</g>
<g>
</g>
<g>
</g>
<g>
</g>
</svg>
