<?xml version="1.0" encoding="iso-8859-1"?>
<!-- Generator: Adobe Illustrator 19.0.0, SVG Export Plug-In . SVG Version: 6.00 Build 0)  -->
<svg version="1.1" id="Capa_1" xmlns="http://www.w3.org/2000/svg" xmlns:xlink="http://www.w3.org/1999/xlink" x="0px" y="0px"
	 viewBox="0 0 512 512" style="enable-background:new 0 0 512 512;" xml:space="preserve">
<path style="fill:#FFFFFF;" d="M102.079,25.119c0-9.446,7.656-17.102,17.102-17.102h256.534l85.511,85.511v393.353
	c0,9.446-7.656,17.102-17.102,17.102H119.182c-9.446,0-17.102-7.656-17.102-17.102V25.119z"/>
<path style="fill:#E4EAF8;" d="M315.858,469.779H102.079V298.756h213.779c23.613,0,42.756,19.143,42.756,42.756v85.512
	C358.614,450.636,339.471,469.779,315.858,469.779z"/>
<path style="fill:#ABFFDB;" d="M375.716,8.017v68.409c0,9.445,7.658,17.102,17.102,17.102h68.409L375.716,8.017z"/>
<path style="fill:#FFC850;" d="M315.858,444.125H67.875c-9.446,0-17.102-7.656-17.102-17.102v-85.512
	c0-9.446,7.656-17.102,17.102-17.102h247.983c9.446,0,17.102,7.656,17.102,17.102v85.512
	C332.96,436.468,325.304,444.125,315.858,444.125z"/>
<g>
	<polygon style="fill:#92E0C0;" points="332.96,247.449 384.267,256 384.267,204.693 332.96,213.244 	"/>
	<circle style="fill:#92E0C0;" cx="226.071" cy="149.111" r="38.48"/>
	<circle style="fill:#92E0C0;" cx="303.031" cy="149.111" r="38.48"/>
</g>
<path style="fill:#FFC850;" d="M324.409,187.591H204.693c-9.446,0-17.102,7.656-17.102,17.102V256
	c0,9.446,7.656,17.102,17.102,17.102h119.716c9.446,0,17.102-7.656,17.102-17.102v-51.307
	C341.511,195.247,333.854,187.591,324.409,187.591z"/>
<path style="fill:#474D54;" d="M466.896,87.86L381.384,2.348C379.882,0.844,377.842,0,375.716,0H119.182
	c-13.851,0-25.119,11.268-25.119,25.119v291.273H67.875c-13.851,0-25.119,11.268-25.119,25.119v85.512
	c0,13.851,11.268,25.119,25.119,25.119h26.188v34.739c0,13.851,11.268,25.119,25.119,25.119h324.944
	c13.851,0,25.119-11.268,25.119-25.119V93.528C469.244,91.402,468.4,89.363,466.896,87.86z M383.733,27.37l58.141,58.141h-49.056
	c-5.01,0-9.086-4.076-9.086-9.086V27.37z M58.789,427.023v-85.512c0-5.01,4.076-9.086,9.086-9.086h247.983
	c5.01,0,9.086,4.076,9.086,9.086v85.512c0,5.01-4.076,9.086-9.086,9.086H67.875C62.865,436.109,58.789,432.033,58.789,427.023z
	 M444.125,495.967H119.182c-5.01,0-9.086-4.076-9.086-9.086v-34.739h205.762c13.851,0,25.119-11.268,25.119-25.119v-85.512
	c0-13.851-11.268-25.119-25.119-25.119H110.096V25.119c0-5.01,4.076-9.086,9.086-9.086h248.518v60.392
	c0,13.851,11.268,25.119,25.119,25.119h60.392v385.336C453.211,491.891,449.135,495.967,444.125,495.967z"/>
<g>
	<path style="fill:#FFFFFF;" d="M107.642,404.759c1.317,2.823,4.149,4.627,7.264,4.627c3.115,0,5.947-1.804,7.264-4.626
		l14.648-31.388v36.549c0,4.427,3.589,8.017,8.017,8.017c4.427,0,8.017-3.589,8.017-8.017v-51.307c0-4.427-3.589-8.017-8.017-8.017
		h-9.976c-3.115,0-5.947,1.804-7.264,4.626l-12.689,27.189l-12.688-27.188c-1.317-2.823-4.149-4.627-7.264-4.627h-9.977
		c-4.427,0-8.017,3.589-8.017,8.017v51.307c0,4.427,3.589,8.017,8.017,8.017c4.427,0,8.017-3.589,8.017-8.017v-36.549
		L107.642,404.759z"/>
	<path style="fill:#FFFFFF;" d="M179.04,417.937c4.427,0,8.017-3.589,8.017-8.017v-13.25l5.641-4.512l23.43,23.43
		c1.565,1.565,3.617,2.348,5.668,2.348s4.103-0.782,5.668-2.348c3.131-3.131,3.131-8.207,0-11.337l-22.171-22.171l21.509-17.208
		c3.457-2.765,4.018-7.81,1.252-11.268c-2.766-3.458-7.811-4.019-11.268-1.252l-29.729,23.786v-17.526
		c0-4.427-3.589-8.017-8.017-8.017s-8.017,3.589-8.017,8.017v51.307C171.023,414.348,174.612,417.937,179.04,417.937z"/>
	<path style="fill:#FFFFFF;" d="M254.997,406.608c2.259,6.776,8.575,11.329,15.718,11.329h4.776c7.142,0,13.458-4.552,15.718-11.329
		l15.154-45.46c1.4-4.2-0.87-8.74-5.071-10.141c-4.199-1.401-8.74,0.87-10.141,5.071l-15.154,45.46
		c-0.073,0.219-0.277,0.366-0.507,0.366h-4.776c-0.23,0-0.434-0.146-0.507-0.366l-15.154-45.46c-1.4-4.201-5.942-6.472-10.141-5.071
		c-4.201,1.4-6.47,5.941-5.071,10.141L254.997,406.608z"/>
	<path style="fill:#FFFFFF;" d="M303.031,161.403c6.778,0,12.292-5.514,12.292-12.292c0-6.778-5.514-12.292-12.292-12.292
		c-6.778,0-12.292,5.514-12.292,12.292C290.739,155.889,296.253,161.403,303.031,161.403z"/>
	<path style="fill:#FFFFFF;" d="M226.071,161.403c6.778,0,12.292-5.514,12.292-12.292c0-6.778-5.514-12.292-12.292-12.292
		s-12.292,5.514-12.292,12.292C213.779,155.889,219.293,161.403,226.071,161.403z"/>
</g>
<g>
</g>
<g>
</g>
<g>
</g>
<g>
</g>
<g>
</g>
<g>
</g>
<g>
</g>
<g>
</g>
<g>
</g>
<g>
</g>
<g>
</g>
<g>
</g>
<g>
</g>
<g>
</g>
<g>
</g>
</svg>
