<?xml version="1.0" encoding="iso-8859-1"?>
<!-- Generator: Adobe Illustrator 19.0.0, SVG Export Plug-In . SVG Version: 6.00 Build 0)  -->
<svg version="1.1" id="Capa_1" xmlns="http://www.w3.org/2000/svg" xmlns:xlink="http://www.w3.org/1999/xlink" x="0px" y="0px"
	 viewBox="0 0 512 512" style="enable-background:new 0 0 512 512;" xml:space="preserve">
<path style="fill:#E4EAF8;" d="M486.881,465.503H25.119c-9.446,0-17.102-7.656-17.102-17.102V63.599
	c0-9.446,7.656-17.102,17.102-17.102h461.762c9.446,0,17.102,7.656,17.102,17.102v384.802
	C503.983,457.847,496.327,465.503,486.881,465.503z"/>
<path style="fill:#ABFFDB;" d="M503.983,89.253H50.772V46.497h436.109c9.446,0,17.102,7.656,17.102,17.102V89.253z"/>
<g>
	<path style="fill:#FFFFFF;" d="M461.228,260.276H50.772c-4.722,0-8.551-3.829-8.551-8.551V132.008c0-4.722,3.829-8.551,8.551-8.551
		h410.455c4.722,0,8.551,3.829,8.551,8.551v119.716C469.779,256.447,465.95,260.276,461.228,260.276z"/>
	<path style="fill:#FFFFFF;" d="M461.228,431.299H50.772c-4.722,0-8.551-3.829-8.551-8.551V303.031c0-4.722,3.829-8.551,8.551-8.551
		h410.455c4.722,0,8.551,3.829,8.551,8.551v119.716C469.779,427.47,465.95,431.299,461.228,431.299z"/>
</g>
<path style="fill:#FFC850;" d="M170.489,260.276H50.772c-4.722,0-8.551-3.829-8.551-8.551V132.008c0-4.722,3.829-8.551,8.551-8.551
	h119.716V260.276z"/>
<path style="fill:#ABFFDB;" d="M170.489,431.299H50.772c-4.722,0-8.551-3.829-8.551-8.551V303.031c0-4.722,3.829-8.551,8.551-8.551
	h119.716V431.299z"/>
<rect x="375.716" y="46.497" style="fill:#FEA82F;" width="42.756" height="42.756"/>
<rect x="418.472" y="46.497" style="fill:#FFC850;" width="42.756" height="42.756"/>
<path style="fill:#ABFFDB;" d="M503.983,89.253h-42.756V46.497h25.653c9.446,0,17.102,7.656,17.102,17.102V89.253z"/>
<path style="fill:#FFFFFF;" d="M136.284,158.196h-21.912v-0.534c0-4.427-3.589-8.017-8.017-8.017c-4.427,0-8.017,3.589-8.017,8.017
	v0.534H76.426c-4.427,0-8.017,3.589-8.017,8.017s3.589,8.017,8.017,8.017h35.375c-0.781,4.921-2.347,11.576-5.446,18.443
	c-0.532-1.184-1.045-2.389-1.52-3.636c-1.576-4.138-6.207-6.213-10.345-4.64c-4.138,1.576-6.215,6.207-4.64,10.345
	c1.797,4.719,3.975,9.12,6.49,13.194c-3.924,4.211-8.782,8.004-14.832,10.908c-3.991,1.915-5.674,6.704-3.758,10.696
	c1.379,2.873,4.246,4.549,7.233,4.549c1.163,0,2.344-0.254,3.463-0.792c7.204-3.458,13.111-7.806,17.963-12.616
	c5.192,5.158,11.169,9.407,17.854,12.616c1.119,0.537,2.3,0.792,3.463,0.792c2.986,0,5.854-1.677,7.233-4.549
	c1.915-3.991,0.233-8.78-3.758-10.696c-5.656-2.714-10.585-6.339-14.786-10.82c7.702-12.508,10.547-25.642,11.595-33.794h8.273
	c4.427,0,8.017-3.589,8.017-8.017S140.711,158.196,136.284,158.196z"/>
<path style="fill:#48C397;" d="M144.061,395.15l-15.483-61.933c-1.848-7.388-8.457-12.549-16.073-12.549h-12.301
	c-7.616,0-14.226,5.161-16.073,12.55L68.649,395.15c-1.074,4.296,1.537,8.647,5.833,9.722c4.292,1.076,8.648-1.537,9.722-5.833
	l2.757-11.03h38.789l2.758,11.03c0.911,3.643,4.179,6.075,7.771,6.075c0.643,0,1.298-0.078,1.951-0.242
	C142.523,403.797,145.135,399.446,144.061,395.15z M90.968,371.975l8.717-34.868c0.06-0.239,0.273-0.405,0.518-0.405h12.301
	c0.246,0,0.46,0.167,0.518,0.404l8.719,34.869H90.968z"/>
<g>
	<path style="fill:#ABB0B7;" d="M213.244,174.23h85.511c4.427,0,8.017-3.589,8.017-8.017s-3.589-8.017-8.017-8.017h-85.511
		c-4.427,0-8.017,3.589-8.017,8.017S208.817,174.23,213.244,174.23z"/>
	<path style="fill:#ABB0B7;" d="M367.165,192.401H213.244c-4.427,0-8.017,3.589-8.017,8.017s3.589,8.017,8.017,8.017h153.921
		c4.427,0,8.017-3.589,8.017-8.017S371.592,192.401,367.165,192.401z"/>
	<path style="fill:#ABB0B7;" d="M401.37,158.196H332.96c-4.427,0-8.017,3.589-8.017,8.017s3.589,8.017,8.017,8.017h68.409
		c4.427,0,8.017-3.589,8.017-8.017S405.797,158.196,401.37,158.196z"/>
	<path style="fill:#ABB0B7;" d="M213.244,345.253h68.409c4.427,0,8.017-3.589,8.017-8.017c0-4.427-3.589-8.017-8.017-8.017h-68.409
		c-4.427,0-8.017,3.589-8.017,8.017C205.228,341.663,208.817,345.253,213.244,345.253z"/>
	<path style="fill:#ABB0B7;" d="M332.96,363.424H213.244c-4.427,0-8.017,3.589-8.017,8.017c0,4.427,3.589,8.017,8.017,8.017H332.96
		c4.427,0,8.017-3.589,8.017-8.017C340.977,367.013,337.388,363.424,332.96,363.424z"/>
	<path style="fill:#ABB0B7;" d="M384.267,329.219h-68.409c-4.427,0-8.017,3.589-8.017,8.017c0,4.427,3.589,8.017,8.017,8.017h68.409
		c4.427,0,8.017-3.589,8.017-8.017C392.284,332.809,388.695,329.219,384.267,329.219z"/>
</g>
<rect x="10.154" y="46.497" style="fill:#C3C8D1;" width="40.618" height="42.221"/>
<path style="fill:#474D54;" d="M486.881,38.48H25.119C11.268,38.48,0,49.748,0,63.599v384.802c0,13.851,11.268,25.119,25.119,25.119
	h461.762c13.851,0,25.119-11.268,25.119-25.119V63.599C512,49.748,500.732,38.48,486.881,38.48z M495.967,97.269v351.132
	c0,5.01-4.076,9.086-9.086,9.086H25.119c-5.01,0-9.086-4.076-9.086-9.086V97.269V81.236V63.599c0-5.01,4.076-9.086,9.086-9.086
	h461.762c5.01,0,9.086,4.076,9.086,9.086v17.637V97.269z"/>
<g>
</g>
<g>
</g>
<g>
</g>
<g>
</g>
<g>
</g>
<g>
</g>
<g>
</g>
<g>
</g>
<g>
</g>
<g>
</g>
<g>
</g>
<g>
</g>
<g>
</g>
<g>
</g>
<g>
</g>
</svg>
