<?xml version="1.0" encoding="iso-8859-1"?>
<!-- Generator: Adobe Illustrator 19.0.0, SVG Export Plug-In . SVG Version: 6.00 Build 0)  -->
<svg version="1.1" id="Capa_1" xmlns="http://www.w3.org/2000/svg" xmlns:xlink="http://www.w3.org/1999/xlink" x="0px" y="0px"
	 viewBox="0 0 512 512" style="enable-background:new 0 0 512 512;" xml:space="preserve">
<path style="fill:#FFFFFF;" d="M25.119,471.25h461.762c9.446,0,17.102-7.656,17.102-17.102V129.204
	c0-9.446-7.656-17.102-17.102-17.102H25.119c-9.446,0-17.102,7.656-17.102,17.102v324.944
	C8.017,463.594,15.673,471.25,25.119,471.25z"/>
<rect x="93.528" y="146.311" style="fill:#ABFFDB;" width="376.251" height="290.739"/>
<path style="fill:#FFC850;" d="M264.121,256.435l-42.326,18.139l18.14-42.326l189-189c3.339-3.339,8.754-3.339,12.093,0
	l12.093,12.093c3.339,3.339,3.339,8.754,0,12.093L264.121,256.435z"/>
<rect x="261.413" y="187.938" transform="matrix(0.7071 -0.7071 0.7071 0.7071 -59.6532 266.0647)" style="fill:#FFFFFF;" width="59.857" height="34.204"/>
<circle style="fill:#FFC850;" cx="50.772" cy="291.68" r="17.102"/>
<path style="fill:#474D54;" d="M486.881,104.085h-59.073l30.983-30.983c6.459-6.459,6.459-16.97,0-23.43l-12.093-12.093
	c-6.459-6.46-16.971-6.46-23.43,0l-66.507,66.507H25.119C11.268,104.085,0,115.353,0,129.204v324.944
	c0,13.851,11.268,25.119,25.119,25.119h461.762c13.851,0,25.119-11.268,25.119-25.119V129.204
	C512,115.353,500.732,104.085,486.881,104.085z M434.604,48.916c0.208-0.207,0.547-0.207,0.756,0l12.093,12.093
	c0.208,0.208,0.208,0.547,0,0.756L259.544,249.674l-22.485,9.637l9.637-22.485L434.604,48.916z M495.967,454.148
	c0,5.01-4.076,9.086-9.086,9.086H25.119c-5.01,0-9.086-4.076-9.086-9.086V129.204c0-5.01,4.076-9.086,9.086-9.086h315.608
	L234.266,226.579c-0.722,0.721-1.298,1.573-1.7,2.511l-18.14,42.326c-1.291,3.013-0.618,6.508,1.7,8.827
	c1.535,1.535,3.585,2.348,5.67,2.348c1.065,0,2.138-0.212,3.156-0.648l42.326-18.14c0.937-0.402,1.789-0.979,2.511-1.7
	L411.774,120.12h75.107c5.01,0,9.086,4.076,9.086,9.086V454.148z"/>
<g>
	<path style="fill:#FFC850;" d="M42.221,248.386h17.102c4.427,0,8.017-3.589,8.017-8.017c0-4.427-3.589-8.017-8.017-8.017H42.221
		c-4.427,0-8.017,3.589-8.017,8.017C34.205,244.796,37.794,248.386,42.221,248.386z"/>
	<path style="fill:#FFC850;" d="M42.221,214.181h17.102c4.427,0,8.017-3.589,8.017-8.017c0-4.427-3.589-8.017-8.017-8.017H42.221
		c-4.427,0-8.017,3.589-8.017,8.017C34.205,210.592,37.794,214.181,42.221,214.181z"/>
	<path style="fill:#FFC850;" d="M42.221,179.977h17.102c4.427,0,8.017-3.589,8.017-8.017s-3.589-8.017-8.017-8.017H42.221
		c-4.427,0-8.017,3.589-8.017,8.017S37.794,179.977,42.221,179.977z"/>
	<path style="fill:#FFC850;" d="M59.324,403.375H42.221c-4.427,0-8.017,3.589-8.017,8.017c0,4.427,3.589,8.017,8.017,8.017h17.102
		c4.427,0,8.017-3.589,8.017-8.017C67.34,406.965,63.751,403.375,59.324,403.375z"/>
	<path style="fill:#FFC850;" d="M59.324,369.171H42.221c-4.427,0-8.017,3.589-8.017,8.017c0,4.427,3.589,8.017,8.017,8.017h17.102
		c4.427,0,8.017-3.589,8.017-8.017C67.34,372.76,63.751,369.171,59.324,369.171z"/>
	<path style="fill:#FFC850;" d="M59.324,334.966H42.221c-4.427,0-8.017,3.589-8.017,8.017c0,4.427,3.589,8.017,8.017,8.017h17.102
		c4.427,0,8.017-3.589,8.017-8.017C67.34,338.555,63.751,334.966,59.324,334.966z"/>
</g>
<g>
	<path style="fill:#FFFFFF;" d="M170.489,172.494h-42.756c-4.427,0-8.017,3.589-8.017,8.017v42.756c0,4.427,3.589,8.017,8.017,8.017
		c4.427,0,8.017-3.589,8.017-8.017v-34.739h34.739c4.427,0,8.017-3.589,8.017-8.017S174.916,172.494,170.489,172.494z"/>
	<path style="fill:#FFFFFF;" d="M392.818,410.858h42.756c4.427,0,8.017-3.589,8.017-8.017v-42.756c0-4.427-3.589-8.017-8.017-8.017
		c-4.427,0-8.017,3.589-8.017,8.017v34.739h-34.739c-4.427,0-8.017,3.589-8.017,8.017
		C384.802,407.268,388.391,410.858,392.818,410.858z"/>
	<path style="fill:#FFFFFF;" d="M392.818,188.528h34.739v34.739c0,4.427,3.589,8.017,8.017,8.017c4.427,0,8.017-3.589,8.017-8.017
		v-42.756c0-4.427-3.589-8.017-8.017-8.017h-42.756c-4.427,0-8.017,3.589-8.017,8.017S388.391,188.528,392.818,188.528z"/>
	<path style="fill:#FFFFFF;" d="M170.489,394.824h-34.739v-34.739c0-4.427-3.589-8.017-8.017-8.017
		c-4.427,0-8.017,3.589-8.017,8.017v42.756c0,4.427,3.589,8.017,8.017,8.017h42.756c4.427,0,8.017-3.589,8.017-8.017
		C178.505,398.414,174.916,394.824,170.489,394.824z"/>
</g>
<g>
</g>
<g>
</g>
<g>
</g>
<g>
</g>
<g>
</g>
<g>
</g>
<g>
</g>
<g>
</g>
<g>
</g>
<g>
</g>
<g>
</g>
<g>
</g>
<g>
</g>
<g>
</g>
<g>
</g>
</svg>
