<?xml version="1.0" encoding="iso-8859-1"?>
<!-- Generator: Adobe Illustrator 19.0.0, SVG Export Plug-In . SVG Version: 6.00 Build 0)  -->
<svg version="1.1" id="Capa_1" xmlns="http://www.w3.org/2000/svg" xmlns:xlink="http://www.w3.org/1999/xlink" x="0px" y="0px"
	 viewBox="0 0 512 512" style="enable-background:new 0 0 512 512;" xml:space="preserve">
<path style="fill:#FFFFFF;" d="M486.881,435.574H25.119c-9.446,0-17.102-7.656-17.102-17.102V127.733
	c0-9.446,7.656-17.102,17.102-17.102h461.762c9.446,0,17.102,7.656,17.102,17.102v290.739
	C503.983,427.918,496.327,435.574,486.881,435.574z"/>
<rect x="42.221" y="144.835" style="fill:#FFC850;" width="427.557" height="256.534"/>
<g>
	<path style="fill:#FFFFFF;" d="M213.244,401.37l-47.191-55.068c-2.656-3.1-4.116-7.046-4.116-11.128V179.04H110.63v156.132
		c0,4.082-1.46,8.03-4.116,11.128L59.324,401.37H213.244z"/>
	<path style="fill:#FFFFFF;" d="M315.858,401.37h153.921l-0.009-20.229c-9.334-19.198-25.643-34.378-45.631-42.25
		c-3.354-1.321-5.667-4.406-5.667-8.01V213.244h-51.307V330.88c0,3.604-2.314,6.69-5.667,8.01
		c-19.987,7.872-36.296,23.053-45.631,42.25"/>
</g>
<rect x="187.591" y="435.574" style="fill:#ABFFDB;" width="136.818" height="59.858"/>
<rect x="187.591" y="435.574" style="fill:#92E0C0;" width="136.818" height="25.653"/>
<rect x="204.693" y="110.63" style="fill:#DAE0EA;" width="102.614" height="34.205"/>
<path style="fill:#FF9052;" d="M461.216,367.165H332.96v34.205h136.818l-0.009-20.229
	C467.365,376.195,464.49,371.522,461.216,367.165z"/>
<path style="fill:#E4EAF8;" d="M418.472,213.244h-51.307V330.88c0,3.604-2.314,6.689-5.667,8.01
	c-19.987,7.872-36.296,23.053-45.631,42.25l-0.009,20.229h42.756c0,0,0-42.756,30.426-62.479c2.179-1.413,3.779-4.406,3.779-8.01
	v-83.431c0-4.722,3.829-8.551,8.551-8.551h17.102V213.244z"/>
<path style="fill:#FF8031;" d="M324.409,367.165v34.205h34.205c0,0,0.006-16.805,7.505-34.205H324.409z"/>
<polygon style="fill:#ABFFDB;" points="103.29,350.063 59.324,401.37 213.244,401.37 169.277,350.063 "/>
<polygon style="fill:#92E0C0;" points="136.284,350.063 119.182,401.37 59.324,401.37 102.079,350.063 "/>
<path style="fill:#FFFFFF;" d="M161.937,179.04h-12.827H161.937z"/>
<g>
	<polygon style="fill:#E4EAF8;" points="110.63,179.04 110.63,179.04 149.111,179.04 	"/>
	<path style="fill:#E4EAF8;" d="M136.284,213.244c0-4.722,3.829-8.551,8.551-8.551h17.102V179.04h-12.827h-38.48l0,0v156.132
		c0,4.082-1.46,8.03-4.116,11.128l-3.224,3.761h32.994V213.244z"/>
</g>
<path style="fill:#FEA82F;" d="M165.558,315.858c-0.002,0.006-0.002,0.013-0.004,0.019c-0.76,2.681-1.391,5.415-1.919,8.186
	c-0.052,0.28-0.105,0.559-0.155,0.841c-0.447,2.461-0.775,4.96-1.025,7.482c-0.051,0.528-0.117,1.052-0.159,1.583
	c-0.191,2.316-0.262,4.667-0.281,7.029c-0.004,0.662-0.045,1.315-0.035,1.98c0.038,2.915,0.195,5.858,0.51,8.83
	c0.003,0.022,0.002,0.045,0.004,0.067c0.497,4.645,1.347,9.198,2.519,13.629c2.32,8.757,5.912,17.038,10.549,24.639
	c0.055,0.089,0.099,0.183,0.154,0.27c2.358,3.836,4.984,7.497,7.852,10.954h43.442c-7.299-13.828-12.146-30.921-13.41-49.494
	c-0.857-12.599-0.088-24.729,1.951-36.017h-49.992V315.858z"/>
<g>
	<path style="fill:#FFC850;" d="M264.637,24.585c4.427,0,8.017-3.589,8.017-8.017s-3.589-8.017-8.017-8.017h-0.086
		c-4.427,0-7.974,3.589-7.974,8.017S260.209,24.585,264.637,24.585z"/>
	<path style="fill:#FFC850;" d="M238.983,50.238c4.427,0,8.017-3.589,8.017-8.017s-3.589-8.017-8.017-8.017h-0.086
		c-4.427,0-7.974,3.589-7.974,8.017S234.556,50.238,238.983,50.238z"/>
</g>
<path style="fill:#474D54;" d="M486.881,102.614H279.515c-4.427,0-8.017,3.589-8.017,8.017l0,0c0,4.427,3.589,8.017,8.017,8.017
	h207.366c5.017,0,9.086,4.068,9.086,9.086v290.739c0,5.017-4.068,9.086-9.086,9.086H25.119c-5.017,0-9.086-4.068-9.086-9.086
	V127.733c0-5.017,4.068-9.086,9.086-9.086h207.366c4.427,0,8.017-3.589,8.017-8.017l0,0c0-4.427-3.589-8.017-8.017-8.017H25.119
	C11.246,102.614,0,113.86,0,127.733v290.739c0,13.873,11.246,25.119,25.119,25.119h154.457v43.825h-34.406
	c-4.39,0-8.218,3.382-8.349,7.77c-0.137,4.54,3.504,8.264,8.013,8.264h221.994c4.39,0,8.218-3.382,8.349-7.77
	c0.137-4.54-3.504-8.264-8.013-8.264h-34.739v-43.825h154.455c13.873,0,25.119-11.246,25.119-25.119V127.733
	C512,113.86,500.754,102.614,486.881,102.614z M316.392,487.415H195.61v-43.825h120.783V487.415z"/>
<path style="fill:#FFFFFF;" d="M292.361,254.829c-6.424-2.695-10.707-8.838-10.707-15.804V76.426h-51.307v162.592
	c0,6.986-4.313,13.125-10.753,15.831c-36.82,15.47-61.744,53.626-57.1,97.027c1.988,18.583,9.61,35.685,21.09,49.517l144.975-0.019
	c13.434-16.263,21.504-37.121,21.504-59.861C350.063,302.465,326.243,269.044,292.361,254.829z"/>
<path style="fill:#E4EAF8;" d="M230.347,76.426v162.59c0,6.986-4.312,13.126-10.753,15.831c-36.82,15.47-61.744,53.626-57.1,97.027
	c1.988,18.583,9.61,35.685,21.09,49.517l43.432-0.005c-7.304-13.831-12.154-30.931-13.419-49.511
	c-2.954-43.4,12.905-81.558,36.337-97.027c4.098-2.706,6.842-8.845,6.842-15.831V110.63c0-4.722,3.829-8.551,8.551-8.551h16.326
	V76.426H230.347z"/>
<path style="fill:#C3C8D1;" d="M285.929,80.167h-59.858c-4.427,0-8.017-3.589-8.017-8.017l0,0c0-4.427,3.589-8.017,8.017-8.017
	h59.858c4.427,0,8.017,3.589,8.017,8.017l0,0C293.946,76.578,290.356,80.167,285.929,80.167z"/>
<path style="fill:#FFC850;" d="M162.493,351.875c1.987,18.573,9.604,35.667,21.074,49.494h144.994
	c13.431-16.262,21.501-37.118,21.501-59.858c0-8.905-1.294-17.495-3.61-25.653H165.558
	C162.355,327.147,161.146,339.276,162.493,351.875z"/>
<g>
	<path style="fill:#FFFFFF;" d="M213.33,342.046h-0.086c-4.427,0-7.974,3.589-7.974,8.017c0,4.427,3.632,8.017,8.059,8.017
		s8.017-3.589,8.017-8.017C221.346,345.635,217.757,342.046,213.33,342.046z"/>
	<path style="fill:#FFFFFF;" d="M307.307,342.046h-0.085c-4.427,0-7.974,3.589-7.974,8.017c0,4.427,3.632,8.017,8.059,8.017
		c4.427,0,8.017-3.589,8.017-8.017C315.324,345.635,311.734,342.046,307.307,342.046z"/>
	<path style="fill:#FFFFFF;" d="M256.086,359.148H256c-4.427,0-7.974,3.589-7.974,8.017c0,4.427,3.632,8.017,8.059,8.017
		c4.427,0,8.017-3.589,8.017-8.017C264.102,362.738,260.513,359.148,256.086,359.148z"/>
</g>
<g>
</g>
<g>
</g>
<g>
</g>
<g>
</g>
<g>
</g>
<g>
</g>
<g>
</g>
<g>
</g>
<g>
</g>
<g>
</g>
<g>
</g>
<g>
</g>
<g>
</g>
<g>
</g>
<g>
</g>
</svg>
