<?xml version="1.0" encoding="iso-8859-1"?>
<!-- Generator: Adobe Illustrator 19.0.0, SVG Export Plug-In . SVG Version: 6.00 Build 0)  -->
<svg version="1.1" id="Capa_1" xmlns="http://www.w3.org/2000/svg" xmlns:xlink="http://www.w3.org/1999/xlink" x="0px" y="0px"
	 viewBox="0 0 512 512" style="enable-background:new 0 0 512 512;" xml:space="preserve">
<path style="fill:#FFFFFF;" d="M486.881,465.503H25.119c-9.446,0-17.102-7.656-17.102-17.102V63.599
	c0-9.446,7.656-17.102,17.102-17.102h461.762c9.446,0,17.102,7.656,17.102,17.102v384.802
	C503.983,457.847,496.327,465.503,486.881,465.503z"/>
<rect x="8.017" y="46.497" style="fill:#E4EAF8;" width="42.756" height="42.756"/>
<g>
	<path style="fill:#ABFFDB;" d="M427.023,337.236H221.795c-4.722,0-8.551-3.829-8.551-8.551v-17.102
		c0-4.722,3.829-8.551,8.551-8.551h205.228c4.722,0,8.551,3.829,8.551,8.551v17.102
		C435.574,333.407,431.745,337.236,427.023,337.236z"/>
	<path style="fill:#ABFFDB;" d="M427.023,405.645H221.795c-4.722,0-8.551-3.829-8.551-8.551v-17.102
		c0-4.722,3.829-8.551,8.551-8.551h205.228c4.722,0,8.551,3.829,8.551,8.551v17.102
		C435.574,401.816,431.745,405.645,427.023,405.645z"/>
	<path style="fill:#ABFFDB;" d="M196.179,183.315v51.307c0,4.722,3.829,8.551,8.551,8.551h102.614c4.722,0,8.551-3.829,8.551-8.551
		v-51.307H196.179z"/>
</g>
<path style="fill:#92E0C0;" d="M196.179,219.257l46.638,12.437c4.311,1.149,8.759,1.733,13.22,1.733
	c4.462,0,8.909-0.583,13.22-1.733l46.638-12.437v-27.39H196.179V219.257z"/>
<path style="fill:#ABFFDB;" d="M503.983,89.253H50.772V46.497h436.109c9.446,0,17.102,7.656,17.102,17.102V89.253z"/>
<rect x="375.716" y="46.497" style="fill:#FF8031;" width="42.756" height="42.756"/>
<rect x="418.472" y="46.497" style="fill:#FFC850;" width="42.756" height="42.756"/>
<path style="fill:#ABFFDB;" d="M503.983,89.253h-42.756V46.497h25.653c9.446,0,17.102,7.656,17.102,17.102V89.253z"/>
<path style="fill:#474D54;" d="M486.881,38.48H25.119C11.268,38.48,0,49.748,0,63.599v384.802c0,13.851,11.268,25.119,25.119,25.119
	h461.762c13.851,0,25.119-11.268,25.119-25.119V63.599C512,49.748,500.732,38.48,486.881,38.48z M495.967,448.401
	c0,5.01-4.076,9.086-9.086,9.086H25.119c-5.01,0-9.086-4.076-9.086-9.086V63.599c0-5.01,4.076-9.086,9.086-9.086h461.762
	c5.01,0,9.086,4.076,9.086,9.086V448.401z"/>
<g>
	<circle style="fill:#FFC850;" cx="350.063" cy="268.827" r="8.017"/>
	<path style="fill:#FFC850;" d="M342.046,172.625v70.548c0,4.427,3.589,8.017,8.017,8.017c4.427,0,8.017-3.589,8.017-8.017v-70.548
		H342.046z"/>
</g>
<path style="fill:#ABFFDB;" d="M247.224,142.91l-108.747,28.999c-2.924,0.78-2.924,4.931,0,5.71l108.747,28.999
	c5.774,1.54,11.852,1.54,17.626,0l108.747-28.999c2.924-0.78,2.924-4.931,0-5.71L264.85,142.91
	C259.076,141.37,252.999,141.37,247.224,142.91z"/>
<path style="fill:#ABB0B7;" d="M92.994,356.477v-36.343c0-14.44,11.748-26.188,26.188-26.188s26.188,11.748,26.188,26.188v36.343
	h16.033v-36.343c0-23.28-18.941-42.221-42.221-42.221S76.96,296.853,76.96,320.134v36.343H92.994z"/>
<path style="fill:#FFC850;" d="M119.182,414.196L119.182,414.196c23.613,0,42.756-19.143,42.756-42.756v-25.653H76.426v25.653
	C76.426,395.053,95.569,414.196,119.182,414.196z"/>
<path style="fill:#FFFFFF;" d="M119.182,363.424c-4.427,0-8.017,3.589-8.017,8.017v8.551c0,4.427,3.589,8.017,8.017,8.017
	c4.427,0,8.017-3.589,8.017-8.017v-8.551C127.198,367.013,123.609,363.424,119.182,363.424z"/>
<g>
</g>
<g>
</g>
<g>
</g>
<g>
</g>
<g>
</g>
<g>
</g>
<g>
</g>
<g>
</g>
<g>
</g>
<g>
</g>
<g>
</g>
<g>
</g>
<g>
</g>
<g>
</g>
<g>
</g>
</svg>
