<?xml version="1.0" encoding="iso-8859-1"?>
<!-- Generator: Adobe Illustrator 19.0.0, SVG Export Plug-In . SVG Version: 6.00 Build 0)  -->
<svg version="1.1" id="Capa_1" xmlns="http://www.w3.org/2000/svg" xmlns:xlink="http://www.w3.org/1999/xlink" x="0px" y="0px"
	 viewBox="0 0 512 512" style="enable-background:new 0 0 512 512;" xml:space="preserve">
<path style="fill:#FFFFFF;" d="M486.881,418.472H25.119c-9.446,0-17.102-7.656-17.102-17.102V110.63
	c0-9.446,7.656-17.102,17.102-17.102h461.762c9.446,0,17.102,7.656,17.102,17.102V401.37
	C503.983,410.815,496.327,418.472,486.881,418.472z"/>
<rect x="59.324" y="127.733" style="fill:#FFC850;" width="393.353" height="256.534"/>
<path style="fill:#ABFFDB;" d="M307.307,161.937H204.693c-18.891,0-34.205,15.314-34.205,34.205v68.409
	c0,18.891,15.314,34.205,34.205,34.205h102.614c18.891,0,34.205-15.314,34.205-34.205v-68.409
	C341.511,177.251,326.197,161.937,307.307,161.937z M283.459,237.994l-40.737,20.369c-5.685,2.843-12.376-1.291-12.376-7.648
	v-40.737c0-6.357,6.689-10.491,12.376-7.649l40.737,20.369C289.761,225.849,289.761,234.843,283.459,237.994z"/>
<path style="fill:#474D54;" d="M486.881,85.511H25.119C11.268,85.511,0,96.78,0,110.63V401.37c0,13.851,11.268,25.119,25.119,25.119
	h461.762c13.851,0,25.119-11.268,25.119-25.119V110.63C512,96.78,500.732,85.511,486.881,85.511z M495.967,401.37
	c0,5.01-4.076,9.086-9.086,9.086H25.119c-5.01,0-9.086-4.076-9.086-9.086V110.63c0-5.01,4.076-9.086,9.086-9.086h461.762
	c5.01,0,9.086,4.076,9.086,9.086V401.37z"/>
<g>
	<path style="fill:#ABFFDB;" d="M33.67,239.432c-4.427,0-8.017,3.589-8.017,8.017v17.102c0,4.427,3.589,8.017,8.017,8.017
		s8.017-3.589,8.017-8.017v-17.102C41.687,243.021,38.098,239.432,33.67,239.432z"/>
	<path style="fill:#ABFFDB;" d="M478.33,230.881c-4.427,0-8.017,3.589-8.017,8.017v34.205c0,4.427,3.589,8.017,8.017,8.017
		s8.017-3.589,8.017-8.017v-34.205C486.347,234.47,482.757,230.881,478.33,230.881z"/>
	<path style="fill:#ABFFDB;" d="M478.415,119.716h-0.086c-4.427,0-7.974,3.589-7.974,8.017c0,4.427,3.632,8.017,8.059,8.017
		c4.427,0,8.017-3.589,8.017-8.017C486.432,123.305,482.843,119.716,478.415,119.716z"/>
	<path style="fill:#ABFFDB;" d="M33.67,196.676c-4.427,0-8.017,3.589-8.017,8.017v8.551c0,4.427,3.589,8.017,8.017,8.017
		s8.017-3.589,8.017-8.017v-8.551C41.687,200.266,38.098,196.676,33.67,196.676z"/>
	<path style="fill:#ABFFDB;" d="M33.67,290.739c-4.427,0-8.017,3.589-8.017,8.017v8.551c0,4.427,3.589,8.017,8.017,8.017
		s8.017-3.589,8.017-8.017v-8.551C41.687,294.328,38.098,290.739,33.67,290.739z"/>
</g>
<path style="fill:#FFFFFF;" d="M418.472,349.35H93.528c-4.427,0-8.017-3.589-8.017-8.017l0,0c0-4.427,3.589-8.017,8.017-8.017
	h324.944c4.427,0,8.017,3.589,8.017,8.017l0,0C426.489,345.76,422.899,349.35,418.472,349.35z"/>
<circle style="fill:#ABFFDB;" cx="161.937" cy="341.511" r="17.102"/>
<g>
</g>
<g>
</g>
<g>
</g>
<g>
</g>
<g>
</g>
<g>
</g>
<g>
</g>
<g>
</g>
<g>
</g>
<g>
</g>
<g>
</g>
<g>
</g>
<g>
</g>
<g>
</g>
<g>
</g>
</svg>
