<?xml version="1.0" encoding="iso-8859-1"?>
<!-- Generator: Adobe Illustrator 19.0.0, SVG Export Plug-In . SVG Version: 6.00 Build 0)  -->
<svg version="1.1" id="Capa_1" xmlns="http://www.w3.org/2000/svg" xmlns:xlink="http://www.w3.org/1999/xlink" x="0px" y="0px"
	 viewBox="0 0 512 512" style="enable-background:new 0 0 512 512;" xml:space="preserve">
<path style="fill:#ABFFDB;" d="M435.574,503.983H76.426c-9.446,0-17.102-7.656-17.102-17.102V42.221
	c0-9.446,7.656-17.102,17.102-17.102h359.148c9.446,0,17.102,7.656,17.102,17.102v444.66
	C452.676,496.327,445.02,503.983,435.574,503.983z"/>
<path style="fill:#FFC850;" d="M332.96,144.835l34.205-25.653l34.205,25.653V16.568c0-4.722-3.829-8.551-8.551-8.551h-51.307
	c-4.722,0-8.551,3.829-8.551,8.551V144.835z"/>
<polygon style="fill:#FFFFFF;" points="230.347,179.04 230.347,264.551 196.142,264.551 264.551,332.96 332.96,264.551 
	298.756,264.551 298.756,179.04 "/>
<path style="fill:#474D54;" d="M435.574,17.102h-26.188v-0.534C409.386,7.432,401.954,0,392.818,0h-51.307
	c-9.136,0-16.568,7.432-16.568,16.568v0.534H76.426c-13.851,0-25.119,11.268-25.119,25.119v444.66
	c0,13.851,11.268,25.119,25.119,25.119h359.148c13.851,0,25.119-11.268,25.119-25.119V42.221
	C460.693,28.371,449.425,17.102,435.574,17.102z M340.977,16.568c0-0.295,0.239-0.534,0.534-0.534h51.307
	c0.295,0,0.534,0.239,0.534,0.534v8.54c0,0.003,0,0.006,0,0.011c0,0.004,0,0.006,0,0.011v103.672l-21.378-16.033
	c-1.425-1.069-3.118-1.603-4.81-1.603c-1.692,0-3.385,0.534-4.81,1.603l-21.378,16.033V16.568z M444.66,486.881
	c0,5.01-4.076,9.086-9.086,9.086H76.426c-5.01,0-9.086-4.076-9.086-9.086V42.221c0-5.01,4.076-9.086,9.086-9.086h248.518v111.699
	c0,3.037,1.716,5.813,4.432,7.17s5.965,1.066,8.395-0.757l29.395-22.046l29.395,22.046c1.414,1.061,3.107,1.603,4.811,1.603
	c1.222,0,2.45-0.279,3.584-0.847c2.716-1.357,4.432-4.133,4.432-7.17V33.136h26.188c5.01,0,9.086,4.076,9.086,9.086V486.881z"/>
<g>
	<path style="fill:#48C397;" d="M93.528,51.307c-4.427,0-8.017,3.589-8.017,8.017v410.455c0,4.427,3.589,8.017,8.017,8.017
		c4.427,0,8.017-3.589,8.017-8.017V59.324C101.545,54.896,97.956,51.307,93.528,51.307z"/>
	<path style="fill:#48C397;" d="M358.614,316.392c-4.427,0-8.017,3.589-8.017,8.017v34.205c0,0.295-0.239,0.534-0.534,0.534H179.04
		c-0.295,0-0.534-0.239-0.534-0.534v-34.205c0-4.427-3.589-8.017-8.017-8.017s-8.017,3.589-8.017,8.017v34.205
		c0,9.136,7.432,16.568,16.568,16.568h171.023c9.136,0,16.568-7.432,16.568-16.568v-34.205
		C366.63,319.982,363.041,316.392,358.614,316.392z"/>
</g>
<g>
</g>
<g>
</g>
<g>
</g>
<g>
</g>
<g>
</g>
<g>
</g>
<g>
</g>
<g>
</g>
<g>
</g>
<g>
</g>
<g>
</g>
<g>
</g>
<g>
</g>
<g>
</g>
<g>
</g>
</svg>
