<?xml version="1.0" encoding="iso-8859-1"?>
<!-- Generator: Adobe Illustrator 19.0.0, SVG Export Plug-In . SVG Version: 6.00 Build 0)  -->
<svg version="1.1" id="Capa_1" xmlns="http://www.w3.org/2000/svg" xmlns:xlink="http://www.w3.org/1999/xlink" x="0px" y="0px"
	 viewBox="0 0 512 512" style="enable-background:new 0 0 512 512;" xml:space="preserve">
<path style="fill:#E4EAF8;" d="M384.267,418.472H230.347c-23.613,0-42.756-19.143-42.756-42.756V213.244h196.676V418.472z"/>
<path style="fill:#FFC850;" d="M486.881,392.818H230.347c-9.446,0-17.102-7.656-17.102-17.102V33.67
	c0-9.446,7.656-17.102,17.102-17.102h256.534c9.446,0,17.102,7.656,17.102,17.102v342.046
	C503.983,385.161,496.326,392.818,486.881,392.818z"/>
<path style="fill:#FEA82F;" d="M230.347,392.818h17.102V16.568h-17.102c-9.446,0-17.102,7.656-17.102,17.102v342.046
	C213.244,385.161,220.901,392.818,230.347,392.818z"/>
<g>
	<circle style="fill:#48C397;" cx="153.386" cy="444.125" r="17.102"/>
	<circle style="fill:#48C397;" cx="264.551" cy="444.125" r="17.102"/>
</g>
<path style="fill:#92E0C0;" d="M25.119,179.04h17.102v34.205H8.017v-17.102C8.017,186.696,15.674,179.04,25.119,179.04z"/>
<g>
	<rect x="42.221" y="179.04" style="fill:#ABFFDB;" width="171.023" height="34.205"/>
	<path style="fill:#ABFFDB;" d="M324.409,93.528l-21.378-17.102l-21.378,17.102v-76.96c0-4.722,3.829-8.551,8.551-8.551h25.653
		c4.722,0,8.551,3.829,8.551,8.551V93.528z"/>
</g>
<rect x="187.591" y="179.04" style="fill:#92E0C0;" width="25.653" height="34.205"/>
<path style="fill:#FFFFFF;" d="M428.361,122.998c-4.243-3.159-9.584-4.097-14.65-2.577l-62.315,18.695
	c-10.707,3.212-17.901,12.881-17.901,24.06v21.368c0,0.024,0,0.047,0,0.071v57.575c-4.012-1.757-8.551-2.757-13.361-2.757
	c-16.209,0-29.395,11.268-29.395,25.119c0,13.851,13.186,25.119,29.395,25.119c16.209,0,29.395-11.268,29.395-25.119v-73.932
	l69.478-20.843v46.76c-4.012-1.757-8.551-2.757-13.361-2.757c-16.209,0-29.395,11.268-29.395,25.119
	c0,13.851,13.186,25.119,29.395,25.119s29.395-11.268,29.395-25.119v-79.785c0-0.024,0-0.047,0-0.071v-22.752
	C435.04,131,432.606,126.155,428.361,122.998z"/>
<path style="fill:#92E0C0;" d="M96.645,264.283c-3.656-9.749-13.108-16.3-23.52-16.3H59.324c-4.427,0-8.017,3.589-8.017,8.017
	c0,4.427,3.589,8.017,8.017,8.017h13.802c3.766,0,7.185,2.369,8.507,5.895l38.822,103.527c1.631,4.349,3.954,8.315,6.806,11.803
	l-8.486,21.214c-2.573,6.43-1.79,13.693,2.093,19.427c2.411,3.563,5.816,6.231,9.709,7.743c-1.478,3.198-2.309,6.753-2.309,10.501
	c0,13.851,11.268,25.119,25.119,25.119c13.851,0,25.119-11.268,25.119-25.119c0-3.203-0.609-6.266-1.707-9.086h64.342
	c-1.098,2.82-1.707,5.882-1.707,9.086c0,13.851,11.268,25.119,25.119,25.119c13.851,0,25.119-11.268,25.119-25.119
	c0-3.203-0.609-6.266-1.707-9.086h10.792c4.427,0,8.017-3.589,8.017-8.017s-3.589-8.017-8.017-8.017H138.128
	c-2.303,0-3.553-1.478-3.984-2.113c-0.43-0.636-1.338-2.344-0.483-4.484l6.605-16.511c5.952,3.16,12.678,4.927,19.664,4.936
	c0.016,0,0.032,0.002,0.048,0.002c0.004,0,0.01-0.001,0.014-0.001h69.349l-17.061-16.033h-17.313l-7.215-86.58h30.303v-16.033
	H103.36L96.645,264.283z M264.551,435.04c5.01,0,9.086,4.076,9.086,9.086s-4.076,9.086-9.086,9.086c-5.01,0-9.086-4.076-9.086-9.086
	S259.541,435.04,264.551,435.04z M153.386,435.04c5.01,0,9.086,4.076,9.086,9.086s-4.076,9.086-9.086,9.086
	c-5.01,0-9.086-4.076-9.086-9.086S148.376,435.04,153.386,435.04z M171.663,298.221l7.215,86.58h-11.971l-12.785-86.58H171.663z
	 M137.915,298.221l12.515,84.748c-6.771-2.677-12.32-8.114-14.963-15.161l-26.094-69.587H137.915z"/>
<path style="fill:#474D54;" d="M486.881,8.551H330.347C327.518,3.458,322.086,0,315.858,0h-25.653
	c-6.228,0-11.659,3.458-14.489,8.551h-45.369c-13.851,0-25.119,11.268-25.119,25.119v137.353H25.119
	C11.268,171.023,0,182.291,0,196.142v290.739C0,500.732,11.268,512,25.119,512h342.046c13.851,0,25.119-11.268,25.119-25.119
	v-86.046h94.597c13.851,0,25.119-11.268,25.119-25.119V33.67C512,19.819,500.732,8.551,486.881,8.551z M289.67,16.568
	c0-0.295,0.239-0.534,0.534-0.534h25.653c0.293,0,0.531,0.237,0.533,0.53v0.004c0,0.006,0.001,0.014,0.001,0.021v60.26l-8.353-6.683
	c-1.464-1.172-3.236-1.757-5.008-1.757s-3.543,0.586-5.008,1.757l-8.353,6.683V16.568z M16.033,205.228v-9.086
	c0-5.01,4.076-9.086,9.086-9.086h9.086h16.033h154.99v188.66c0,3.203,0.609,6.266,1.707,9.086l0.118,0.325
	c2.766,7.675,9.082,13.53,16.944,15.708h152.254v86.046c0,5.017-4.068,9.086-9.086,9.086H25.119c-5.017,0-9.086-4.068-9.086-9.086
	v-265.62V205.228z M495.967,375.716c0,5.01-4.076,9.086-9.086,9.086H230.347c-5.01,0-9.086-4.076-9.086-9.086V33.67
	c0-5.01,4.076-9.086,9.086-9.086h43.29v68.944c0,3.082,1.766,5.891,4.544,7.226c2.778,1.335,6.075,0.96,8.481-0.965l16.37-13.097
	l16.37,13.096c1.449,1.16,3.222,1.757,5.009,1.757c1.18,0,2.368-0.261,3.472-0.791c2.778-1.335,4.544-4.144,4.544-7.226V24.585
	h154.455c5.01,0,9.086,4.076,9.086,9.086V375.716z"/>
<g>
</g>
<g>
</g>
<g>
</g>
<g>
</g>
<g>
</g>
<g>
</g>
<g>
</g>
<g>
</g>
<g>
</g>
<g>
</g>
<g>
</g>
<g>
</g>
<g>
</g>
<g>
</g>
<g>
</g>
</svg>
