<?xml version="1.0" encoding="iso-8859-1"?>
<!-- Generator: Adobe Illustrator 19.0.0, SVG Export Plug-In . SVG Version: 6.00 Build 0)  -->
<svg version="1.1" id="Capa_1" xmlns="http://www.w3.org/2000/svg" xmlns:xlink="http://www.w3.org/1999/xlink" x="0px" y="0px"
	 viewBox="0 0 512 512" style="enable-background:new 0 0 512 512;" xml:space="preserve">
<path style="fill:#FFC850;" d="M264.551,213.244H25.119c-9.446,0-17.102-7.656-17.102-17.102V25.119
	c0-9.446,7.656-17.102,17.102-17.102h239.432c9.446,0,17.102,7.656,17.102,17.102v171.023
	C281.653,205.588,273.997,213.244,264.551,213.244z"/>
<g>
	<path style="fill:#ABFFDB;" d="M273.102,452.676H256c-14.168,0-25.653-11.485-25.653-25.653v-34.205
		c0-14.168,11.485-25.653,25.653-25.653h17.102c4.722,0,8.551,3.829,8.551,8.551v68.409
		C281.653,448.848,277.825,452.676,273.102,452.676z"/>
	<path style="fill:#ABFFDB;" d="M478.33,452.676h-17.102c-4.722,0-8.551-3.829-8.551-8.551v-68.409c0-4.722,3.829-8.551,8.551-8.551
		h17.102c14.168,0,25.653,11.485,25.653,25.653v34.205C503.983,441.191,492.498,452.676,478.33,452.676z"/>
</g>
<path style="fill:#FFFFFF;" d="M196.142,42.221H93.528c-18.891,0-34.205,15.314-34.205,34.205v68.409
	c0,18.891,15.314,34.205,34.205,34.205h102.614c18.891,0,34.205-15.314,34.205-34.205V76.426
	C230.347,57.535,215.033,42.221,196.142,42.221z M172.294,118.278l-40.737,20.369c-5.685,2.843-12.376-1.291-12.376-7.648V90.262
	c0-6.357,6.689-10.491,12.376-7.649l40.737,20.369C178.596,106.133,178.596,115.127,172.294,118.278z"/>
<path style="fill:#474D54;" d="M494.898,363.524v-13.462c0-70.433-57.3-127.733-127.733-127.733s-127.733,57.3-127.733,127.733
	v13.462c-10.2,5.792-17.102,16.748-17.102,29.294v34.205c0,12.546,6.902,23.502,17.102,29.294v22.013
	c0,9.725-7.912,17.637-17.637,17.637c-9.725,0-17.637-7.912-17.637-17.637V290.205c0-18.566-15.105-33.67-33.67-33.67
	s-33.67,15.105-33.67,33.67v51.307c0,9.725-7.912,17.637-17.637,17.637s-17.637-7.912-17.637-17.637V221.261h163.006
	c13.851,0,25.119-11.268,25.119-25.119V25.119C289.67,11.268,278.402,0,264.551,0H25.119C11.268,0,0,11.268,0,25.119v171.023
	c0,13.851,11.268,25.119,25.119,25.119h60.392v120.251c0,18.566,15.105,33.67,33.67,33.67s33.67-15.105,33.67-33.67v-51.307
	c0-9.725,7.912-17.637,17.637-17.637c9.725,0,17.637,7.912,17.637,17.637V478.33c0,18.566,15.105,33.67,33.67,33.67
	s33.67-15.105,33.67-33.67v-17.651c0.179,0.003,0.355,0.014,0.534,0.014h17.102c9.136,0,16.568-7.432,16.568-16.568v-68.409
	c0-9.136-7.432-16.568-16.568-16.568H256c-0.18,0-0.356,0.011-0.534,0.014v-9.099c0-61.592,50.108-111.699,111.699-111.699
	s111.699,50.108,111.699,111.699v9.099c-0.178-0.003-0.355-0.014-0.534-0.014h-17.102c-9.136,0-16.568,7.432-16.568,16.568v68.409
	c0,9.136,7.432,16.568,16.568,16.568h17.102c18.566,0,33.67-15.105,33.67-33.67v-34.205
	C512,380.273,505.098,369.317,494.898,363.524z M16.033,196.142V25.119c0-5.01,4.076-9.086,9.086-9.086h239.432
	c5.01,0,9.086,4.076,9.086,9.086v171.023c0,5.01-4.076,9.086-9.086,9.086H25.119C20.109,205.228,16.033,201.152,16.033,196.142z
	 M273.102,375.182c0.295,0,0.534,0.239,0.534,0.534v68.409c0,0.295-0.239,0.534-0.534,0.534H256
	c-9.725,0-17.637-7.912-17.637-17.637v-34.205c0-9.725,7.912-17.637,17.637-17.637H273.102z M495.967,427.023
	c0,9.725-7.912,17.637-17.637,17.637h-17.102c-0.295,0-0.534-0.239-0.534-0.534v-68.409c0-0.295,0.239-0.534,0.534-0.534h17.102
	c9.725,0,17.637,7.912,17.637,17.637V427.023z"/>
<g>
</g>
<g>
</g>
<g>
</g>
<g>
</g>
<g>
</g>
<g>
</g>
<g>
</g>
<g>
</g>
<g>
</g>
<g>
</g>
<g>
</g>
<g>
</g>
<g>
</g>
<g>
</g>
<g>
</g>
</svg>
