<?xml version="1.0" encoding="iso-8859-1"?>
<!-- Generator: Adobe Illustrator 19.0.0, SVG Export Plug-In . SVG Version: 6.00 Build 0)  -->
<svg version="1.1" id="Capa_1" xmlns="http://www.w3.org/2000/svg" xmlns:xlink="http://www.w3.org/1999/xlink" x="0px" y="0px"
	 viewBox="0 0 512 512" style="enable-background:new 0 0 512 512;" xml:space="preserve">
<path style="fill:#FFC850;" d="M315.858,8.017H196.142c-4.722,0-8.551,3.829-8.551,8.551v128.267h136.818V16.568
	C324.409,11.845,320.58,8.017,315.858,8.017z"/>
<path style="fill:#FFFFFF;" d="M350.063,144.835H161.937c-4.722,0-8.551,3.829-8.551,8.551V401.37
	c0,56.672,45.942,102.614,102.614,102.614l0,0c56.672,0,102.614-45.942,102.614-102.614V153.386
	C358.614,148.664,354.785,144.835,350.063,144.835z"/>
<path style="fill:#92E0C0;" d="M213.244,307.307v42.756c0,4.722,3.829,8.551,8.551,8.551h68.409c4.722,0,8.551-3.829,8.551-8.551
	v-42.756H213.244z"/>
<g>
	<path style="fill:#FFFFFF;" d="M221.795,34.205c-4.427,0-8.017,3.589-8.017,8.017v25.653c0,4.427,3.589,8.017,8.017,8.017
		s8.017-3.589,8.017-8.017V42.221C229.812,37.794,226.223,34.205,221.795,34.205z"/>
	<path style="fill:#FFFFFF;" d="M290.205,34.205c-4.427,0-8.017,3.589-8.017,8.017v25.653c0,4.427,3.589,8.017,8.017,8.017
		c4.427,0,8.017-3.589,8.017-8.017V42.221C298.221,37.794,294.632,34.205,290.205,34.205z"/>
</g>
<path style="fill:#474D54;" d="M350.063,136.818h-17.637V16.568C332.426,7.432,324.994,0,315.858,0H196.142
	c-9.136,0-16.568,7.432-16.568,16.568v120.251h-17.637c-9.136,0-16.568,7.432-16.568,16.568V401.37
	C145.37,462.371,194.998,512,256,512s110.63-49.629,110.63-110.63V153.386C366.63,144.25,359.198,136.818,350.063,136.818z
	 M195.608,16.568c0-0.295,0.239-0.534,0.534-0.534h119.716c0.295,0,0.534,0.239,0.534,0.534v120.251H195.608V16.568z
	 M350.597,401.37c0,52.161-42.436,94.597-94.597,94.597s-94.597-42.436-94.597-94.597V153.386c0-0.295,0.239-0.534,0.534-0.534
	h188.125c0.295,0,0.534,0.239,0.534,0.534V401.37z"/>
<g>
	<circle style="fill:#FFC850;" cx="324.409" cy="375.716" r="8.017"/>
	<path style="fill:#FFC850;" d="M316.392,298.756v51.307c0,4.427,3.589,8.017,8.017,8.017c4.427,0,8.017-3.589,8.017-8.017v-51.307
		H316.392z"/>
	<path style="fill:#FFC850;" d="M187.591,187.056h136.818c4.427,0,8.017-3.589,8.017-8.017s-3.589-8.017-8.017-8.017H187.591
		c-4.427,0-8.017,3.589-8.017,8.017S183.163,187.056,187.591,187.056z"/>
</g>
<polygon style="fill:#ABFFDB;" points="256,273.102 179.04,298.756 256,324.409 332.96,298.756 "/>
<g>
</g>
<g>
</g>
<g>
</g>
<g>
</g>
<g>
</g>
<g>
</g>
<g>
</g>
<g>
</g>
<g>
</g>
<g>
</g>
<g>
</g>
<g>
</g>
<g>
</g>
<g>
</g>
<g>
</g>
</svg>
