<?xml version="1.0" encoding="iso-8859-1"?>
<!-- Generator: Adobe Illustrator 19.0.0, SVG Export Plug-In . SVG Version: 6.00 Build 0)  -->
<svg version="1.1" id="Capa_1" xmlns="http://www.w3.org/2000/svg" xmlns:xlink="http://www.w3.org/1999/xlink" x="0px" y="0px"
	 viewBox="0 0 512 512" style="enable-background:new 0 0 512 512;" xml:space="preserve">
<path style="fill:#ABFFDB;" d="M34.834,362.16c-9.772,0-17.693-7.921-17.693-17.693V25.987c0-9.772,7.921-17.693,17.693-17.693
	h442.333c9.772,0,17.693,7.921,17.693,17.693v318.479c0,9.772-7.921,17.693-17.693,17.693H34.834z"/>
<path style="fill:#FFC850;" d="M432.933,247.153l-26.54,17.693v17.693h26.54c4.886,0,8.847,3.961,8.847,8.847l0,0h26.54v-17.693
	l-26.54-26.54H432.933z"/>
<path style="fill:#92E0C0;" d="M336.121,300.48c-1.658-0.166-3.301-0.247-4.924-0.247c-4.787,0-9.416,0.696-13.789,1.989
	c-7.088-5.81-15.842-9.621-25.52-10.589c-1.658-0.166-3.301-0.247-4.924-0.247c-4.742,0-9.38,0.673-13.804,1.975
	c-7.086-5.802-15.833-9.607-25.504-10.575c-0.167-0.017-0.334-0.032-0.501-0.048v-74.135c0-25.821-18.801-47.175-43.732-49.671
	c-1.658-0.166-3.301-0.247-4.923-0.247c-0.001,0-0.001,0-0.001,0c-12.997,0-25.216,5.06-34.406,14.251
	c-9.191,9.191-14.251,21.409-14.251,34.406V362.16h230.013v-12.009C379.853,324.329,361.052,302.976,336.121,300.48z"/>
<g>
	<path style="fill:#FFC850;" d="M149.84,123.3h-17.693v4.423c0,7.328-5.942,13.27-13.27,13.27c-7.328,0-13.27-5.942-13.27-13.27
		V96.76v-8.847H17.14V123.3h13.786c7.617,0,14.378,4.873,16.787,12.098l17.637,52.91c3.012,9.036,10.634,15.764,19.974,17.632
		l11.437,2.288v-14.155c0-4.886,3.961-8.847,8.847-8.847H123.3l30.204-30.205c3.319-3.319,5.183-7.819,5.183-12.511v-10.364
		C158.687,127.261,154.726,123.3,149.84,123.3z"/>
	<path style="fill:#FFC850;" d="M140.994,211.767H123.3v44.234c9.771-0.001,17.693,7.919,17.693,17.692v53.08l35.387-53.08V229.46
		L140.994,211.767z"/>
</g>
<polygon style="fill:#FEA82F;" points="149.84,313.503 176.38,273.693 176.38,229.46 149.84,216.19 "/>
<path style="fill:#FFC850;" d="M445.444,87.914c-2.347,0-4.597-0.932-6.256-2.591l-12.51-12.51c-1.66-1.66-3.91-2.592-6.258-2.592
	h-22.874c-4.886,0-8.847-3.961-8.847-8.847v-8.847h-17.693l-97.313,53.08v26.54h-8.847c-9.772,0-17.693,7.921-17.693,17.693v8.847
	h26.54c4.886,0,8.847,3.961,8.847,8.847v17.693h-53.08c-4.886,0-8.847,3.961-8.847,8.847v35.387h17.693
	c9.772,0,17.693,7.921,17.693,17.693v33.956c18.404,5.97,35.387-7.586,35.387-25.109v-17.693l26.54-44.233h26.54v26.54l26.54-26.54
	l17.693,17.693l17.693-26.54c0-9.652,7.729-17.499,17.334-17.69c9.804-0.195,18.053-7.182,18.053-16.989v-9.554
	c0-4.886,3.961-8.847,8.847-8.847h44.233V87.914H445.444z"/>
<path style="fill:#FEA82F;" d="M247.153,231.914v-23.31c0-8.477-2.188-16.373-5.792-23.377H229.46c-4.886,0-8.847,3.961-8.847,8.847
	v35.387h17.693C241.547,229.46,244.542,230.394,247.153,231.914z"/>
<path style="fill:#FFFFFF;" d="M353.313,415.24v-65.089c0-11.569-8.325-22.111-19.836-23.263
	c-13.239-1.325-24.397,9.036-24.397,22.002v-7.586c0-11.569-8.325-22.111-19.836-23.263c-13.239-1.325-24.397,9.036-24.397,22.002
	v-7.586c0-11.569-8.325-22.111-19.836-23.263c-13.239-1.325-24.397,9.036-24.397,22.002V208.601
	c0-11.569-8.325-22.111-19.836-23.263c-13.239-1.325-24.397,9.036-24.397,22.002v207.896c0,48.859,39.608,88.467,88.467,88.467l0,0
	C313.706,503.706,353.313,464.099,353.313,415.24z"/>
<g>
	<path style="fill:#E4EAF8;" d="M256,313.603c-4.409-3.332-10.031-5.139-16.164-4.333c-10.693,1.405-19.223,12.698-19.223,23.483
		v7.289c0,7.328,5.942,13.27,13.27,13.27l0,0c7.328,0,13.27-5.942,13.27-13.27v-8.847C247.153,323.984,250.659,317.64,256,313.603z"
		/>
	<path style="fill:#E4EAF8;" d="M300.233,322.449c-4.409-3.332-10.031-5.139-16.164-4.333
		c-10.693,1.406-19.223,12.698-19.223,23.483v7.289c0,7.328,5.942,13.27,13.27,13.27l0,0c7.328,0,13.27-5.942,13.27-13.27v-8.847
		C291.387,332.831,294.892,326.487,300.233,322.449z"/>
	<path style="fill:#E4EAF8;" d="M344.467,331.296c-4.409-3.332-10.031-5.139-16.164-4.333
		c-10.693,1.406-19.223,12.698-19.223,23.483v7.289c0,7.328,5.942,13.27,13.27,13.27l0,0c7.328,0,13.27-5.942,13.27-13.27v-8.847
		C335.62,341.678,339.125,335.333,344.467,331.296z"/>
	<path style="fill:#E4EAF8;" d="M202.92,415.24V207.343c0-7.164,3.476-13.445,8.756-17.487c-3.073-2.445-6.768-4.103-10.898-4.516
		c-13.239-1.325-24.398,9.035-24.398,22.002v207.896c0,48.859,39.608,88.467,88.467,88.467c4.523,0,8.931-0.447,13.27-1.101
		C235.57,496.187,202.92,459.576,202.92,415.24z"/>
</g>
<path style="fill:#474D54;" d="M477.166,0H34.834C20.504,0,8.847,11.658,8.847,25.987v318.479c0,14.329,11.658,25.987,25.987,25.987
	h133.253v44.786c0,53.354,43.406,96.76,96.76,96.76s96.76-43.406,96.76-96.76v-44.786h115.559c14.329,0,25.987-11.658,25.987-25.987
	V25.987C503.153,11.658,491.496,0,477.166,0z M345.019,415.24c0,44.208-35.965,80.173-80.173,80.173s-80.173-35.965-80.173-80.173
	V207.343c0-3.898,1.659-7.636,4.553-10.254c2.572-2.327,5.82-3.569,9.268-3.569c0.482,0,0.968,0.024,1.456,0.073
	c6.936,0.693,12.369,7.287,12.369,15.011v122.592c0,4.58,3.713,8.294,8.294,8.294s8.294-3.713,8.294-8.294
	c0-3.898,1.659-7.636,4.553-10.254c2.932-2.652,6.737-3.898,10.724-3.496c6.936,0.693,12.369,7.287,12.369,15.011v7.586
	c0,4.58,3.713,8.294,8.294,8.294s8.294-3.713,8.294-8.294c0-3.898,1.659-7.636,4.553-10.254c2.932-2.653,6.738-3.897,10.724-3.496
	c6.936,0.693,12.369,7.287,12.369,15.011v7.586c0,4.58,3.713,8.294,8.294,8.294s8.294-3.713,8.294-8.294
	c0-3.898,1.659-7.636,4.553-10.254c2.932-2.652,6.736-3.896,10.724-3.496c6.936,0.693,12.369,7.287,12.369,15.011V415.24z
	 M168.086,301.086v52.78H34.834c-5.191,0-9.4-4.209-9.4-9.4V131.594v-16.587V96.207V79.62V25.987c0-5.191,4.209-9.4,9.4-9.4h442.333
	c5.191,0,9.4,4.209,9.4,9.4V79.62v16.587v27.646v16.587v204.026c0,5.191-4.209,9.4-9.4,9.4H361.607v-3.716
	c0-16.14-11.993-29.982-27.303-31.516c-7.713-0.77-15.414,1.418-21.511,6.046c-4.857-8.15-13.139-13.932-22.723-14.892
	c-7.714-0.772-15.414,1.418-21.511,6.046c-4.857-8.15-13.139-13.932-22.723-14.892c-5.886-0.588-11.765,0.546-16.93,3.175v-66.362
	v-16.587v-11.9c0-9.659-4.15-18.853-11.393-25.243l-1.135-1.001c-4.235-3.249-9.29-5.385-14.775-5.934
	c-8.581-0.855-17.148,1.948-23.507,7.701c-6.362,5.757-10.011,13.978-10.011,22.553v8.697v18.545v36.596V301.086z"/>
<g>
	<path style="fill:#FFC850;" d="M220.613,149.287c4.58,0,8.294-3.713,8.294-8.294v-8.847c0-4.58-3.713-8.294-8.294-8.294
		s-8.294,3.713-8.294,8.294v8.847C212.32,145.574,216.033,149.287,220.613,149.287z"/>
	<path style="fill:#FFC850;" d="M61.374,69.667h17.693c4.58,0,8.294-3.713,8.294-8.294s-3.713-8.294-8.294-8.294H61.374
		c-4.58,0-8.294,3.713-8.294,8.294S56.793,69.667,61.374,69.667z"/>
	<path style="fill:#FFC850;" d="M317.927,247.706c-4.58,0-8.294,3.713-8.294,8.294v8.847c0,4.58,3.713,8.294,8.294,8.294
		s8.294-3.713,8.294-8.294V256C326.22,251.42,322.507,247.706,317.927,247.706z"/>
	<path style="fill:#FFC850;" d="M405.84,238.307c0-4.58-3.713-8.294-8.294-8.294h-6.888l-15.943-7.971
		c-4.097-2.049-9.078-0.388-11.127,3.709s-0.388,9.079,3.709,11.127l17.693,8.847c1.152,0.576,2.421,0.876,3.709,0.876h8.847
		C402.127,246.6,405.84,242.887,405.84,238.307z"/>
	<path style="fill:#FFC850;" d="M424.086,228.907c4.58,0,8.294-3.713,8.294-8.294v-8.847c0-4.58-3.713-8.294-8.294-8.294
		s-8.294,3.713-8.294,8.294v8.847C415.793,225.194,419.506,228.907,424.086,228.907z"/>
	<path style="fill:#FFC850;" d="M309.08,69.667c2.122,0,4.245-0.809,5.864-2.43l8.847-8.847c3.239-3.239,3.239-8.491,0-11.728
		c-3.239-3.239-8.491-3.239-11.728,0l-8.847,8.847c-3.239,3.239-3.239,8.491,0,11.728C304.835,68.858,306.958,69.667,309.08,69.667z
		"/>
	<path style="fill:#FFC850;" d="M135.129,93.778c1.619,1.62,3.742,2.43,5.864,2.43c2.122,0,4.245-0.809,5.864-2.43
		c3.239-3.239,3.239-8.491,0-11.728l-8.847-8.847c-3.239-3.239-8.491-3.239-11.728,0c-3.239,3.239-3.239,8.491,0,11.728
		L135.129,93.778z"/>
	<circle style="fill:#FFC850;" cx="105.607" cy="52.527" r="8.294"/>
</g>
<g>
</g>
<g>
</g>
<g>
</g>
<g>
</g>
<g>
</g>
<g>
</g>
<g>
</g>
<g>
</g>
<g>
</g>
<g>
</g>
<g>
</g>
<g>
</g>
<g>
</g>
<g>
</g>
<g>
</g>
</svg>
