<?xml version="1.0" encoding="iso-8859-1"?>
<!-- Generator: Adobe Illustrator 19.0.0, SVG Export Plug-In . SVG Version: 6.00 Build 0)  -->
<svg version="1.1" id="Capa_1" xmlns="http://www.w3.org/2000/svg" xmlns:xlink="http://www.w3.org/1999/xlink" x="0px" y="0px"
	 viewBox="0 0 512 512" style="enable-background:new 0 0 512 512;" xml:space="preserve">
<path style="fill:#FFFFFF;" d="M486.881,435.574H25.119c-9.446,0-17.102-7.656-17.102-17.102V93.528
	c0-9.446,7.656-17.102,17.102-17.102h461.762c9.446,0,17.102,7.656,17.102,17.102v324.944
	C503.983,427.918,496.327,435.574,486.881,435.574z"/>
<path style="fill:#ABFFDB;" d="M503.983,144.835H8.017V93.528c0-9.446,7.656-17.102,17.102-17.102h461.762
	c9.446,0,17.102,7.656,17.102,17.102V144.835z"/>
<path style="fill:#474D54;" d="M486.881,68.409H25.119C11.268,68.409,0,79.677,0,93.528v324.944
	c0,13.851,11.268,25.119,25.119,25.119h461.762c13.851,0,25.119-11.268,25.119-25.119V93.528
	C512,79.677,500.732,68.409,486.881,68.409z M495.967,418.472c0,5.01-4.076,9.086-9.086,9.086H25.119
	c-5.01,0-9.086-4.076-9.086-9.086V93.528c0-5.01,4.076-9.086,9.086-9.086h461.762c5.01,0,9.086,4.076,9.086,9.086V418.472z"/>
<g>
	<path style="fill:#48C397;" d="M42.221,118.647h68.409c4.427,0,8.017-3.589,8.017-8.017c0-4.427-3.589-8.017-8.017-8.017H42.221
		c-4.427,0-8.017,3.589-8.017,8.017C34.205,115.058,37.794,118.647,42.221,118.647z"/>
	<path style="fill:#48C397;" d="M273.102,118.647h34.205c4.427,0,8.017-3.589,8.017-8.017c0-4.427-3.589-8.017-8.017-8.017h-34.205
		c-4.427,0-8.017,3.589-8.017,8.017C265.086,115.058,268.675,118.647,273.102,118.647z"/>
	<path style="fill:#48C397;" d="M341.511,118.647h34.205c4.427,0,8.017-3.589,8.017-8.017c0-4.427-3.589-8.017-8.017-8.017h-34.205
		c-4.427,0-8.017,3.589-8.017,8.017C333.495,115.058,337.084,118.647,341.511,118.647z"/>
	<path style="fill:#48C397;" d="M409.921,118.647h59.858c4.427,0,8.017-3.589,8.017-8.017c0-4.427-3.589-8.017-8.017-8.017h-59.858
		c-4.427,0-8.017,3.589-8.017,8.017C401.904,115.058,405.493,118.647,409.921,118.647z"/>
	<path style="fill:#48C397;" d="M144.835,118.647h8.551c4.427,0,8.017-3.589,8.017-8.017c0-4.427-3.589-8.017-8.017-8.017h-8.551
		c-4.427,0-8.017,3.589-8.017,8.017C136.818,115.058,140.408,118.647,144.835,118.647z"/>
	<path style="fill:#48C397;" d="M230.347,118.647h8.551c4.427,0,8.017-3.589,8.017-8.017c0-4.427-3.589-8.017-8.017-8.017h-8.551
		c-4.427,0-8.017,3.589-8.017,8.017C222.33,115.058,225.919,118.647,230.347,118.647z"/>
	<path style="fill:#48C397;" d="M187.591,118.647h8.551c4.427,0,8.017-3.589,8.017-8.017c0-4.427-3.589-8.017-8.017-8.017h-8.551
		c-4.427,0-8.017,3.589-8.017,8.017C179.574,115.058,183.163,118.647,187.591,118.647z"/>
</g>
<g>
	<path style="fill:#C3C8D1;" d="M59.324,195.608h153.921c4.427,0,8.017-3.589,8.017-8.017s-3.589-8.017-8.017-8.017H59.324
		c-4.427,0-8.017,3.589-8.017,8.017S54.896,195.608,59.324,195.608z"/>
	<path style="fill:#C3C8D1;" d="M59.324,264.017h128.267c4.427,0,8.017-3.589,8.017-8.017c0-4.427-3.589-8.017-8.017-8.017H59.324
		c-4.427,0-8.017,3.589-8.017,8.017C51.307,260.427,54.896,264.017,59.324,264.017z"/>
	<path style="fill:#C3C8D1;" d="M59.324,229.812h85.511c4.427,0,8.017-3.589,8.017-8.017s-3.589-8.017-8.017-8.017H59.324
		c-4.427,0-8.017,3.589-8.017,8.017S54.896,229.812,59.324,229.812z"/>
	<path style="fill:#C3C8D1;" d="M315.858,179.574h-68.409c-4.427,0-8.017,3.589-8.017,8.017s3.589,8.017,8.017,8.017h68.409
		c4.427,0,8.017-3.589,8.017-8.017S320.285,179.574,315.858,179.574z"/>
	<path style="fill:#C3C8D1;" d="M306.772,221.795c0-4.427-3.589-8.017-8.017-8.017H179.04c-4.427,0-8.017,3.589-8.017,8.017
		s3.589,8.017,8.017,8.017h119.716C303.183,229.812,306.772,226.223,306.772,221.795z"/>
	<path style="fill:#C3C8D1;" d="M221.795,247.983c-4.427,0-8.017,3.589-8.017,8.017c0,4.427,3.589,8.017,8.017,8.017h42.756
		c4.427,0,8.017-3.589,8.017-8.017c0-4.427-3.589-8.017-8.017-8.017H221.795z"/>
	<path style="fill:#C3C8D1;" d="M452.676,213.779H332.96c-4.427,0-8.017,3.589-8.017,8.017s3.589,8.017,8.017,8.017h119.716
		c4.427,0,8.017-3.589,8.017-8.017S457.104,213.779,452.676,213.779z"/>
	<path style="fill:#C3C8D1;" d="M452.676,179.574H350.063c-4.427,0-8.017,3.589-8.017,8.017s3.589,8.017,8.017,8.017h102.614
		c4.427,0,8.017-3.589,8.017-8.017S457.104,179.574,452.676,179.574z"/>
	<path style="fill:#C3C8D1;" d="M59.324,315.324h153.921c4.427,0,8.017-3.589,8.017-8.017c0-4.427-3.589-8.017-8.017-8.017H59.324
		c-4.427,0-8.017,3.589-8.017,8.017C51.307,311.734,54.896,315.324,59.324,315.324z"/>
	<path style="fill:#C3C8D1;" d="M161.937,333.495H93.528c-4.427,0-8.017,3.589-8.017,8.017c0,4.427,3.589,8.017,8.017,8.017h68.409
		c4.427,0,8.017-3.589,8.017-8.017C169.954,337.084,166.365,333.495,161.937,333.495z"/>
	<path style="fill:#C3C8D1;" d="M315.858,299.29h-68.409c-4.427,0-8.017,3.589-8.017,8.017c0,4.427,3.589,8.017,8.017,8.017h68.409
		c4.427,0,8.017-3.589,8.017-8.017C323.875,302.88,320.285,299.29,315.858,299.29z"/>
	<path style="fill:#C3C8D1;" d="M298.756,333.495H196.142c-4.427,0-8.017,3.589-8.017,8.017c0,4.427,3.589,8.017,8.017,8.017
		h102.614c4.427,0,8.017-3.589,8.017-8.017C306.772,337.084,303.183,333.495,298.756,333.495z"/>
	<path style="fill:#C3C8D1;" d="M452.676,333.495H332.96c-4.427,0-8.017,3.589-8.017,8.017c0,4.427,3.589,8.017,8.017,8.017h119.716
		c4.427,0,8.017-3.589,8.017-8.017C460.693,337.084,457.104,333.495,452.676,333.495z"/>
	<path style="fill:#C3C8D1;" d="M452.676,299.29H350.063c-4.427,0-8.017,3.589-8.017,8.017c0,4.427,3.589,8.017,8.017,8.017h102.614
		c4.427,0,8.017-3.589,8.017-8.017C460.693,302.88,457.104,299.29,452.676,299.29z"/>
</g>
<path style="fill:#FFC850;" d="M59.324,333.495c-4.427,0-8.017,3.589-8.017,8.017v51.307c0,4.427,3.589,8.017,8.017,8.017
	s8.017-3.589,8.017-8.017v-51.307C67.34,337.084,63.751,333.495,59.324,333.495z"/>
<g>
</g>
<g>
</g>
<g>
</g>
<g>
</g>
<g>
</g>
<g>
</g>
<g>
</g>
<g>
</g>
<g>
</g>
<g>
</g>
<g>
</g>
<g>
</g>
<g>
</g>
<g>
</g>
<g>
</g>
</svg>
