<?xml version="1.0" encoding="iso-8859-1"?>
<!-- Generator: Adobe Illustrator 19.0.0, SVG Export Plug-In . SVG Version: 6.00 Build 0)  -->
<svg version="1.1" id="Capa_1" xmlns="http://www.w3.org/2000/svg" xmlns:xlink="http://www.w3.org/1999/xlink" x="0px" y="0px"
	 viewBox="0 0 512 512" style="enable-background:new 0 0 512 512;" xml:space="preserve">
<path style="fill:#ABFFDB;" d="M290.205,173.351v45.204c15.933,18.056,25.653,41.707,25.653,67.642
	c0,25.937-9.722,49.6-25.653,67.673v45.151c36.05-24.658,59.858-65.948,59.858-112.824
	C350.063,239.307,326.278,197.978,290.205,173.351z"/>
<path style="fill:#48C397;" d="M204.693,234.889v35.629c0,3.936,3.829,7.126,8.551,7.126h17.102c4.722,0,8.551-3.191,8.551-7.126
	v-35.629H204.693z"/>
<path style="fill:#92E0C0;" d="M290.205,234.889h-51.307V166.48h51.307c4.722,0,8.551,3.829,8.551,8.551v51.307
	C298.756,231.061,294.927,234.889,290.205,234.889z"/>
<path style="fill:#ABFFDB;" d="M170.489,354.605h111.165c4.722,0,8.551-3.829,8.551-8.551v-17.102c0-4.722-3.829-8.551-8.551-8.551
	H170.489c-4.722,0-8.551,3.829-8.551,8.551v17.102C161.937,350.777,165.766,354.605,170.489,354.605z"/>
<circle style="fill:#48C397;" cx="298.756" cy="183.582" r="25.653"/>
<path style="fill:#ABFFDB;" d="M358.614,440.117H153.386c-4.722,0-8.551,3.829-8.551,8.551v17.102h222.33v-17.102
	C367.165,443.945,363.336,440.117,358.614,440.117z"/>
<g>
	<path style="fill:#92E0C0;" d="M238.898,397.361h-34.205c-4.722,0-8.551,3.829-8.551,8.551v34.205h51.307v-34.205
		C247.449,401.189,243.62,397.361,238.898,397.361z"/>
	<path style="fill:#92E0C0;" d="M320.051,368.582c-2.489-8.296-10.125-13.977-18.786-13.977c-10.831,0-19.612,8.781-19.612,19.612
		v65.899h59.858L320.051,368.582z"/>
</g>
<g>
	<path style="fill:#FFC850;" d="M33.67,474.322h42.756V132.276H33.67c-14.168,0-25.653,11.485-25.653,25.653v290.739
		C8.017,462.836,19.502,474.322,33.67,474.322z"/>
	<path style="fill:#FFC850;" d="M478.33,132.276h-42.756v342.046h42.756c14.168,0,25.653-11.485,25.653-25.653V157.929
		C503.983,143.761,492.498,132.276,478.33,132.276z"/>
</g>
<path style="fill:#474D54;" d="M136.818,466.305H84.443H68.409H33.67c-9.741,0-17.637-7.896-17.637-17.637V157.929
	c0-9.741,7.896-17.637,17.637-17.637h34.739h16.033h115.265c4.427,0,8.017-3.589,8.017-8.017l0,0c0-4.427-3.589-8.017-8.017-8.017
	H33.67c-18.596,0-33.67,15.075-33.67,33.67v290.739c0,18.596,15.075,33.67,33.67,33.67h444.66c18.596,0,33.67-15.075,33.67-33.67
	V157.929c0-18.596-15.075-33.67-33.67-33.67H244.595c-4.427,0-8.017,3.589-8.017,8.017l0,0c0,4.427,3.589,8.017,8.017,8.017h182.963
	h16.033h34.739c9.741,0,17.637,7.896,17.637,17.637v290.739c0,9.741-7.896,17.637-17.637,17.637h-34.739h-16.033h-52.376h-16.033
	H152.852H136.818z"/>
<g>
	<path style="fill:#FFFFFF;" d="M469.779,286.731c-4.427,0-8.017,3.589-8.017,8.017v17.102c0,4.427,3.589,8.017,8.017,8.017
		s8.017-3.589,8.017-8.017v-17.102C477.795,290.32,474.206,286.731,469.779,286.731z"/>
	<path style="fill:#FFFFFF;" d="M42.221,278.18c-4.427,0-8.017,3.589-8.017,8.017v34.205c0,4.427,3.589,8.017,8.017,8.017
		s8.017-3.589,8.017-8.017v-34.205C50.238,281.769,46.649,278.18,42.221,278.18z"/>
	<path style="fill:#FFFFFF;" d="M42.307,260.008c4.427,0,8.017-3.589,8.017-8.017s-3.589-8.017-8.017-8.017h-0.086
		c-4.427,0-7.974,3.589-7.974,8.017S37.879,260.008,42.307,260.008z"/>
</g>
<path style="fill:#92E0C0;" d="M238.898,38.213v76.96h-34.205v-76.96c0-4.722,3.829-8.551,8.551-8.551h17.102
	C235.069,29.662,238.898,33.491,238.898,38.213z"/>
<path style="fill:#48C397;" d="M238.898,38.213c0-4.722-3.829-8.551-8.551-8.551h-17.102c-4.722,0-8.551,3.829-8.551,8.551v25.653
	h34.205V38.213z"/>
<path style="fill:#ABFFDB;" d="M204.693,234.889h34.205c4.722,0,8.551-3.829,8.551-8.551V123.724c0-4.722-3.829-8.551-8.551-8.551
	h-34.205c-4.722,0-8.551,3.829-8.551,8.551v102.614C196.142,231.061,199.971,234.889,204.693,234.889z"/>
<g>
</g>
<g>
</g>
<g>
</g>
<g>
</g>
<g>
</g>
<g>
</g>
<g>
</g>
<g>
</g>
<g>
</g>
<g>
</g>
<g>
</g>
<g>
</g>
<g>
</g>
<g>
</g>
<g>
</g>
</svg>
