<?xml version="1.0" encoding="iso-8859-1"?>
<!-- Generator: Adobe Illustrator 19.0.0, SVG Export Plug-In . SVG Version: 6.00 Build 0)  -->
<svg version="1.1" id="Capa_1" xmlns="http://www.w3.org/2000/svg" xmlns:xlink="http://www.w3.org/1999/xlink" x="0px" y="0px"
	 viewBox="0 0 512 512" style="enable-background:new 0 0 512 512;" xml:space="preserve">
<path style="fill:#ABFFDB;" d="M469.779,435.574H42.221c-18.891,0-34.205-15.314-34.205-34.205V110.63
	c0-18.891,15.314-34.205,34.205-34.205h427.557c18.891,0,34.205,15.314,34.205,34.205V401.37
	C503.983,420.26,488.669,435.574,469.779,435.574z"/>
<path style="fill:#48C397;" d="M317.002,284.202v15.98c0,5.34-3.212,10.157-8.143,12.209l-63.644,26.491
	c-3.826,1.593-6.317,5.328-6.317,9.471l0,0c0,5.666,4.593,10.26,10.26,10.26h201.81c5.666,0,10.26-4.593,10.26-10.26l0,0
	c0-4.143-2.492-7.88-6.317-9.471l-63.648-26.494c-4.928-2.051-8.139-6.864-8.139-12.202v-15.984"/>
<path style="fill:#FFC850;" d="M350.063,110.63c-75.08,0-92.146,75.401-92.841,169.395c-0.029,3.911,2.269,7.433,5.791,9.079
	c13.267,6.2,29.634,10.991,47.947,13.839h78.203c18.314-2.848,34.68-7.639,47.948-13.839c3.522-1.646,5.82-5.168,5.791-9.079
	C442.209,186.031,425.143,110.63,350.063,110.63z"/>
<path style="fill:#FEA82F;" d="M257.222,280.026c-0.029,3.911,2.269,7.433,5.791,9.079c13.267,6.2,29.634,10.991,47.947,13.839
	h39.102V193.175c0,0-37.296,1.82-30.017,0c30.017-7.504,90.049-45.024,55.136-79.221c-7.552-2.172-15.892-3.324-25.119-3.324
	C274.982,110.63,257.917,186.031,257.222,280.026z"/>
<path style="fill:#FFFFFF;" d="M225.296,256.134l-20.603-34.338v-76.96c0-14.168-11.485-25.653-25.653-25.653H76.426
	c-14.168,0-25.653,11.485-25.653,25.653v128.267c0,14.168,11.485,25.653,25.653,25.653H179.04c14.168,0,25.653-11.485,25.653-25.653
	v-8.551h15.837C224.85,264.551,227.518,259.838,225.296,256.134z"/>
<path style="fill:#FFC850;" d="M170.489,196.142c0-26.624-24.334-47.565-51.975-41.792c-16.722,3.492-29.992,17.381-32.885,34.218
	c-3.009,17.517,4.664,33.476,17.551,42.527c4.486,3.151,7.45,8.023,7.45,13.507v2.846c0,4.722,3.829,8.551,8.551,8.551h17.102
	c4.722,0,8.551-3.829,8.551-8.551v-2.893c0-5.367,2.791-10.235,7.203-13.287C163.179,223.559,170.489,210.716,170.489,196.142z"/>
<path style="fill:#E4EAF8;" d="M350.063,332.96L350.063,332.96c-18.891,0-34.205-15.314-34.205-34.205v-17.102h68.409v17.102
	C384.267,317.646,368.953,332.96,350.063,332.96z"/>
<path style="fill:#FFFFFF;" d="M415.883,202.278l-4.867,53.536c-0.794,8.741-5.862,16.524-13.535,20.787l-34.537,19.187
	c-8.011,4.451-17.753,4.451-25.765,0l-34.537-19.187c-7.673-4.263-12.74-12.045-13.535-20.787l-4.7-51.696
	c-0.365-4.009,2.487-7.577,6.486-8.043c17.712-2.067,64.23-8.55,92.384-22.224c3.56-1.729,7.738-0.335,9.712,3.096
	c3.227,5.61,9.184,13.456,18.955,18.109C414.649,196.342,416.154,199.296,415.883,202.278z"/>
<path style="fill:#E4EAF8;" d="M411.91,195.037c-9.749-4.655-15.695-12.489-18.918-18.091c-0.441-0.767-1.024-1.394-1.655-1.945
	c-0.172-0.151-0.355-0.282-0.538-0.416c-0.543-0.394-1.128-0.713-1.744-0.947c-0.156-0.059-0.3-0.145-0.461-0.193
	c-0.745-0.226-1.529-0.313-2.315-0.292c-1.006,0.028-2.026,0.222-2.996,0.695l-0.004,0.001c-1.759,0.854-3.59,1.681-5.482,2.48
	c-7.566,3.196-16.096,5.955-24.852,8.317c-4.379,1.181-8.814,2.264-13.213,3.253c-19.797,4.452-38.875,7.012-48.837,8.174
	c-3.999,0.467-6.851,4.034-6.486,8.043l4.7,51.697c0.794,8.741,5.862,16.523,13.534,20.786l34.538,19.187
	c3.161,1.756,6.611,2.616,10.097,2.985l-12.224-30.558l-3.723-44.665c-0.361-4.331,2.566-8.193,6.824-9.068
	c14.148-2.912,28.911-6.688,42.194-11.591c5.158,5.641,11.901,11.197,20.57,15.325c3.409,1.624,5.549,2.29,13.244,2.994
	l1.721-18.932C416.156,199.282,414.625,196.333,411.91,195.037z"/>
<g>
	<path style="fill:#474D54;" d="M469.779,68.409H42.221C18.941,68.409,0,87.35,0,110.63V401.37c0,23.28,18.941,42.221,42.221,42.221
		h427.557c23.28,0,42.221-18.941,42.221-42.221V110.63C512,87.35,493.059,68.409,469.779,68.409z M495.967,401.37
		c0,14.44-11.748,26.188-26.188,26.188H42.221c-14.44,0-26.188-11.748-26.188-26.188V110.63c0-14.44,11.748-26.188,26.188-26.188
		h427.557c14.44,0,26.188,11.748,26.188,26.188V401.37z"/>
	<path style="fill:#474D54;" d="M127.733,204.159c4.427,0,8.017-3.589,8.017-8.017V179.04c0-4.427-3.589-8.017-8.017-8.017
		c-4.427,0-8.017,3.589-8.017,8.017v17.102C119.716,200.569,123.305,204.159,127.733,204.159z"/>
	<path style="fill:#474D54;" d="M127.818,213.779h-0.086c-4.427,0-7.974,3.589-7.974,8.017s3.632,8.017,8.059,8.017
		c4.427,0,8.017-3.589,8.017-8.017S132.246,213.779,127.818,213.779z"/>
</g>
<path style="fill:#FFFFFF;" d="M461.228,400.835H50.772c-4.427,0-8.017-3.589-8.017-8.017l0,0c0-4.427,3.589-8.017,8.017-8.017
	h410.455c4.427,0,8.017,3.589,8.017,8.017l0,0C469.244,397.246,465.655,400.835,461.228,400.835z"/>
<circle style="fill:#FFC850;" cx="119.182" cy="392.818" r="17.102"/>
<g>
</g>
<g>
</g>
<g>
</g>
<g>
</g>
<g>
</g>
<g>
</g>
<g>
</g>
<g>
</g>
<g>
</g>
<g>
</g>
<g>
</g>
<g>
</g>
<g>
</g>
<g>
</g>
<g>
</g>
</svg>
