<?xml version="1.0" encoding="iso-8859-1"?>
<!-- Generator: Adobe Illustrator 19.0.0, SVG Export Plug-In . SVG Version: 6.00 Build 0)  -->
<svg version="1.1" id="Capa_1" xmlns="http://www.w3.org/2000/svg" xmlns:xlink="http://www.w3.org/1999/xlink" x="0px" y="0px"
	 viewBox="0 0 512 512" style="enable-background:new 0 0 512 512;" xml:space="preserve">
<path style="fill:#FFFFFF;" d="M341.511,298.756H33.67c-14.168,0-25.653-11.485-25.653-25.653V59.324
	c0-14.168,11.485-25.653,25.653-25.653h307.841c14.168,0,25.653,11.485,25.653,25.653v213.779
	C367.165,287.27,355.68,298.756,341.511,298.756z"/>
<path style="fill:#E4EAF8;" d="M364.689,127.733h-29.252c-27.411,0-53.389,11.913-71.276,32.682
	c-17.886,20.77-25.813,48.227-21.747,75.335l9.45,63.007h89.647c14.168,0,25.653-11.485,25.653-25.653V127.866
	C366.337,127.845,365.521,127.733,364.689,127.733z"/>
<path style="fill:#FFC850;" d="M238.898,213.244H136.284c-18.891,0-34.205-15.314-34.205-34.205V110.63
	c0-18.891,15.314-34.205,34.205-34.205h102.614c18.891,0,34.205,15.314,34.205,34.205v68.409
	C273.102,197.93,257.788,213.244,238.898,213.244z"/>
<path style="fill:#92E0C0;" d="M484.552,405.063l-83.182-20.795H298.756l-83.182,20.795c-11.42,2.855-19.431,13.116-19.431,24.887
	v31.278c0,9.445,7.658,17.102,17.102,17.102h273.637c9.445,0,17.102-7.658,17.102-17.102V429.95
	C503.983,418.179,495.972,407.918,484.552,405.063z"/>
<rect x="298.756" y="324.409" style="fill:#E4EAF8;" width="102.614" height="85.511"/>
<path style="fill:#FFFFFF;" d="M374.3,361.219l34.174-28.477c6.44-5.367,10.686-12.912,11.929-21.203l11.94-79.595
	c6.204-41.361-25.829-78.557-67.652-78.557h-29.253c-41.824,0-73.856,37.196-67.652,78.557l11.94,79.595
	c1.243,8.29,5.489,15.836,11.929,21.203l34.174,28.477c4.61,3.842,10.422,5.946,16.422,5.946h15.629
	C363.878,367.165,369.69,365.061,374.3,361.219z"/>
<path style="fill:#E4EAF8;" d="M364.689,153.386h-29.252c-41.824,0-73.857,37.196-67.653,78.557l11.94,79.595
	c1.244,8.29,5.489,15.836,11.929,21.203l34.174,28.477c4.611,3.842,10.423,5.946,16.424,5.946h3.539l-15.962-31.923
	c-3.563-7.124-5.416-14.979-5.416-22.945v-67.215c4.115-0.386,8.25-0.827,12.319-1.35c1.483,2.424,3.372,4.61,5.621,6.454
	c4.625,3.792,10.385,5.815,16.264,5.815c1.675,0,3.361-0.164,5.031-0.498c4.503-0.9,40.224-8.584,69.366-30.677
	C434.781,186.412,404.096,153.386,364.689,153.386z"/>
<path style="fill:#FFFFFF;" d="M161.937,124.466v40.737c0,6.357,6.689,10.491,12.376,7.648l40.737-20.369
	c6.302-3.151,6.302-12.146,0-15.297l-40.737-20.369C168.627,113.975,161.937,118.11,161.937,124.466z"/>
<path style="fill:#ABFFDB;" d="M427.023,196.142c0,0,0.212-0.532,0.524-1.32c-10.393-24.122-34.335-41.436-62.857-41.436h-29.253
	c-38.362,0-68.395,31.311-68.332,68.409h5.999c0,0,59.858,0,85.511-8.551v11.685c0,2.806,2.608,4.857,5.322,4.149
	C376.189,225.885,406.879,216.286,427.023,196.142z"/>
<path style="fill:#92E0C0;" d="M364.689,153.386h-29.253c-38.362,0-68.395,31.311-68.332,68.409h5.999c0,0,26.249-0.016,51.433-2.5
	c1.149-31.715,23.818-57.919,53.889-64.363C373.979,154.024,369.43,153.386,364.689,153.386z"/>
<g>
	<circle style="fill:#E4EAF8;" cx="315.858" cy="273.102" r="17.102"/>
	<circle style="fill:#E4EAF8;" cx="384.267" cy="273.102" r="17.102"/>
</g>
<g>
	<path style="fill:#ABFFDB;" d="M264.551,392.818l-48.978,12.244c-11.42,2.855-19.431,13.116-19.431,24.887v31.278
		c0,9.445,7.658,17.102,17.102,17.102h76.96l-17.102-85.511H264.551z"/>
	<path style="fill:#ABFFDB;" d="M435.574,392.818l48.978,12.244c11.42,2.855,19.431,13.116,19.431,24.887v31.278
		c0,9.445-7.658,17.102-17.102,17.102h-76.96l17.102-85.511H435.574z"/>
	<path style="fill:#ABFFDB;" d="M297.391,372.321l52.672,37.623l-27.584,27.584c-3.555,3.555-9.397,3.291-12.616-0.572
		l-36.761-44.113l12.204-18.305C287.986,370.517,293.46,369.513,297.391,372.321z"/>
	<path style="fill:#ABFFDB;" d="M402.735,372.321l-52.672,37.623l27.584,27.584c3.555,3.555,9.397,3.291,12.616-0.572l36.761-44.113
		l-12.204-18.305C412.14,370.517,406.665,369.513,402.735,372.321z"/>
</g>
<path style="fill:#FEA82F;" d="M273.102,179.04v-27.558c-3.139,2.783-6.168,5.712-8.941,8.934
	c-12.85,14.922-20.46,33.312-22.274,52.529C259.354,211.406,273.102,196.906,273.102,179.04z"/>
<g>
	<path style="fill:#979BA0;" d="M315.858,298.221c12.813,0,23.408-9.645,24.926-22.053c2.216-2.246,5.604-3.6,9.279-3.6
		c3.675,0,7.063,1.355,9.279,3.6c1.518,12.409,12.113,22.053,24.926,22.053c13.851,0,25.119-11.268,25.119-25.119
		s-11.268-25.119-25.119-25.119c-8.834,0-16.612,4.588-21.091,11.502c-3.951-1.907-8.423-2.951-13.113-2.951
		c-4.69,0-9.163,1.044-13.113,2.951c-4.48-6.915-12.257-11.502-21.091-11.502c-13.851,0-25.119,11.268-25.119,25.119
		S302.007,298.221,315.858,298.221z M384.267,264.017c5.01,0,9.086,4.076,9.086,9.086c0,5.01-4.076,9.086-9.086,9.086
		s-9.086-4.076-9.086-9.086S379.257,264.017,384.267,264.017z M315.858,264.017c5.01,0,9.086,4.076,9.086,9.086
		c0,5.01-4.076,9.086-9.086,9.086s-9.086-4.076-9.086-9.086S310.848,264.017,315.858,264.017z"/>
	<path style="fill:#979BA0;" d="M267.9,264.017H42.37c-4.427,0-8.017-3.589-8.017-8.017l0,0c0-4.427,3.589-8.017,8.017-8.017H267.9
		c4.427,0,8.017,3.589,8.017,8.017l0,0C275.917,260.427,272.327,264.017,267.9,264.017z"/>
</g>
<circle style="fill:#FFC850;" cx="102.079" cy="256" r="17.102"/>
<path style="fill:#474D54;" d="M485.634,397.631l-53.728-11.94l-10.416-15.625c-2.511-3.767-6.346-6.29-10.799-7.106
	c-0.435-0.079-0.87-0.127-1.305-0.173v-20.371l4.219-3.516c7.959-6.631,13.188-15.926,14.725-26.172l11.94-79.595
	c3.304-22.023-3.137-44.335-17.67-61.209c-12.225-14.196-29.109-23.272-47.418-25.805V59.324c0-18.566-15.105-33.67-33.67-33.67
	H33.669C15.105,25.653,0,40.758,0,59.324v213.779c0,18.566,15.105,33.67,33.67,33.67h237.231l0.894,5.955
	c1.537,10.245,6.766,19.54,14.725,26.172l4.219,3.516v20.371c-0.435,0.045-0.87,0.093-1.305,0.173
	c-4.453,0.816-8.287,3.34-10.799,7.106l-10.416,15.625l-53.728,11.94c-15.523,3.451-26.365,16.968-26.365,32.869v30.729
	c0,13.851,11.268,25.119,25.119,25.119h273.637c13.851,0,25.119-11.268,25.119-25.119v-30.729
	C512,414.597,501.158,401.081,485.634,397.631z M259.238,216.024c-0.615,5.638-0.239,11.39,0.618,17.109l2.228,14.85l2.405,16.033
	l4.008,26.722H33.67c-9.725,0-17.637-7.912-17.637-17.637V59.324c0-9.725,7.912-17.637,17.637-17.637h307.841
	c9.725,0,17.637,7.912,17.637,17.637v86.046h-23.712c-20.504,0-39.029,9.26-54.317,22.692
	C267.104,180.376,260.899,200.773,259.238,216.024z M289.673,182.386c11.485-13.336,28.164-20.983,45.763-20.983h29.253
	c17.598,0,34.277,7.648,45.763,20.983c2.982,3.462,5.522,7.218,7.618,11.181c-16.365,14.56-38.83,22.72-51.439,26.432v-6.754
	c0-2.577-1.239-4.997-3.33-6.503c-2.091-1.506-4.778-1.918-7.223-1.102c-21.265,7.088-69.066,8.005-80.488,8.123
	C277.131,202.277,281.947,191.359,289.673,182.386z M287.651,310.349l-11.94-79.595c-0.048-0.319-0.075-0.637-0.117-0.956
	c10.302-0.089,49.318-0.782,75.002-6.178v6.725c0,2.402,1.076,4.676,2.934,6.2c1.446,1.185,3.245,1.817,5.083,1.817
	c0.524,0,1.05-0.051,1.572-0.156c1.652-0.33,36.873-7.578,63.642-28.575c1.413,6.874,1.651,14.014,0.586,21.121l-11.94,79.595
	c-0.953,6.355-4.196,12.12-9.133,16.233l-34.174,28.477c-3.163,2.636-7.173,4.087-11.291,4.087h-15.629
	c-4.117,0-8.128-1.452-11.291-4.087l-34.174-28.477C291.847,322.469,288.604,316.704,287.651,310.349z M393.353,355.777v13.37
	l-43.29,30.922l-43.29-30.922v-13.37l13.92,11.601c6.038,5.032,13.694,7.804,21.555,7.804h15.629c7.861,0,15.516-2.772,21.555-7.804
	L393.353,355.777z M362.422,410.944l44.972-32.122c0.045-0.032,0.183-0.131,0.406-0.091c0.222,0.041,0.317,0.183,0.348,0.229
	c0,0,6.009,10.537,8.884,13.325c3.435,3.334,11.814,8.323,16.246,10.136c11.586,4.738,48.877,10.862,48.877,10.862
	c8.069,1.794,13.811,8.95,13.811,17.217v30.729c0,5.017-4.068,9.086-9.086,9.086H419.7h-16.351h-45.27h-16.033h-45.269h-16.351
	h-67.182c-5.017,0-9.086-4.068-9.086-9.086v-30.729c0-8.266,5.741-15.423,13.81-17.217c0,0,37.292-6.123,48.878-10.862
	c4.431-1.812,12.81-6.802,16.246-10.136c2.873-2.788,8.884-13.325,8.884-13.325c0.031-0.046,0.126-0.188,0.348-0.229
	c0.221-0.041,0.36,0.059,0.406,0.091l44.972,32.122l10.156,6.899c1.331,0.904,3.078,0.904,4.409,0L362.422,410.944z"/>
<g>
</g>
<g>
</g>
<g>
</g>
<g>
</g>
<g>
</g>
<g>
</g>
<g>
</g>
<g>
</g>
<g>
</g>
<g>
</g>
<g>
</g>
<g>
</g>
<g>
</g>
<g>
</g>
<g>
</g>
</svg>
