<?xml version="1.0" encoding="iso-8859-1"?>
<!-- Generator: Adobe Illustrator 19.0.0, SVG Export Plug-In . SVG Version: 6.00 Build 0)  -->
<svg version="1.1" id="Capa_1" xmlns="http://www.w3.org/2000/svg" xmlns:xlink="http://www.w3.org/1999/xlink" x="0px" y="0px"
	 viewBox="0 0 512.002 512.002" style="enable-background:new 0 0 512.002 512.002;" xml:space="preserve">
<path style="fill:#FFFFFF;" d="M422.429,201.229c-55.018-7.093-102.165,33.403-106.203,85.971l-34.572,41.487h40.715
	c13.694,35.016,47.684,59.858,87.552,59.858c55.571,0,99.886-48.189,93.437-105.058
	C498.564,241.202,464.634,206.671,422.429,201.229z"/>
<path style="fill:#FFC850;" d="M264.551,149.113H179.04H93.528c-8.551,8.551-10.475,35.005-8.225,49.065l5.832,36.446h87.906h87.906
	l5.832-36.446C275.026,184.118,273.102,157.664,264.551,149.113z"/>
<path style="fill:#FEA82F;" d="M189.568,196.533l80.141-20.361c1.166-0.296,2.25-0.754,3.339-1.201
	c-1.066-10.683-3.714-21.075-8.497-25.858h-85.511H93.529c-8.551,8.551-10.475,35.005-8.225,49.065l5.832,36.446h87.906v-36.775
	C182.587,197.85,186.13,197.407,189.568,196.533z"/>
<path style="fill:#92E0C0;" d="M325.687,381.233l-62.619-18.875H95.415l-63.022,18.875c-14.467,4.341-24.376,17.657-24.376,32.762
	v34.409c0,9.445,7.658,17.102,17.102,17.102H332.96c9.445,0,17.102-7.658,17.102-17.102v-34.409
	C350.063,398.89,340.154,385.574,325.687,381.233z"/>
<polygon style="fill:#E4EAF8;" points="238.898,303.035 238.898,350.779 179.04,388.545 119.182,350.779 119.182,303.035 "/>
<g>
	<path style="fill:#ABFFDB;" d="M58.644,423.609l-40.625-33.737c-6.238,6.263-10.002,14.844-10.002,24.123v34.409
		c0,9.445,7.658,17.102,17.102,17.102h42.756v-22.189C67.875,435.704,64.493,428.483,58.644,423.609z"/>
	<path style="fill:#ABFFDB;" d="M350.063,448.403v-34.409c0-9.31-3.785-17.923-10.06-24.191l-40.567,33.806
		c-5.849,4.874-9.231,12.093-9.231,19.707v22.189h42.756C342.405,465.506,350.063,457.849,350.063,448.403z"/>
</g>
<path style="fill:#FFFFFF;" d="M273.102,217.522H254.46c-4.076,0-7.587-2.877-8.385-6.874l-4.427-22.134
	c-1.599-7.994-8.618-13.748-16.77-13.748h-91.675c-8.152,0-15.171,5.754-16.77,13.748l-4.427,22.134
	c-0.798,3.997-4.309,6.874-8.385,6.874H93.528h-8.551c-9.445,0-17.102,7.656-17.102,17.102v17.102
	c0,9.445,7.658,17.102,17.102,17.102h8.551h4.447l2.078,12.99c1.306,8.164,5.526,15.579,11.878,20.872l34.319,28.599
	c4.61,3.842,10.422,5.946,16.424,5.946h32.731c6.002,0,11.813-2.105,16.424-5.946l34.319-28.599
	c6.351-5.293,10.572-12.708,11.878-20.872l2.078-12.99h12.998c9.445,0,17.102-7.658,17.102-17.102v-17.102
	C290.205,225.179,282.547,217.522,273.102,217.522z"/>
<path style="fill:#E4EAF8;" d="M153.386,277.605v-68.633c0-4.722,3.829-8.551,8.551-8.551h82.091l-2.381-11.904
	c-1.598-7.994-8.617-13.749-16.77-13.749h-91.676c-8.152,0-15.171,5.754-16.77,13.748l-4.427,22.134
	c-0.8,3.997-4.309,6.874-8.385,6.874H84.977c-9.446,0-17.102,7.656-17.102,17.102v17.102c0,9.446,7.656,17.102,17.102,17.102h12.998
	l2.078,12.99c1.306,8.164,5.525,15.579,11.878,20.872l34.322,28.601c4.61,3.842,10.421,5.945,16.421,5.945h7.815l-14.47-43.408
	C154.276,288.598,153.386,283.119,153.386,277.605z"/>
<g>
	<polygon style="fill:#ABFFDB;" points="179.04,388.545 110.63,337.238 93.528,362.892 136.284,422.75 	"/>
	<polygon style="fill:#ABFFDB;" points="179.04,388.545 247.449,337.238 264.551,362.892 221.795,422.75 	"/>
	<path style="fill:#ABFFDB;" d="M94.95,88.64l-8.687,52.098c-0.731,4.386,2.02,8.6,6.329,9.695l80.132,20.359
		c4.145,1.053,8.489,1.053,12.634,0l80.141-20.361c4.303-1.093,7.051-5.303,6.321-9.682l-8.689-52.107H94.95V88.64z"/>
</g>
<path style="fill:#FFC850;" d="M315.858,148.498L315.858,148.498c-9.446,0-17.102,7.656-17.102,17.102v34.205h34.205v-34.205
	C332.96,156.155,325.304,148.498,315.858,148.498z"/>
<path style="fill:#92E0C0;" d="M268.897,123.227L263.13,88.64H94.95l-8.688,52.098c-0.732,4.386,2.02,8.599,6.329,9.695
	l80.132,20.359c2.073,0.527,4.194,0.79,6.317,0.79v-24.184c0-4.103,2.915-7.629,6.946-8.399L268.897,123.227z"/>
<path style="fill:#ABFFDB;" d="M172.697,47.104L19.893,76.209c-4.281,0.816-4.281,6.945,0,7.76l152.804,29.105
	c4.229,0.806,8.571,0.806,12.8,0l152.804-29.105c4.281-0.816,4.281-6.945,0-7.76L185.497,47.104
	C181.268,46.298,176.925,46.298,172.697,47.104z"/>
<path style="fill:#474D54;" d="M327.991,373.247l-58.371-17.512l-15.501-23.251c-1.222-1.833-3.145-3.083-5.317-3.455
	c-0.628-0.108-1.261-0.13-1.888-0.089v-16.759l4.365-3.638c7.841-6.535,13.049-15.685,14.662-25.765l0.998-6.24h6.162
	c13.851,0,25.119-11.268,25.119-25.119v-17.102c0-12.299-8.886-22.554-20.574-24.699l3.045-19.031
	c2.26-14.121,1.595-28.178-1.964-41.82c1.127-2.757,1.523-5.854,0.999-9.02l-5.804-35.046l33.917-6.463v43.87
	c-9.93,3.354-17.102,12.752-17.102,23.8v34.205c0,4.427,3.589,8.017,8.017,8.017h34.205c4.427,0,8.017-3.589,8.017-8.017v-34.205
	c0-11.048-7.172-20.446-17.102-23.8V95.185l15.925-3.034c5.727-1.091,9.728-5.925,9.728-11.755c0-5.831-4-10.664-9.728-11.756
	L186.996,39.535c-5.242-0.998-10.557-0.998-15.799,0l0,0L18.394,68.641c-5.727,1.091-9.728,5.925-9.728,11.756
	s4.001,10.664,9.728,11.755l65.765,12.526l-5.807,35.067c-0.524,3.167-0.128,6.264,0.999,9.02c-3.558,13.643-4.223,27.7-1.964,41.82
	l3.045,19.032c-11.688,2.146-20.574,12.401-20.574,24.7v17.102c0,13.851,11.268,25.119,25.119,25.119h6.162l0.998,6.24
	c1.613,10.08,6.82,19.229,14.662,25.765l4.365,3.638v16.759c-0.626-0.042-1.259-0.019-1.888,0.089
	c-2.172,0.372-4.095,1.622-5.317,3.455l-15.501,23.251l-58.371,17.512C12.091,378.646,0,394.898,0,413.688v34.409
	c0,13.851,11.268,25.119,25.119,25.119H332.96c13.851,0,25.119-11.268,25.119-25.119v-34.409
	C358.079,394.898,345.988,378.646,327.991,373.247z M264.861,188.054l-3.383,21.145h-7.018c-0.254,0-0.475-0.181-0.524-0.43
	l-4.427-22.134c-1.855-9.273-8.753-16.512-17.472-19.125l32.59-8.281C266.328,168.689,266.413,178.349,264.861,188.054z
	 M187.056,162.396v-41.15l71.112-13.545l5.741,34.664c0.046,0.277-0.124,0.537-0.396,0.606L187.056,162.396z M275.113,225.464
	c4.045,0.918,7.075,4.535,7.075,8.854v17.102c0,5.01-4.076,9.086-9.086,9.086h-3.597L275.113,225.464z M324.944,165.909v26.188
	h-18.171v-26.188c0-5.01,4.076-9.086,9.086-9.086S324.944,160.899,324.944,165.909z M84.977,260.506
	c-5.01,0-9.086-4.076-9.086-9.086v-17.102c0-4.318,3.03-7.935,7.075-8.854l5.606,35.042H84.977z M42.368,80.397l131.83-25.11l0,0
	c3.252-0.619,6.549-0.619,9.801,0l131.83,25.11l-131.831,25.11c-3.252,0.619-6.549,0.619-9.801,0L42.368,80.397z M171.023,121.225
	v41.173l-76.458-19.426c-0.271-0.068-0.441-0.329-0.395-0.605l5.744-34.686L171.023,121.225z M93.218,188.054
	c-1.553-9.704-1.467-19.364,0.235-28.823l32.589,8.281c-8.719,2.612-15.618,9.852-17.472,19.125l-4.427,22.135
	c-0.049,0.249-0.269,0.429-0.524,0.429h-7.018L93.218,188.054z M107.969,280.246l-8.802-55.014h4.453
	c7.871,0,14.704-5.601,16.246-13.318l4.427-22.134c0.847-4.232,4.593-7.304,8.908-7.304h91.676c4.316,0,8.063,3.072,8.908,7.304
	l4.427,22.133c1.542,7.717,8.375,13.319,16.246,13.319h4.453l-8.802,55.014c-1,6.252-4.231,11.928-9.094,15.981l-34.32,28.6
	c-3.163,2.636-7.173,4.087-11.291,4.087h-29.636c-6.114,0-12.068-2.156-16.766-6.07l-31.942-26.619
	C112.2,292.173,108.969,286.498,107.969,280.246z M230.881,325.544v13.793l-51.841,38.881l-51.841-38.881v-13.793l11.542,9.619
	c7.572,6.311,17.172,9.786,27.029,9.786h29.636c7.861,0,15.516-2.772,21.555-7.804L230.881,325.544z M267.741,371.911
	c13,6.475,55.642,16.692,55.642,16.692c1.228,0.369,2.5,0.661,3.539,1.356c3.356,2.251,9.355,7.817,11.845,11
	c2.669,3.412,3.278,8.131,3.278,12.727v34.409c0,5.017-4.068,9.086-9.086,9.086h-34.739h-16.033h-95.132h-16.033H75.891H59.858
	H25.119c-5.017,0-9.086-4.068-9.086-9.086v-34.409c0-4.596,0.609-9.316,3.278-12.727c2.491-3.183,8.489-8.748,11.845-10.999
	c1.038-0.696,2.31-0.989,3.539-1.356c0,0,42.642-10.218,55.642-16.693c3.588-1.787,10.159-6.587,12.929-9.484
	c2.906-3.04,9.333-13.998,9.333-13.998l53.351,40.013l8.114,5.53c3.001,2.046,6.948,2.046,9.949,0l8.114-5.53l53.351-40.013
	c0,0,6.426,10.958,9.333,13.998C257.582,365.325,264.152,370.124,267.741,371.911z"/>
<path style="fill:#92E0C0;" d="M409.921,226.301c-37.426,0-67.875,30.449-67.875,67.875s30.448,67.875,67.875,67.875
	c3.242,0,6.503-0.232,9.693-0.688c4.384-0.627,7.428-4.689,6.8-9.072c-0.627-4.384-4.696-7.428-9.072-6.8
	c-2.44,0.35-4.937,0.526-7.421,0.526c-28.585,0-51.841-23.256-51.841-51.841s23.256-51.841,51.841-51.841
	c28.585,0,51.841,23.256,51.841,51.9c0,10.47-3.719,18.149-10.471,21.624c-5.186,2.668-10.714,2.054-13.493,0.069
	c-1.672-1.194-2.275-2.747-1.953-5.03l2.012-12.576c0.003-0.025,0.007-0.049,0.012-0.074l1.805-11.286
	c1.454-9.089-2.063-18.432-9.179-24.381c-6.888-5.76-15.967-7.46-24.288-4.549c-10.565,3.696-19.374,11.432-26.18,22.992
	c-6.454,10.962-8.245,22.235-5.044,31.744c2.595,7.71,8.165,13.653,15.684,16.736c7.616,3.122,17.109,2.101,26.045-2.799
	c2.108-1.157,4.099-2.471,5.958-3.924c1.439,2.369,3.387,4.465,5.808,6.194c8.105,5.79,20.22,6.25,30.149,1.141
	c12.182-6.267,19.168-19.345,19.168-35.937C477.795,256.75,447.347,226.301,409.921,226.301z M423.844,284.429l-1.799,11.244
	c-1.243,6.74-6.235,13.238-13.042,16.972c-4.534,2.487-9.229,3.262-12.253,2.022c-3.148-1.291-5.482-3.783-6.57-7.017
	c-1.694-5.033-0.393-11.602,3.665-18.493c4.899-8.318,10.675-13.55,17.659-15.994c1.017-0.356,1.976-0.5,2.867-0.5
	c2.818,0,4.924,1.448,5.841,2.216C423.062,277.263,424.419,280.833,423.844,284.429z"/>
<path style="fill:#474D54;" d="M409.921,192.096c-25.88,0-50.553,9.71-69.474,27.341c-18.171,16.932-29.465,39.663-31.981,64.247
	l-32.97,39.564c-1.991,2.39-2.421,5.715-1.101,8.532c1.32,2.817,4.149,4.617,7.26,4.617h35.402
	c7.6,16.729,19.507,31.04,34.692,41.621c17.12,11.931,37.237,18.237,58.174,18.237c56.287,0,102.079-45.792,102.079-102.079
	S466.208,192.096,409.921,192.096z M409.921,380.222c-35.641,0-67.076-21.495-80.086-54.76c-1.203-3.074-4.165-5.098-7.466-5.098
	H298.77l23.615-28.337c1.066-1.279,1.707-2.858,1.834-4.518c1.656-21.554,11.3-41.563,27.158-56.34
	c15.943-14.857,36.734-23.038,58.543-23.038c47.446,0,86.046,38.6,86.046,86.046S457.367,380.222,409.921,380.222z"/>
<g>
</g>
<g>
</g>
<g>
</g>
<g>
</g>
<g>
</g>
<g>
</g>
<g>
</g>
<g>
</g>
<g>
</g>
<g>
</g>
<g>
</g>
<g>
</g>
<g>
</g>
<g>
</g>
<g>
</g>
</svg>
