<?xml version="1.0" encoding="iso-8859-1"?>
<!-- Generator: Adobe Illustrator 19.0.0, SVG Export Plug-In . SVG Version: 6.00 Build 0)  -->
<svg version="1.1" id="Capa_1" xmlns="http://www.w3.org/2000/svg" xmlns:xlink="http://www.w3.org/1999/xlink" x="0px" y="0px"
	 viewBox="0 0 512.002 512.002" style="enable-background:new 0 0 512.002 512.002;" xml:space="preserve">
<path style="fill:#FFC850;" d="M170.412,106.017c-56.685,0-102.637,45.951-102.637,102.637c0,26.031,25.659,213.826,25.659,213.826
	H247.39c0,0,25.659-187.795,25.659-213.826C273.049,151.968,227.097,106.017,170.412,106.017z"/>
<path style="fill:#FEA82F;" d="M269.1,180.722c-12.177-43.091-51.699-74.706-98.688-74.706
	c-56.685,0-102.637,45.951-102.637,102.637c0,26.031,25.659,213.826,25.659,213.826h110.322V198.97l57.346-14.57
	C264.039,183.653,266.705,182.357,269.1,180.722z"/>
<path style="fill:#E4EAF8;" d="M300.024,381.689l-76.32-31.8c-6.374-2.656-10.527-8.884-10.527-15.791v-20.668h-85.531v20.67
	c0,6.906-4.153,13.134-10.527,15.791l-76.32,31.8c-9.561,3.984-15.79,13.327-15.79,23.686v34.212
	c0,9.447,7.659,17.106,17.106,17.106h256.592c9.447,0,17.106-7.659,17.106-17.106v-34.212
	C315.814,395.015,309.585,385.672,300.024,381.689z"/>
<path style="fill:#92E0C0;" d="M300.024,381.689l-70.54-29.392l-41.966,35.971h-34.212l-47.266-33.762L40.8,381.688
	c-9.561,3.984-15.79,13.327-15.79,23.686v34.212c0,9.447,7.659,17.106,17.106,17.106h256.592c9.447,0,17.106-7.659,17.106-17.106
	v-34.212C315.814,395.015,309.585,385.672,300.024,381.689z"/>
<path style="fill:#FFFFFF;" d="M503.356,300.29c-4.796-42.294-38.734-76.833-80.948-82.275
	c-54.139-6.979-100.656,32.11-105.996,83.444c-0.172,1.652-0.796,3.228-1.86,4.504l-32.819,39.54h34.986
	c3.405,0,6.378,2.071,7.806,5.163c14.904,32.278,47.486,54.709,85.373,54.709C465.481,405.374,509.806,357.173,503.356,300.29z"/>
<g>
	<circle style="fill:#ABFFDB;" cx="409.895" cy="311.29" r="59.871"/>
	<path style="fill:#ABFFDB;" d="M67.096,414.787l-33.824-28.188c-5.143,4.768-8.262,11.499-8.262,18.775v34.212
		c0,9.448,7.658,17.106,17.106,17.106h34.212v-22.194C76.329,426.883,72.946,419.661,67.096,414.787z"/>
	<path style="fill:#ABFFDB;" d="M273.728,414.787l33.824-28.187c5.143,4.768,8.262,11.499,8.262,18.775v34.212
		c0,9.448-7.658,17.106-17.106,17.106h-34.212v-22.194C264.496,426.883,267.878,419.661,273.728,414.787z"/>
	<path style="fill:#ABFFDB;" d="M86.302,97.464l-8.689,52.11c-0.731,4.387,2.021,8.602,6.33,9.697l80.15,20.364
		c4.146,1.053,8.491,1.053,12.637,0l80.159-20.366c4.304-1.094,7.053-5.304,6.323-9.684l-8.691-52.119H86.302V97.464z"/>
</g>
<path style="fill:#FFC850;" d="M315.814,157.335L315.814,157.335c-9.448,0-17.106,7.658-17.106,17.106v34.212h34.212v-34.212
	C332.92,164.994,325.261,157.335,315.814,157.335z"/>
<path style="fill:#92E0C0;" d="M444.11,336.95c-33.066,0-59.871-26.805-59.871-59.871c0-7.62,1.48-14.88,4.076-21.584
	c-22.385,8.667-38.288,30.351-38.288,55.796c0,33.066,26.805,59.871,59.871,59.871c25.445,0,47.128-15.902,55.796-38.288
	C458.99,335.47,451.73,336.95,444.11,336.95z"/>
<g>
	<path style="fill:#ABFFDB;" d="M170.412,388.268l-52.543-45.036c-3.896-3.34-9.836-2.52-12.683,1.749l-11.752,17.628l34.212,59.871
		L170.412,388.268z"/>
	<path style="fill:#ABFFDB;" d="M170.412,388.268l52.543-45.036c3.896-3.34,9.836-2.52,12.683,1.749l11.752,17.628l-34.212,59.871
		L170.412,388.268z"/>
</g>
<path style="fill:#FFFFFF;" d="M264.496,217.207h-10.109l1.556-17.106c-25.659-8.553-42.765-25.659-42.765-25.659
	c-34.212,25.659-128.296,25.659-128.296,25.659l1.556,17.106H76.329c-9.447,0-17.106,7.658-17.106,17.106v17.106
	c0,9.447,7.659,17.106,17.106,17.106h14.773l0.694,7.638c1.024,11.274,7.56,21.312,17.456,26.81l44.544,24.746
	c10.333,5.74,22.898,5.74,33.231,0l44.544-24.746c9.896-5.499,16.431-15.536,17.456-26.81l0.694-7.638h14.773
	c9.447,0,17.106-7.659,17.106-17.106v-17.106C281.602,224.865,273.942,217.207,264.496,217.207z"/>
<path style="fill:#E4EAF8;" d="M255.943,200.101c-25.659-8.553-42.765-25.659-42.765-25.659
	c-34.212,25.659-128.296,25.659-128.296,25.659l1.556,17.106H76.329c-9.447,0-17.106,7.658-17.106,17.106v17.106
	c0,9.447,7.659,17.106,17.106,17.106h14.773l0.694,7.638c1.024,11.274,7.56,21.312,17.456,26.81l44.544,24.746
	c3.166,1.759,6.551,2.911,10.006,3.592l-12.851-19.275c-4.066-6.097-6.494-13.135-7.057-20.442l-4.695-61.021
	c-0.35-4.544,2.927-8.517,7.442-9.138c22.499-3.091,46.75-8.388,64.867-17.487c8.657,6.579,22.237,15.338,39.022,20.933l2.903,0.968
	L255.943,200.101z"/>
<path style="fill:#92E0C0;" d="M260.29,132.058l-5.769-34.594H86.304l-8.69,52.11c-0.732,4.387,2.021,8.601,6.33,9.697l80.15,20.364
	c2.073,0.527,4.195,0.79,6.319,0.79v-24.19c0-4.104,2.916-7.63,6.947-8.401L260.29,132.058z"/>
<path style="fill:#ABFFDB;" d="M164.068,55.917L11.23,85.03c-4.282,0.816-4.282,6.946,0,7.762l152.838,29.111
	c4.229,0.806,8.573,0.806,12.803,0l152.838-29.111c4.282-0.816,4.282-6.946,0-7.762L176.871,55.917
	C172.641,55.112,168.297,55.112,164.068,55.917z"/>
<g>
	<path style="fill:#474D54;" d="M323.833,150.636v-48.562l7.376-1.405c5.728-1.092,9.73-5.926,9.73-11.757
		c0-5.832-4.001-10.667-9.73-11.758L178.371,48.041c-5.243-0.999-10.56-0.999-15.803,0l0,0L9.73,77.153
		C4.001,78.244,0,83.08,0,88.911c0,5.832,4.002,10.667,9.73,11.757l65.779,12.529l-5.809,35.075c-0.259,1.561-0.289,3.106-0.124,4.6
		c-1.826,2.194-5.505,7.318-8.34,15.824c-4.457,13.374-5.084,29.212-1.882,47.109c-5.007,4.596-8.152,11.19-8.152,18.506v17.106
		c0,11.271,7.459,20.83,17.701,24.004l7.521,82.735l-38.709,16.129c-12.589,5.245-20.724,17.448-20.724,31.087v34.212
		c0,13.854,11.271,25.125,25.125,25.125h256.592c13.854,0,25.125-11.271,25.125-25.125v-34.212c0-13.639-8.135-25.841-20.724-31.087
		L264.4,358.157l7.521-82.735c10.241-3.174,17.701-12.733,17.701-24.004v-17.106c0-7.319-3.148-13.917-8.16-18.513
		c6.883-38.633-6.214-58.052-10.215-62.917c0.167-1.499,0.136-3.045-0.123-4.61l-5.805-35.054l42.478-8.091v45.509
		c-9.932,3.355-17.106,12.755-17.106,23.805v34.212c0,4.428,3.59,8.018,8.018,8.018h34.212c4.428,0,8.018-3.59,8.018-8.018V174.44
		C340.939,163.391,333.765,153.991,323.833,150.636z M79.722,166.282c0.724,0.296,1.467,0.561,2.247,0.759l74.305,18.879
		c-6.496,1.133-13.445,2.133-20.834,2.988c-27.043,3.13-50.328,3.173-50.56,3.173c-2.253,0-4.402,0.948-5.921,2.612
		c-1.518,1.664-2.269,3.89-2.064,6.133l0.76,8.362h-1.328c-0.605,0-1.203,0.029-1.797,0.072
		C71.017,185.461,76.361,172.032,79.722,166.282z M212.455,184.553c6.431,5.387,18.754,14.521,34.945,20.959l-6.357,69.924
		c-0.785,8.64-5.782,16.313-13.365,20.526l-44.544,24.746c-7.965,4.425-17.475,4.425-25.441,0l-44.544-24.746
		c-7.583-4.213-12.58-11.887-13.365-20.526l-6.135-67.475c9.433-0.275,25.498-1.03,43.472-3.104
		C171.195,200.927,196.483,194.106,212.455,184.553z M178.431,170.928v-41.159l71.128-13.548l5.742,34.672
		c0.046,0.277-0.124,0.537-0.396,0.606L178.431,170.928z M254.745,287.205l-5.758,63.346l-6.678-10.017
		c-2.628-3.943-6.829-6.576-11.523-7.224c-3.297-0.455-6.618,0.119-9.555,1.559c-0.021-0.256-0.035-0.511-0.035-0.77v-16.191
		l14.269-7.928C244.563,304.927,251.346,296.781,254.745,287.205z M207.933,345.545l-37.522,32.162l-37.522-32.162
		c1.803-3.517,2.775-7.427,2.775-11.446v-7.28l14.238,7.909c6.422,3.568,13.465,5.351,20.509,5.351
		c7.043,0,14.089-1.784,20.509-5.351l14.238-7.909v7.28C205.159,338.118,206.131,342.029,207.933,345.545z M119.628,317.909v16.19
		c0,0.258-0.014,0.514-0.035,0.769c-2.936-1.44-6.255-2.015-9.554-1.559c-4.695,0.647-8.895,3.28-11.524,7.224l-6.678,10.017
		l-5.758-63.346c3.4,9.576,10.182,17.722,19.281,22.777L119.628,317.909z M162.394,170.928l-76.475-19.43
		c-0.272-0.068-0.442-0.329-0.396-0.605l5.746-34.693l71.125,13.547V170.928z M76.329,260.507c-5.011,0-9.088-4.077-9.088-9.088
		v-17.106c0-5.011,4.077-9.088,9.088-9.088h2.785l3.207,35.281H76.329z M182.981,388.055l45.191-38.736
		c0.05-0.043,0.179-0.158,0.421-0.124c0.238,0.033,0.335,0.179,0.372,0.233l9.003,13.504l14.186,7.497
		c0,0,32.752,11.52,42.455,17.69c3.427,2.178,9.726,7.572,12.016,10.924c1.196,1.751,1.17,4.119,1.17,6.33v34.212
		c0,5.019-4.069,9.088-9.088,9.088h-26.194h-16.037h-78.047h-16.037H84.347H68.31H42.116c-5.019,0-9.088-4.069-9.088-9.088v-34.212
		c0-2.211-0.028-4.578,1.17-6.33c2.29-3.352,8.589-8.745,12.016-10.924c9.703-6.169,42.455-17.69,42.455-17.69l14.186-7.497
		l9.003-13.504c0.036-0.055,0.134-0.2,0.372-0.233c0.244-0.033,0.371,0.08,0.421,0.123l45.192,38.736l6.8,5.845
		c3.347,2.878,8.299,2.866,11.633-0.027L182.981,388.055z M273.583,234.313v17.106c0,5.011-4.077,9.088-9.088,9.088h-5.992
		l3.207-35.281h2.785C269.507,225.225,273.583,229.302,273.583,234.313z M266.292,209.26c-0.594-0.042-1.192-0.072-1.797-0.072
		h-1.328l0.76-8.362c0.337-3.706-1.92-7.156-5.45-8.333c-13.779-4.593-25.005-11.938-31.947-17.24l32.323-8.212
		c0.78-0.199,1.525-0.464,2.248-0.76C264.464,172.032,269.806,185.461,266.292,209.26z M175.371,114.027
		c-3.252,0.619-6.551,0.619-9.803,0L33.709,88.911l131.859-25.116l0,0c3.252-0.619,6.551-0.619,9.803,0l131.858,25.116
		L175.371,114.027z M324.902,200.635h-18.175v-26.194c0-5.011,4.077-9.088,9.088-9.088s9.088,4.077,9.088,9.088V200.635z"/>
	<path style="fill:#474D54;" d="M409.898,209.188c-25.886,0-50.565,9.712-69.489,27.347c-18.175,16.936-29.472,39.672-31.988,64.261
		l-32.977,39.573c-1.992,2.391-2.422,5.717-1.101,8.534c1.32,2.817,4.15,4.618,7.262,4.618h35.41
		c7.602,16.733,19.512,31.047,34.7,41.63c17.124,11.934,37.245,18.242,58.188,18.242c56.299,0,102.102-45.803,102.102-102.102
		S466.196,209.188,409.898,209.188z M409.898,397.356c-35.649,0-67.091-21.5-80.104-54.773c-1.203-3.075-4.166-5.099-7.468-5.099
		h-23.604l23.62-28.344c1.066-1.28,1.707-2.859,1.835-4.519c1.656-21.559,11.303-41.572,27.165-56.353
		c15.946-14.86,36.742-23.043,58.556-23.043c47.457,0,86.065,38.609,86.065,86.065S457.353,397.356,409.898,397.356z"/>
</g>
<path style="fill:#48C397;" d="M409.898,243.401c-37.435,0-67.89,30.455-67.89,67.89s30.455,67.89,67.89,67.89
	s67.89-30.455,67.89-67.89S447.332,243.401,409.898,243.401z M461.129,303.272h-43.212v-15.601
	c10.837-1.294,21.216-5.189,30.233-11.348C454.881,283.681,459.524,292.979,461.129,303.272z M417.916,260.06
	c6,0.935,11.661,2.903,16.798,5.715c-5.224,2.852-10.907,4.787-16.798,5.712V260.06z M401.879,271.486
	c-5.887-0.926-11.573-2.862-16.796-5.712c5.136-2.812,10.797-4.778,16.796-5.713V271.486z M371.639,276.331
	c9.013,6.154,19.413,10.046,30.239,11.34v15.601h-43.212C360.271,292.983,364.911,283.688,371.639,276.331z M358.667,319.309h43.212
	v15.486c-10.856,1.298-21.292,5.2-30.318,11.372C364.873,338.824,360.264,329.559,358.667,319.309z M401.879,362.521
	c-6.045-0.943-11.745-2.935-16.913-5.781c5.254-2.877,10.983-4.828,16.913-5.759V362.521z M417.916,350.981
	c5.929,0.931,11.658,2.882,16.912,5.759c-5.167,2.846-10.868,4.838-16.912,5.78V350.981z M448.237,346.165
	c-9.029-6.173-19.464-10.072-30.321-11.37v-15.486h43.212C459.53,329.558,454.922,338.822,448.237,346.165z"/>
<g>
</g>
<g>
</g>
<g>
</g>
<g>
</g>
<g>
</g>
<g>
</g>
<g>
</g>
<g>
</g>
<g>
</g>
<g>
</g>
<g>
</g>
<g>
</g>
<g>
</g>
<g>
</g>
<g>
</g>
</svg>
