<?xml version="1.0" encoding="iso-8859-1"?>
<!-- Generator: Adobe Illustrator 19.0.0, SVG Export Plug-In . SVG Version: 6.00 Build 0)  -->
<svg version="1.1" id="Capa_1" xmlns="http://www.w3.org/2000/svg" xmlns:xlink="http://www.w3.org/1999/xlink" x="0px" y="0px"
	 viewBox="0 0 512 512" style="enable-background:new 0 0 512 512;" xml:space="preserve">
<path style="fill:#FFC850;" d="M503.983,354.338h-51.307V72.15c0-4.722,3.829-8.551,8.551-8.551h34.205
	c4.722,0,8.551,3.829,8.551,8.551V354.338z"/>
<path style="fill:#FFFFFF;" d="M358.614,63.599h-34.205c-4.722,0-8.551,3.829-8.551,8.551v273.637c0,4.722,3.829,8.551,8.551,8.551
	h42.756V72.15C367.165,67.428,363.336,63.599,358.614,63.599z"/>
<path style="fill:#FFC850;" d="M179.04,354.338h-51.307V72.15c0-4.722,3.829-8.551,8.551-8.551h34.205
	c4.722,0,8.551,3.829,8.551,8.551V354.338z"/>
<path style="fill:#FFFFFF;" d="M59.324,354.338H8.017V72.15c0-4.722,3.829-8.551,8.551-8.551h34.205
	c4.722,0,8.551,3.829,8.551,8.551V354.338z"/>
<path style="fill:#ABFFDB;" d="M452.676,354.338h-85.511V55.048c0-4.722,3.829-8.551,8.551-8.551h68.409
	c4.722,0,8.551,3.829,8.551,8.551V354.338z"/>
<path style="fill:#FFC850;" d="M127.733,354.338H59.324V37.946c0-4.722,3.829-8.551,8.551-8.551h51.307
	c4.722,0,8.551,3.829,8.551,8.551V354.338z"/>
<path style="fill:#ABFFDB;" d="M307.307,46.497h-68.409c-4.722,0-8.551,3.829-8.551,8.551v299.29h85.511V55.048
	C315.858,50.326,312.029,46.497,307.307,46.497z"/>
<path style="fill:#64DCA0;" d="M315.858,285.326l-24.616-24.616c-4.908-4.907-11.469-7.514-18.146-7.514
	c-5.74,0-11.564,1.927-16.495,5.975c-6.079,4.991-9.153,12.802-9.153,20.667v74.5h68.409V285.326z"/>
<path style="fill:#E4EAF8;" d="M324.409,354.338h42.756v-17.705l-51.307-51.307v60.461
	C315.858,350.509,319.687,354.338,324.409,354.338z"/>
<polygon style="fill:#ABFFDB;" points="273.102,278.85 273.102,420.973 304.279,400.54 338.272,482.605 371.097,469.008 
	337.105,386.943 373.773,379.52 "/>
<path style="fill:#FFFFFF;" d="M179.04,354.338h51.307V37.946c0-4.722-3.829-8.551-8.551-8.551h-34.205
	c-4.722,0-8.551,3.829-8.551,8.551V354.338z"/>
<g>
	<path style="fill:#E4EAF8;" d="M221.795,29.395h-34.205c-4.722,0-8.551,3.829-8.551,8.551v17.102h51.307V37.946
		C230.347,33.223,226.518,29.395,221.795,29.395z"/>
	<rect x="179.04" y="328.685" style="fill:#E4EAF8;" width="51.307" height="25.653"/>
</g>
<g>
	<path style="fill:#FFC850;" d="M495.432,63.599h-34.205c-4.722,0-8.551,3.829-8.551,8.551v17.102h51.307V72.15
		C503.983,67.428,500.155,63.599,495.432,63.599z"/>
	<rect x="452.676" y="328.685" style="fill:#FFC850;" width="51.307" height="25.653"/>
</g>
<g>
	<path style="fill:#48C397;" d="M273.102,209.503c-4.427,0-8.017,3.589-8.017,8.017v25.653c0,4.427,3.589,8.017,8.017,8.017
		c4.427,0,8.017-3.589,8.017-8.017V217.52C281.119,213.092,277.53,209.503,273.102,209.503z"/>
	<path style="fill:#48C397;" d="M273.102,106.889c-4.427,0-8.017,3.589-8.017,8.017v68.409c0,4.427,3.589,8.017,8.017,8.017
		c4.427,0,8.017-3.589,8.017-8.017v-68.409C281.119,110.479,277.53,106.889,273.102,106.889z"/>
</g>
<path style="fill:#FFFFFF;" d="M93.528,141.094c-4.427,0-8.017,3.589-8.017,8.017v102.614c0,4.427,3.589,8.017,8.017,8.017
	c4.427,0,8.017-3.589,8.017-8.017V149.111C101.545,144.683,97.956,141.094,93.528,141.094z"/>
<path style="fill:#48C397;" d="M409.921,192.401c-4.427,0-8.017,3.589-8.017,8.017v51.307c0,4.427,3.589,8.017,8.017,8.017
	c4.427,0,8.017-3.589,8.017-8.017v-51.307C417.937,195.989,414.348,192.401,409.921,192.401z"/>
<path style="fill:#ABFFDB;" d="M67.34,98.873c0-4.427-3.589-8.017-8.017-8.017H8.017C3.589,90.856,0,94.445,0,98.873
	c0,4.427,3.589,8.017,8.017,8.017h51.307C63.752,106.889,67.34,103.3,67.34,98.873z"/>
<g>
	<path style="fill:#FEA82F;" d="M180.643,92.459c0-4.427-2.905-8.017-6.489-8.017H132.62c-3.584,0-6.489,3.589-6.489,8.017
		c0,4.427,2.905,8.017,6.489,8.017h41.534C177.737,100.476,180.643,96.887,180.643,92.459z"/>
	<path style="fill:#FEA82F;" d="M180.643,302.73c0-4.427-2.905-8.017-6.489-8.017H132.62c-3.584,0-6.489,3.589-6.489,8.017
		c0,4.427,2.905,8.017,6.489,8.017h41.534C177.738,310.747,180.643,307.157,180.643,302.73z"/>
</g>
<g>
	<path style="fill:#ABFFDB;" d="M370.372,97.269c0-4.427-2.905-8.017-6.489-8.017h-41.534c-3.584,0-6.489,3.589-6.489,8.017
		c0,4.427,2.905,8.017,6.489,8.017h41.534C367.466,105.286,370.372,101.697,370.372,97.269z"/>
	<path style="fill:#ABFFDB;" d="M370.372,307.54c0-4.427-2.905-8.017-6.489-8.017h-41.534c-3.584,0-6.489,3.589-6.489,8.017
		c0,4.427,2.905,8.017,6.489,8.017h41.534C367.466,315.557,370.372,311.967,370.372,307.54z"/>
</g>
<g>
	<path style="fill:#FEA82F;" d="M133.077,76.426c0-4.427-4.272-8.017-9.543-8.017H62.455c-5.271,0-9.543,3.589-9.543,8.017
		s4.272,8.017,9.543,8.017h61.079C128.805,84.443,133.077,80.853,133.077,76.426z"/>
	<path style="fill:#FEA82F;" d="M133.077,110.63c0-4.427-4.272-8.017-9.543-8.017H62.455c-5.271,0-9.543,3.589-9.543,8.017
		c0,4.427,4.272,8.017,9.543,8.017h61.079C128.805,118.647,133.077,115.058,133.077,110.63z"/>
	<path style="fill:#FEA82F;" d="M133.077,285.628c0-4.427-4.272-8.017-9.543-8.017H62.455c-5.271,0-9.543,3.589-9.543,8.017
		c0,4.427,4.272,8.017,9.543,8.017h61.079C128.805,293.644,133.077,290.055,133.077,285.628z"/>
	<path style="fill:#FEA82F;" d="M133.077,319.832c0-4.427-4.272-8.017-9.543-8.017H62.455c-5.271,0-9.543,3.589-9.543,8.017
		c0,4.427,4.272,8.017,9.543,8.017h61.079C128.805,327.849,133.077,324.26,133.077,319.832z"/>
</g>
<g>
	<path style="fill:#48C397;" d="M452.676,79.783c0-4.427-4.558-8.017-10.18-8.017h-65.151c-5.622,0-10.18,3.589-10.18,8.017
		c0,4.427,4.558,8.017,10.18,8.017h65.151C448.119,87.8,452.676,84.211,452.676,79.783z"/>
	<path style="fill:#48C397;" d="M318.708,84.443c0-4.427-4.558-8.017-10.18-8.017h-65.151c-5.622,0-10.18,3.589-10.18,8.017
		c0,4.427,4.558,8.017,10.18,8.017h65.151C314.15,92.459,318.708,88.87,318.708,84.443z"/>
	<path style="fill:#48C397;" d="M275.952,311.965c0-4.427-2.279-8.017-5.09-8.017h-32.576c-2.811,0-5.09,3.589-5.09,8.017
		c0,4.427,2.279,8.017,5.09,8.017h32.576C273.673,319.982,275.952,316.392,275.952,311.965z"/>
	<path style="fill:#48C397;" d="M452.676,113.988c0-4.427-4.558-8.017-10.18-8.017h-65.151c-5.622,0-10.18,3.589-10.18,8.017
		s4.558,8.017,10.18,8.017h65.151C448.119,122.005,452.676,118.415,452.676,113.988z"/>
	<path style="fill:#48C397;" d="M452.676,285.777c0-4.427-4.558-8.017-10.18-8.017h-65.151c-5.622,0-10.18,3.589-10.18,8.017
		c0,4.427,4.558,8.017,10.18,8.017h65.151C448.119,293.794,452.676,290.206,452.676,285.777z"/>
	<path style="fill:#48C397;" d="M452.676,319.982c0-4.427-4.558-8.017-10.18-8.017h-65.151c-5.622,0-10.18,3.589-10.18,8.017
		c0,4.427,4.558,8.017,10.18,8.017h65.151C448.119,327.999,452.676,324.41,452.676,319.982z"/>
</g>
<path style="fill:#ABFFDB;" d="M71.26,319.832c0-4.427-3.589-8.017-8.017-8.017H11.936c-4.427,0-8.017,3.589-8.017,8.017
	c0,4.427,3.589,8.017,8.017,8.017h51.307C67.671,327.849,71.26,324.26,71.26,319.832z"/>
<path style="fill:#48C397;" d="M409.921,141.094c-4.427,0-8.017,3.589-8.017,8.017v17.103c0,4.427,3.589,8.017,8.017,8.017
	c4.427,0,8.017-3.589,8.017-8.017v-17.103C417.937,144.683,414.348,141.094,409.921,141.094z"/>
<path style="fill:#474D54;" d="M495.432,55.582h-34.205c-0.181,0-0.356,0.021-0.534,0.027v-0.561
	c0-9.136-7.432-16.568-16.568-16.568h-68.409c-9.136,0-16.568,7.432-16.568,16.568v0.561c-0.178-0.005-0.354-0.027-0.534-0.027
	h-34.205c-0.181,0-0.356,0.021-0.534,0.027v-0.561c0-9.136-7.432-16.568-16.568-16.568h-68.409c-0.181,0-0.356,0.021-0.534,0.027
	v-0.561c0-9.136-7.432-16.568-16.568-16.568h-34.205c-9.136,0-16.568,7.432-16.568,16.568v17.663
	c-0.179-0.005-0.354-0.027-0.534-0.027h-34.205c-0.181,0-0.356,0.021-0.534,0.027V37.946c0-9.136-7.432-16.568-16.568-16.568H67.875
	c-9.136,0-16.568,7.432-16.568,16.568v17.663c-0.179-0.005-0.354-0.027-0.534-0.027H16.568C7.432,55.582,0,63.014,0,72.15v282.188
	c0,4.427,3.589,8.017,8.017,8.017h257.069v58.618c0,2.945,1.615,5.653,4.206,7.054c2.593,1.4,5.743,1.267,8.205-0.348l23.08-15.127
	l30.288,73.122c0.813,1.965,2.374,3.525,4.339,4.339c0.982,0.406,2.026,0.61,3.068,0.61s2.085-0.203,3.068-0.61l32.826-13.597
	c1.965-0.813,3.525-2.374,4.339-4.339c0.813-1.965,0.813-4.171,0-6.135l-30.267-73.072l27.126-5.491
	c2.895-0.586,5.232-2.716,6.084-5.543c0.853-2.828,0.081-5.895-2.006-7.982l-11.495-11.497h136.038c4.427,0,8.017-3.589,8.017-8.017
	V72.15C512,63.014,504.568,55.582,495.432,55.582z M51.307,346.322H16.033V72.15c0-0.295,0.239-0.534,0.534-0.534h34.205
	c0.295,0,0.534,0.239,0.534,0.534V346.322z M119.716,346.322H67.34V37.946c0-0.295,0.239-0.534,0.534-0.534h51.307
	c0.295,0,0.534,0.239,0.534,0.534V346.322z M171.023,346.322h-35.273V72.15c0-0.295,0.239-0.534,0.534-0.534h34.205
	c0.295,0,0.534,0.239,0.534,0.534V346.322z M222.33,346.322h-35.273V37.946c0-0.295,0.239-0.534,0.534-0.534h34.205
	c0.295,0,0.534,0.239,0.534,0.534V346.322z M270.035,271.443c-2.996,1.241-4.949,4.163-4.949,7.406v67.472h-26.722V328.15v-16.033
	V55.048c0-0.295,0.239-0.534,0.534-0.534h68.409c0.295,0,0.534,0.239,0.534,0.534v247.203l-29.071-29.071
	C276.479,270.889,273.03,270.203,270.035,271.443z M335.514,379.085c-2.347,0.476-4.36,1.976-5.486,4.091
	c-1.126,2.115-1.246,4.622-0.33,6.836l30.925,74.659l-18.013,7.461l-30.925-74.659c-0.914-2.206-2.763-3.89-5.045-4.593
	c-0.774-0.238-1.569-0.356-2.36-0.356c-1.545,0-3.074,0.446-4.395,1.312l-18.766,12.299v-107.93l76.423,76.424L335.514,379.085z
	 M359.148,346.322h-7.237L333.74,328.15l-9.33-16.033c-0.181,0-0.357,0.015-0.534,0.027V72.15c0-0.295,0.239-0.534,0.534-0.534
	h34.205c0.295,0,0.534,0.239,0.534,0.534V346.322z M444.66,346.322h-69.478V55.048c0-0.295,0.239-0.534,0.534-0.534h68.409
	c0.295,0,0.534,0.239,0.534,0.534V346.322z M495.967,346.322h-35.273V72.15c0-0.295,0.239-0.534,0.534-0.534h34.205
	c0.295,0,0.534,0.239,0.534,0.534V346.322z"/>
<g>
</g>
<g>
</g>
<g>
</g>
<g>
</g>
<g>
</g>
<g>
</g>
<g>
</g>
<g>
</g>
<g>
</g>
<g>
</g>
<g>
</g>
<g>
</g>
<g>
</g>
<g>
</g>
<g>
</g>
</svg>
